<?xml version="1.0" encoding="UTF-8" standalone="no"?>
<!-- Generator: Adobe Illustrator 27.5.0, SVG Export Plug-In . SVG Version: 6.00 Build 0)  -->

<svg
   version="1.1"
   x="0px"
   y="0px"
   viewBox="250 250 500 500"
   xml:space="preserve"
   id="svg62"
   width="500"
   height="500"
   xmlns:xlink="http://www.w3.org/1999/xlink"
   xmlns="http://www.w3.org/2000/svg"
   xmlns:svg="http://www.w3.org/2000/svg"><defs
   id="defs62"><linearGradient
     id="swatch64"><stop
       style="stop-color:#000000;stop-opacity:1;"
       offset="0"
       id="stop64" /></linearGradient><linearGradient
     id="swatch62"><stop
       style="stop-color:#ffffff;stop-opacity:1;"
       offset="0"
       id="stop62" /></linearGradient><linearGradient
     xlink:href="#swatch62"
     id="linearGradient2"
     gradientUnits="userSpaceOnUse"
     x1="0"
     y1="250"
     x2="500"
     y2="250" /><linearGradient
     xlink:href="#swatch62"
     id="linearGradient3"
     gradientUnits="userSpaceOnUse"
     x1="0"
     y1="250"
     x2="500"
     y2="250" /><linearGradient
     xlink:href="#swatch62"
     id="linearGradient4"
     gradientUnits="userSpaceOnUse"
     x1="31.7656"
     y1="238.5062"
     x2="474.8844"
     y2="238.5062" /><linearGradient
     xlink:href="#swatch62"
     id="linearGradient5"
     gradientUnits="userSpaceOnUse"
     x1="31.7656"
     y1="238.5062"
     x2="474.8844"
     y2="238.5062" /><linearGradient
     xlink:href="#swatch62"
     id="linearGradient6"
     gradientUnits="userSpaceOnUse"
     x1="31.7656"
     y1="238.5062"
     x2="474.8844"
     y2="238.5062" /><linearGradient
     xlink:href="#swatch62"
     id="linearGradient7"
     gradientUnits="userSpaceOnUse"
     x1="31.7656"
     y1="238.5062"
     x2="474.8844"
     y2="238.5062" /><linearGradient
     xlink:href="#swatch62"
     id="linearGradient8"
     gradientUnits="userSpaceOnUse"
     x1="31.7656"
     y1="238.5062"
     x2="474.8844"
     y2="238.5062" /><linearGradient
     xlink:href="#swatch62"
     id="linearGradient9"
     gradientUnits="userSpaceOnUse"
     x1="31.7656"
     y1="238.5062"
     x2="474.8844"
     y2="238.5062" /><linearGradient
     xlink:href="#swatch62"
     id="linearGradient10"
     gradientUnits="userSpaceOnUse"
     x1="31.7656"
     y1="238.5062"
     x2="474.8844"
     y2="238.5062" /><linearGradient
     xlink:href="#swatch62"
     id="linearGradient11"
     gradientUnits="userSpaceOnUse"
     x1="31.7656"
     y1="238.5062"
     x2="474.8844"
     y2="238.5062" /><linearGradient
     xlink:href="#swatch62"
     id="linearGradient12"
     gradientUnits="userSpaceOnUse"
     x1="31.7656"
     y1="238.5062"
     x2="474.8844"
     y2="238.5062" /><linearGradient
     xlink:href="#swatch62"
     id="linearGradient13"
     gradientUnits="userSpaceOnUse"
     x1="31.7656"
     y1="238.5062"
     x2="474.8844"
     y2="238.5062" /><linearGradient
     xlink:href="#swatch62"
     id="linearGradient14"
     gradientUnits="userSpaceOnUse"
     x1="31.7656"
     y1="238.5062"
     x2="474.8844"
     y2="238.5062" /><linearGradient
     xlink:href="#swatch62"
     id="linearGradient15"
     gradientUnits="userSpaceOnUse"
     x1="31.7656"
     y1="238.5062"
     x2="474.8844"
     y2="238.5062" /><linearGradient
     xlink:href="#swatch62"
     id="linearGradient16"
     gradientUnits="userSpaceOnUse"
     x1="31.7656"
     y1="238.5062"
     x2="474.8844"
     y2="238.5062" /><linearGradient
     xlink:href="#swatch62"
     id="linearGradient17"
     gradientUnits="userSpaceOnUse"
     x1="31.7656"
     y1="238.5062"
     x2="474.8844"
     y2="238.5062" /><linearGradient
     xlink:href="#swatch62"
     id="linearGradient18"
     gradientUnits="userSpaceOnUse"
     x1="31.7656"
     y1="238.5062"
     x2="474.8844"
     y2="238.5062" /><linearGradient
     xlink:href="#swatch62"
     id="linearGradient19"
     gradientUnits="userSpaceOnUse"
     x1="31.7656"
     y1="238.5062"
     x2="474.8844"
     y2="238.5062" /><linearGradient
     xlink:href="#swatch62"
     id="linearGradient20"
     gradientUnits="userSpaceOnUse"
     x1="31.7656"
     y1="238.5062"
     x2="474.8844"
     y2="238.5062" /><linearGradient
     xlink:href="#swatch62"
     id="linearGradient21"
     gradientUnits="userSpaceOnUse"
     x1="31.7656"
     y1="238.5062"
     x2="474.8844"
     y2="238.5062" /><linearGradient
     xlink:href="#swatch62"
     id="linearGradient22"
     gradientUnits="userSpaceOnUse"
     x1="31.7656"
     y1="238.5062"
     x2="474.8844"
     y2="238.5062" /><linearGradient
     xlink:href="#swatch62"
     id="linearGradient25"
     gradientUnits="userSpaceOnUse"
     x1="31.7656"
     y1="238.5062"
     x2="474.8844"
     y2="238.5062" /><linearGradient
     xlink:href="#swatch62"
     id="linearGradient26"
     gradientUnits="userSpaceOnUse"
     x1="31.7656"
     y1="238.5062"
     x2="474.8844"
     y2="238.5062" /><linearGradient
     xlink:href="#swatch62"
     id="linearGradient27"
     gradientUnits="userSpaceOnUse"
     x1="31.7656"
     y1="238.5062"
     x2="474.8844"
     y2="238.5062" /><linearGradient
     xlink:href="#swatch62"
     id="linearGradient28"
     gradientUnits="userSpaceOnUse"
     x1="31.7656"
     y1="238.5062"
     x2="474.8844"
     y2="238.5062" /><linearGradient
     xlink:href="#swatch62"
     id="linearGradient29"
     gradientUnits="userSpaceOnUse"
     x1="31.7656"
     y1="238.5062"
     x2="474.8844"
     y2="238.5062" /><linearGradient
     xlink:href="#swatch62"
     id="linearGradient30"
     gradientUnits="userSpaceOnUse"
     x1="31.7656"
     y1="238.5062"
     x2="474.8844"
     y2="238.5062" /><linearGradient
     xlink:href="#swatch62"
     id="linearGradient31"
     gradientUnits="userSpaceOnUse"
     x1="31.7656"
     y1="238.5062"
     x2="474.8844"
     y2="238.5062" /><linearGradient
     xlink:href="#swatch62"
     id="linearGradient32"
     gradientUnits="userSpaceOnUse"
     x1="31.7656"
     y1="238.5062"
     x2="474.8844"
     y2="238.5062" /><linearGradient
     xlink:href="#swatch62"
     id="linearGradient33"
     gradientUnits="userSpaceOnUse"
     x1="31.7656"
     y1="238.5062"
     x2="474.8844"
     y2="238.5062" /><linearGradient
     xlink:href="#swatch62"
     id="linearGradient34"
     gradientUnits="userSpaceOnUse"
     x1="31.7656"
     y1="238.5062"
     x2="474.8844"
     y2="238.5062" /><linearGradient
     xlink:href="#swatch62"
     id="linearGradient35"
     gradientUnits="userSpaceOnUse"
     x1="31.7656"
     y1="238.5062"
     x2="474.8844"
     y2="238.5062" /><linearGradient
     xlink:href="#swatch62"
     id="linearGradient36"
     gradientUnits="userSpaceOnUse"
     x1="31.7656"
     y1="238.5062"
     x2="474.8844"
     y2="238.5062" /><linearGradient
     xlink:href="#swatch62"
     id="linearGradient37"
     gradientUnits="userSpaceOnUse"
     x1="31.7656"
     y1="238.5062"
     x2="474.8844"
     y2="238.5062" /><linearGradient
     xlink:href="#swatch62"
     id="linearGradient38"
     gradientUnits="userSpaceOnUse"
     x1="31.7656"
     y1="238.5062"
     x2="474.8844"
     y2="238.5062" /><linearGradient
     xlink:href="#swatch62"
     id="linearGradient39"
     gradientUnits="userSpaceOnUse"
     x1="31.7656"
     y1="238.5062"
     x2="474.8844"
     y2="238.5062" /><linearGradient
     xlink:href="#swatch62"
     id="linearGradient40"
     gradientUnits="userSpaceOnUse"
     x1="31.7656"
     y1="238.5062"
     x2="474.8844"
     y2="238.5062" /><linearGradient
     xlink:href="#swatch62"
     id="linearGradient41"
     gradientUnits="userSpaceOnUse"
     x1="31.7656"
     y1="238.5062"
     x2="474.8844"
     y2="238.5062" /><linearGradient
     xlink:href="#swatch62"
     id="linearGradient42"
     gradientUnits="userSpaceOnUse"
     x1="31.7656"
     y1="238.5062"
     x2="474.8844"
     y2="238.5062" /><linearGradient
     xlink:href="#swatch62"
     id="linearGradient43"
     gradientUnits="userSpaceOnUse"
     x1="31.7656"
     y1="238.5062"
     x2="474.8844"
     y2="238.5062" /><linearGradient
     xlink:href="#swatch62"
     id="linearGradient44"
     gradientUnits="userSpaceOnUse"
     x1="31.7656"
     y1="238.5062"
     x2="474.8844"
     y2="238.5062" /><linearGradient
     xlink:href="#swatch62"
     id="linearGradient45"
     gradientUnits="userSpaceOnUse"
     x1="31.7656"
     y1="238.5062"
     x2="474.8844"
     y2="238.5062" /><linearGradient
     xlink:href="#swatch62"
     id="linearGradient46"
     gradientUnits="userSpaceOnUse"
     x1="31.7656"
     y1="238.5062"
     x2="474.8844"
     y2="238.5062" /><linearGradient
     xlink:href="#swatch62"
     id="linearGradient47"
     gradientUnits="userSpaceOnUse"
     x1="31.7656"
     y1="238.5062"
     x2="474.8844"
     y2="238.5062" /><linearGradient
     xlink:href="#swatch62"
     id="linearGradient48"
     gradientUnits="userSpaceOnUse"
     x1="31.7656"
     y1="238.5062"
     x2="474.8844"
     y2="238.5062" /><linearGradient
     xlink:href="#swatch62"
     id="linearGradient49"
     gradientUnits="userSpaceOnUse"
     x1="31.7656"
     y1="238.5062"
     x2="474.8844"
     y2="238.5062" /><linearGradient
     xlink:href="#swatch62"
     id="linearGradient50"
     gradientUnits="userSpaceOnUse"
     x1="31.7656"
     y1="238.5062"
     x2="474.8844"
     y2="238.5062" /><linearGradient
     xlink:href="#swatch62"
     id="linearGradient51"
     gradientUnits="userSpaceOnUse"
     x1="31.7656"
     y1="238.5062"
     x2="474.8844"
     y2="238.5062" /><linearGradient
     xlink:href="#swatch62"
     id="linearGradient52"
     gradientUnits="userSpaceOnUse"
     x1="31.7656"
     y1="238.5062"
     x2="474.8844"
     y2="238.5062" /><linearGradient
     xlink:href="#swatch62"
     id="linearGradient53"
     gradientUnits="userSpaceOnUse"
     x1="31.7656"
     y1="238.5062"
     x2="474.8844"
     y2="238.5062" /><linearGradient
     xlink:href="#swatch62"
     id="linearGradient54"
     gradientUnits="userSpaceOnUse"
     x1="31.7656"
     y1="238.5062"
     x2="474.8844"
     y2="238.5062" /><linearGradient
     xlink:href="#swatch62"
     id="linearGradient55"
     gradientUnits="userSpaceOnUse"
     x1="31.7656"
     y1="238.5062"
     x2="474.8844"
     y2="238.5062" /><linearGradient
     xlink:href="#swatch62"
     id="linearGradient56"
     gradientUnits="userSpaceOnUse"
     x1="31.7656"
     y1="238.5062"
     x2="474.8844"
     y2="238.5062" /><linearGradient
     xlink:href="#swatch62"
     id="linearGradient57"
     gradientUnits="userSpaceOnUse"
     x1="31.7656"
     y1="238.5062"
     x2="474.8844"
     y2="238.5062" /><linearGradient
     xlink:href="#swatch62"
     id="linearGradient58"
     gradientUnits="userSpaceOnUse"
     x1="31.7656"
     y1="238.5062"
     x2="474.8844"
     y2="238.5062" /><linearGradient
     xlink:href="#swatch62"
     id="linearGradient59"
     gradientUnits="userSpaceOnUse"
     x1="31.7656"
     y1="238.5062"
     x2="474.8844"
     y2="238.5062" /><linearGradient
     xlink:href="#swatch62"
     id="linearGradient60"
     gradientUnits="userSpaceOnUse"
     x1="31.7656"
     y1="238.5062"
     x2="474.8844"
     y2="238.5062" /><linearGradient
     xlink:href="#swatch62"
     id="linearGradient61"
     gradientUnits="userSpaceOnUse"
     x1="31.7656"
     y1="238.5062"
     x2="474.8844"
     y2="238.5062" /><linearGradient
     xlink:href="#swatch62"
     id="linearGradient65"
     gradientUnits="userSpaceOnUse"
     x1="31.7656"
     y1="238.5062"
     x2="474.8844"
     y2="238.5062" /><linearGradient
     xlink:href="#swatch62"
     id="linearGradient66"
     gradientUnits="userSpaceOnUse"
     x1="31.7656"
     y1="238.5062"
     x2="474.8844"
     y2="238.5062" /><linearGradient
     xlink:href="#swatch62"
     id="linearGradient67"
     gradientUnits="userSpaceOnUse"
     x1="31.7656"
     y1="238.5062"
     x2="474.8844"
     y2="238.5062" /><linearGradient
     xlink:href="#swatch62"
     id="linearGradient68"
     gradientUnits="userSpaceOnUse"
     x1="31.7656"
     y1="238.5062"
     x2="474.8844"
     y2="238.5062" /><linearGradient
     xlink:href="#swatch62"
     id="linearGradient69"
     gradientUnits="userSpaceOnUse"
     x1="31.7656"
     y1="238.5062"
     x2="474.8844"
     y2="238.5062" /><linearGradient
     xlink:href="#swatch62"
     id="linearGradient70"
     gradientUnits="userSpaceOnUse"
     x1="31.7656"
     y1="238.5062"
     x2="474.8844"
     y2="238.5062" /><linearGradient
     xlink:href="#swatch62"
     id="linearGradient71"
     gradientUnits="userSpaceOnUse"
     x1="31.7656"
     y1="238.5062"
     x2="474.8844"
     y2="238.5062" /><linearGradient
     xlink:href="#swatch62"
     id="linearGradient72"
     gradientUnits="userSpaceOnUse"
     x1="31.7656"
     y1="238.5062"
     x2="474.8844"
     y2="238.5062" /><linearGradient
     xlink:href="#swatch62"
     id="linearGradient73"
     gradientUnits="userSpaceOnUse"
     x1="31.7656"
     y1="238.5062"
     x2="474.8844"
     y2="238.5062" /><linearGradient
     xlink:href="#swatch62"
     id="linearGradient74"
     gradientUnits="userSpaceOnUse"
     x1="31.7656"
     y1="238.5062"
     x2="474.8844"
     y2="238.5062" /><linearGradient
     xlink:href="#swatch62"
     id="linearGradient75"
     gradientUnits="userSpaceOnUse"
     x1="31.7656"
     y1="238.5062"
     x2="474.8844"
     y2="238.5062" /><linearGradient
     xlink:href="#swatch62"
     id="linearGradient76"
     gradientUnits="userSpaceOnUse"
     x1="31.7656"
     y1="238.5062"
     x2="474.8844"
     y2="238.5062" /><linearGradient
     xlink:href="#swatch62"
     id="linearGradient77"
     gradientUnits="userSpaceOnUse"
     x1="31.7656"
     y1="238.5062"
     x2="474.8844"
     y2="238.5062" /><linearGradient
     xlink:href="#swatch62"
     id="linearGradient78"
     gradientUnits="userSpaceOnUse"
     x1="31.7656"
     y1="238.5062"
     x2="474.8844"
     y2="238.5062" /><linearGradient
     xlink:href="#swatch62"
     id="linearGradient79"
     gradientUnits="userSpaceOnUse"
     x1="31.7656"
     y1="238.5062"
     x2="474.8844"
     y2="238.5062" /><linearGradient
     xlink:href="#swatch62"
     id="linearGradient80"
     gradientUnits="userSpaceOnUse"
     x1="31.7656"
     y1="238.5062"
     x2="474.8844"
     y2="238.5062" /><linearGradient
     xlink:href="#swatch62"
     id="linearGradient81"
     gradientUnits="userSpaceOnUse"
     x1="31.7656"
     y1="238.5062"
     x2="474.8844"
     y2="238.5062" /><linearGradient
     xlink:href="#swatch62"
     id="linearGradient82"
     gradientUnits="userSpaceOnUse"
     x1="31.7656"
     y1="238.5062"
     x2="474.8844"
     y2="238.5062" /><linearGradient
     xlink:href="#swatch62"
     id="linearGradient83"
     gradientUnits="userSpaceOnUse"
     x1="31.7656"
     y1="238.5062"
     x2="474.8844"
     y2="238.5062" /><linearGradient
     xlink:href="#swatch62"
     id="linearGradient84"
     gradientUnits="userSpaceOnUse"
     x1="31.7656"
     y1="238.5062"
     x2="474.8844"
     y2="238.5062" /><linearGradient
     xlink:href="#swatch62"
     id="linearGradient85"
     gradientUnits="userSpaceOnUse"
     x1="31.7656"
     y1="238.5062"
     x2="474.8844"
     y2="238.5062" /><linearGradient
     xlink:href="#swatch62"
     id="linearGradient86"
     gradientUnits="userSpaceOnUse"
     x1="31.7656"
     y1="238.5062"
     x2="474.8844"
     y2="238.5062" /><linearGradient
     xlink:href="#swatch62"
     id="linearGradient87"
     gradientUnits="userSpaceOnUse"
     x1="3.1313965"
     y1="-13.517874"
     x2="130.99425"
     y2="-13.517874" /><linearGradient
     xlink:href="#swatch62"
     id="linearGradient88"
     gradientUnits="userSpaceOnUse"
     x1="31.7656"
     y1="238.5062"
     x2="474.8844"
     y2="238.5062" /></defs>
<g
   id="BACKGROUND"
   style="opacity:0;stroke:url(#linearGradient3)"
   transform="translate(250,250)">
	<rect
   style="fill:#ffffff;stroke:url(#linearGradient2)"
   width="500"
   height="500"
   id="rect1"
   x="0"
   y="0" />
</g>
<g
   id="OBJECTS_copia"
   style="stroke:url(#linearGradient86)"
   transform="translate(250,250)">
	<g
   id="g3"
   style="stroke:url(#linearGradient4)">
		<path
   style="fill:#cdad6c;fill-opacity:1;stroke:none"
   d="m 195.829,287.638 h -13.112 v 23.048 h -31.762 v -23.048 h -47.481 v -23.619 l 49.517,-72.402 h 29.727 v 71.995 h 13.112 v 24.026 z m -44.874,-24.026 v -13.845 c 0,-2.606 0.094,-6.12 0.285,-10.547 0.189,-4.424 0.338,-6.746 0.448,-6.963 h -0.896 c -1.846,4.181 -3.937,8.091 -6.271,11.728 l -13.194,19.627 z"
   id="path1" />
		<path
   style="fill:#cdad6c;fill-opacity:1;stroke:none"
   d="m 290.22,251.314 c 0,21.067 -3.53,36.5 -10.587,46.301 -7.058,9.8 -17.864,14.699 -32.413,14.699 -14.226,0 -24.949,-5.116 -32.17,-15.352 -7.222,-10.233 -10.832,-25.451 -10.832,-45.649 0,-21.175 3.529,-36.702 10.588,-46.585 7.057,-9.881 17.863,-14.822 32.414,-14.822 14.171,0 24.88,5.145 32.128,15.433 7.248,10.291 10.872,25.614 10.872,45.975 z m -53.996,0 c 0,13.466 0.841,22.723 2.525,27.772 1.682,5.049 4.506,7.574 8.47,7.574 4.017,0 6.853,-2.606 8.51,-7.819 1.656,-5.212 2.484,-14.387 2.484,-27.527 0,-13.193 -0.842,-22.438 -2.524,-27.731 -1.684,-5.294 -4.508,-7.94 -8.47,-7.94 -3.964,0 -6.788,2.553 -8.47,7.655 -1.684,5.104 -2.525,14.442 -2.525,28.016 z"
   id="path2" />
		<path
   style="fill:#cdad6c;fill-opacity:1;stroke:none"
   d="m 391.289,287.638 h -13.111 v 23.048 h -31.763 v -23.048 h -47.481 v -23.619 l 49.517,-72.402 h 29.727 v 71.995 h 13.111 z m -44.874,-24.026 v -13.845 c 0,-2.606 0.094,-6.12 0.285,-10.547 0.189,-4.424 0.338,-6.746 0.448,-6.963 h -0.896 c -1.846,4.181 -3.938,8.091 -6.271,11.728 l -13.193,19.627 z"
   id="path3" />
	</g>
	<g
   id="g8"
   style="stroke:url(#linearGradient11)">
		
			<line
   style="fill:none;stroke:url(#linearGradient5);stroke-width:2.1628;stroke-linecap:round;stroke-linejoin:round;stroke-miterlimit:10"
   x1="55.75"
   y1="218.036"
   x2="103.887"
   y2="218.036"
   id="line3" />
		
			<line
   style="fill:none;stroke:url(#linearGradient6);stroke-width:2.1628;stroke-linecap:round;stroke-linejoin:round;stroke-miterlimit:10"
   x1="115.441"
   y1="218.036"
   x2="125.717"
   y2="218.036"
   id="line4" />
		
			<line
   style="fill:none;stroke:url(#linearGradient7);stroke-width:2.1628;stroke-linecap:round;stroke-linejoin:round;stroke-miterlimit:10"
   x1="47.033001"
   y1="204.48801"
   x2="133.20799"
   y2="204.48801"
   id="line5" />
		
			<line
   style="fill:none;stroke:url(#linearGradient8);stroke-width:2.1628;stroke-linecap:round;stroke-linejoin:round;stroke-miterlimit:10"
   x1="39.939999"
   y1="204.48801"
   x2="32.847"
   y2="204.48801"
   id="line6" />
		
			<line
   style="fill:none;stroke:url(#linearGradient9);stroke-width:2.1628;stroke-linecap:round;stroke-linejoin:round;stroke-miterlimit:10"
   x1="47.033001"
   y1="191.617"
   x2="75.642998"
   y2="191.617"
   id="line7" />
		
			<line
   style="fill:none;stroke:url(#linearGradient10);stroke-width:2.1628;stroke-linecap:round;stroke-linejoin:round;stroke-miterlimit:10"
   x1="83.303001"
   y1="191.617"
   x2="143.388"
   y2="191.617"
   id="line8" />
	</g>
	<g
   id="g14"
   style="stroke:url(#linearGradient18)">
		
			<line
   style="fill:none;stroke:url(#linearGradient12);stroke-width:2.1628;stroke-linecap:round;stroke-linejoin:round;stroke-miterlimit:10"
   x1="396.009"
   y1="325.52399"
   x2="447.521"
   y2="325.52399"
   id="line9" />
		
			<line
   style="fill:none;stroke:url(#linearGradient13);stroke-width:2.1628;stroke-linecap:round;stroke-linejoin:round;stroke-miterlimit:10"
   x1="455.89899"
   y1="325.52399"
   x2="463.35001"
   y2="325.52399"
   id="line10" />
		
			<line
   style="fill:none;stroke:url(#linearGradient14);stroke-width:2.1628;stroke-linecap:round;stroke-linejoin:round;stroke-miterlimit:10"
   x1="406.29599"
   y1="311.97501"
   x2="473.80301"
   y2="311.97501"
   id="line11" />
		
			<line
   style="fill:none;stroke:url(#linearGradient15);stroke-width:2.1628;stroke-linecap:round;stroke-linejoin:round;stroke-miterlimit:10"
   x1="401.15201"
   y1="311.97501"
   x2="396.009"
   y2="311.97501"
   id="line12" />
		
			<line
   style="fill:none;stroke:url(#linearGradient16);stroke-width:2.1628;stroke-linecap:round;stroke-linejoin:round;stroke-miterlimit:10"
   x1="396.009"
   y1="299.104"
   x2="427.04099"
   y2="299.104"
   id="line13" />
		
			<line
   style="fill:none;stroke:url(#linearGradient17);stroke-width:2.1628;stroke-linecap:round;stroke-linejoin:round;stroke-miterlimit:10"
   x1="432.595"
   y1="299.104"
   x2="455.89899"
   y2="299.104"
   id="line14" />
	</g>
	<g
   id="g16"
   style="stroke:url(#linearGradient22)">
		<path
   style="fill:none;stroke:url(#linearGradient19);stroke-width:3.2675;stroke-miterlimit:10"
   d="m 201.994,287.183 h -13.112 v 23.048 H 157.12 v -23.048 h -47.481 v -23.619 l 49.517,-72.402 h 29.727 v 71.995 h 13.112 v 24.026 z m -44.875,-24.026 v -13.845 c 0,-2.606 0.094,-6.12 0.285,-10.547 0.189,-4.424 0.338,-6.746 0.448,-6.963 h -0.896 c -1.846,4.181 -3.937,8.091 -6.271,11.728 l -13.194,19.627 z"
   id="path14" />
		<path
   style="fill:none;stroke:url(#linearGradient20);stroke-width:3.2675;stroke-miterlimit:10"
   d="m 296.384,250.859 c 0,21.067 -3.53,36.5 -10.587,46.301 -7.058,9.8 -17.864,14.699 -32.413,14.699 -14.226,0 -24.949,-5.116 -32.17,-15.352 -7.222,-10.233 -10.832,-25.451 -10.832,-45.649 0,-21.175 3.529,-36.702 10.587,-46.585 7.057,-9.881 17.863,-14.822 32.414,-14.822 14.171,0 24.88,5.145 32.128,15.433 7.25,10.291 10.873,25.615 10.873,45.975 z m -53.995,0 c 0,13.466 0.841,22.723 2.525,27.772 1.682,5.049 4.506,7.574 8.47,7.574 4.017,0 6.853,-2.606 8.51,-7.819 1.656,-5.212 2.484,-14.387 2.484,-27.528 0,-13.193 -0.842,-22.438 -2.524,-27.731 -1.684,-5.294 -4.508,-7.94 -8.47,-7.94 -3.964,0 -6.788,2.553 -8.47,7.655 -1.684,5.105 -2.525,14.444 -2.525,28.017 z"
   id="path15" />
		<path
   style="fill:none;stroke:url(#linearGradient21);stroke-width:3.2675;stroke-miterlimit:10"
   d="m 397.454,287.183 h -13.112 v 23.048 H 352.58 v -23.048 h -47.481 v -23.619 l 49.517,-72.402 h 29.727 v 71.995 h 13.112 v 24.026 z M 352.58,263.157 v -13.845 c 0,-2.606 0.094,-6.12 0.285,-10.547 0.189,-4.424 0.338,-6.746 0.448,-6.963 h -0.896 c -1.846,4.181 -3.938,8.091 -6.271,11.728 l -13.193,19.627 z"
   id="path16" />
	</g>
	<text
   transform="translate(190.3823,362.4004)"
   style="font-size:37.1855px;font-family:OpenSans-Extrabold;fill:url(#linearGradient87);stroke:url(#linearGradient88)"
   id="text16">ERROR</text>
	<g
   id="g23"
   style="stroke:url(#linearGradient33)">
		
			<line
   style="fill:none;stroke:url(#linearGradient25);stroke-width:2.1628;stroke-linecap:round;stroke-linejoin:round;stroke-miterlimit:10"
   x1="418.48901"
   y1="215.10001"
   x2="418.48901"
   y2="204.061"
   id="line16" />
		
			<line
   style="fill:none;stroke:url(#linearGradient26);stroke-width:2.1628;stroke-linecap:round;stroke-linejoin:round;stroke-miterlimit:10"
   x1="410.78299"
   y1="218.29201"
   x2="402.978"
   y2="210.48599"
   id="line17" />
		
			<line
   style="fill:none;stroke:url(#linearGradient27);stroke-width:2.1628;stroke-linecap:round;stroke-linejoin:round;stroke-miterlimit:10"
   x1="407.59201"
   y1="225.998"
   x2="396.55301"
   y2="225.998"
   id="line18" />
		
			<line
   style="fill:none;stroke:url(#linearGradient28);stroke-width:2.1628;stroke-linecap:round;stroke-linejoin:round;stroke-miterlimit:10"
   x1="410.78299"
   y1="233.703"
   x2="402.978"
   y2="241.509"
   id="line19" />
		
			<line
   style="fill:none;stroke:url(#linearGradient29);stroke-width:2.1628;stroke-linecap:round;stroke-linejoin:round;stroke-miterlimit:10"
   x1="418.48901"
   y1="236.895"
   x2="418.48901"
   y2="247.93401"
   id="line20" />
		
			<line
   style="fill:none;stroke:url(#linearGradient30);stroke-width:2.1628;stroke-linecap:round;stroke-linejoin:round;stroke-miterlimit:10"
   x1="426.19501"
   y1="233.703"
   x2="434.00101"
   y2="241.509"
   id="line21" />
		
			<line
   style="fill:none;stroke:url(#linearGradient31);stroke-width:2.1628;stroke-linecap:round;stroke-linejoin:round;stroke-miterlimit:10"
   x1="429.38699"
   y1="225.998"
   x2="440.42599"
   y2="225.998"
   id="line22" />
		
			<line
   style="fill:none;stroke:url(#linearGradient32);stroke-width:2.1628;stroke-linecap:round;stroke-linejoin:round;stroke-miterlimit:10"
   x1="426.19501"
   y1="218.29201"
   x2="434.00101"
   y2="210.48599"
   id="line23" />
	</g>
	<g
   id="g31"
   style="stroke:url(#linearGradient42)">
		
			<line
   style="fill:none;stroke:url(#linearGradient34);stroke-width:2.1628;stroke-linecap:round;stroke-linejoin:round;stroke-miterlimit:10"
   x1="72.261002"
   y1="270.06601"
   x2="72.261002"
   y2="262.08701"
   id="line24" />
		
			<line
   style="fill:none;stroke:url(#linearGradient35);stroke-width:2.1628;stroke-linecap:round;stroke-linejoin:round;stroke-miterlimit:10"
   x1="66.691002"
   y1="272.37399"
   x2="61.049"
   y2="266.73199"
   id="line25" />
		
			<line
   style="fill:none;stroke:url(#linearGradient36);stroke-width:2.1628;stroke-linecap:round;stroke-linejoin:round;stroke-miterlimit:10"
   x1="64.384003"
   y1="277.944"
   x2="56.404999"
   y2="277.944"
   id="line26" />
		
			<line
   style="fill:none;stroke:url(#linearGradient37);stroke-width:2.1628;stroke-linecap:round;stroke-linejoin:round;stroke-miterlimit:10"
   x1="66.691002"
   y1="283.51401"
   x2="61.049"
   y2="289.15601"
   id="line27" />
		
			<line
   style="fill:none;stroke:url(#linearGradient38);stroke-width:2.1628;stroke-linecap:round;stroke-linejoin:round;stroke-miterlimit:10"
   x1="72.261002"
   y1="285.82101"
   x2="72.261002"
   y2="293.79999"
   id="line28" />
		
			<line
   style="fill:none;stroke:url(#linearGradient39);stroke-width:2.1628;stroke-linecap:round;stroke-linejoin:round;stroke-miterlimit:10"
   x1="77.831001"
   y1="283.51401"
   x2="83.473"
   y2="289.15601"
   id="line29" />
		
			<line
   style="fill:none;stroke:url(#linearGradient40);stroke-width:2.1628;stroke-linecap:round;stroke-linejoin:round;stroke-miterlimit:10"
   x1="80.138"
   y1="277.944"
   x2="88.117996"
   y2="277.944"
   id="line30" />
		
			<line
   style="fill:none;stroke:url(#linearGradient41);stroke-width:2.1628;stroke-linecap:round;stroke-linejoin:round;stroke-miterlimit:10"
   x1="77.831001"
   y1="272.37399"
   x2="83.473"
   y2="266.73199"
   id="line31" />
	</g>
	<g
   id="g39"
   style="stroke:url(#linearGradient51)">
		
			<line
   style="fill:none;stroke:url(#linearGradient43);stroke-width:2.1628;stroke-linecap:round;stroke-linejoin:round;stroke-miterlimit:10"
   x1="288.18301"
   y1="105.254"
   x2="288.18301"
   y2="97.274002"
   id="line32" />
		
			<line
   style="fill:none;stroke:url(#linearGradient44);stroke-width:2.1628;stroke-linecap:round;stroke-linejoin:round;stroke-miterlimit:10"
   x1="282.61301"
   y1="107.561"
   x2="276.97101"
   y2="101.919"
   id="line33" />
		
			<line
   style="fill:none;stroke:url(#linearGradient45);stroke-width:2.1628;stroke-linecap:round;stroke-linejoin:round;stroke-miterlimit:10"
   x1="280.306"
   y1="113.131"
   x2="272.327"
   y2="113.131"
   id="line34" />
		
			<line
   style="fill:none;stroke:url(#linearGradient46);stroke-width:2.1628;stroke-linecap:round;stroke-linejoin:round;stroke-miterlimit:10"
   x1="282.61301"
   y1="118.701"
   x2="276.97101"
   y2="124.343"
   id="line35" />
		
			<line
   style="fill:none;stroke:url(#linearGradient47);stroke-width:2.1628;stroke-linecap:round;stroke-linejoin:round;stroke-miterlimit:10"
   x1="288.18301"
   y1="121.008"
   x2="288.18301"
   y2="128.987"
   id="line36" />
		
			<line
   style="fill:none;stroke:url(#linearGradient48);stroke-width:2.1628;stroke-linecap:round;stroke-linejoin:round;stroke-miterlimit:10"
   x1="293.75299"
   y1="118.701"
   x2="299.39499"
   y2="124.343"
   id="line37" />
		
			<line
   style="fill:none;stroke:url(#linearGradient49);stroke-width:2.1628;stroke-linecap:round;stroke-linejoin:round;stroke-miterlimit:10"
   x1="296.06"
   y1="113.131"
   x2="304.039"
   y2="113.131"
   id="line38" />
		
			<line
   style="fill:none;stroke:url(#linearGradient50);stroke-width:2.1628;stroke-linecap:round;stroke-linejoin:round;stroke-miterlimit:10"
   x1="293.75299"
   y1="107.561"
   x2="299.39499"
   y2="101.919"
   id="line39" />
	</g>
	
		
	
	
	
		<polyline
   style="fill:none;stroke:url(#linearGradient52);stroke-width:2.1628;stroke-linecap:round;stroke-linejoin:round;stroke-miterlimit:10"
   points="   133.208,172.198 133.208,137.669 312.701,137.669 312.701,214.389  "
   id="polyline40" />
	
		<polyline
   style="fill:none;stroke:url(#linearGradient53);stroke-width:2.1628;stroke-linecap:round;stroke-linejoin:round;stroke-miterlimit:10"
   points="   249.436,113.131 249.436,156.361 368.464,156.361 368.464,176.029  "
   id="polyline41" />
	<path
   style="fill:none;stroke:url(#linearGradient54);stroke-width:2.1628;stroke-linecap:round;stroke-linejoin:round;stroke-miterlimit:10"
   d="m 137.491,176.481 c 0,2.366 -1.918,4.283 -4.283,4.283 -2.366,0 -4.283,-1.918 -4.283,-4.283 0,-2.365 1.918,-4.283 4.283,-4.283 2.366,0 4.283,1.917 4.283,4.283 z"
   id="path41" />
	
		<circle
   style="fill:none;stroke:url(#linearGradient55);stroke-width:2.1628;stroke-linecap:round;stroke-linejoin:round;stroke-miterlimit:10"
   cx="249.436"
   cy="108.848"
   r="4.283"
   id="circle41" />
	<path
   style="fill:none;stroke:url(#linearGradient56);stroke-width:2.1628;stroke-linecap:round;stroke-linejoin:round;stroke-miterlimit:10"
   d="m 372.747,180.764 c 0,2.365 -1.918,4.283 -4.283,4.283 -2.366,0 -4.283,-1.918 -4.283,-4.283 0,-2.366 1.918,-4.283 4.283,-4.283 2.365,0 4.283,1.918 4.283,4.283 z"
   id="path42" />
	<path
   style="fill:none;stroke:url(#linearGradient57);stroke-width:2.1628;stroke-linecap:round;stroke-linejoin:round;stroke-miterlimit:10"
   d="m 316.984,219.383 c 0,2.365 -1.918,4.283 -4.283,4.283 -2.365,0 -4.283,-1.918 -4.283,-4.283 0,-2.366 1.918,-4.283 4.283,-4.283 2.365,0 4.283,1.918 4.283,4.283 z"
   id="path43" />
	<g
   id="g44"
   style="stroke:url(#linearGradient60)">
		
			<line
   style="fill:none;stroke:url(#linearGradient58);stroke-width:2.1628;stroke-linecap:round;stroke-linejoin:round;stroke-miterlimit:10"
   x1="105.295"
   y1="305.164"
   x2="95.161003"
   y2="315.298"
   id="line43" />
		
			<line
   style="fill:none;stroke:url(#linearGradient59);stroke-width:2.1628;stroke-linecap:round;stroke-linejoin:round;stroke-miterlimit:10"
   x1="95.161003"
   y1="305.164"
   x2="105.295"
   y2="315.298"
   id="line44" />
	</g>
	<g
   id="g46"
   style="stroke:url(#linearGradient66)">
		
			<line
   style="fill:none;stroke:url(#linearGradient61);stroke-width:2.1628;stroke-linecap:round;stroke-linejoin:round;stroke-miterlimit:10"
   x1="110.362"
   y1="158"
   x2="100.228"
   y2="168.13499"
   id="line45" />
		
			<line
   style="fill:none;stroke:url(#linearGradient65);stroke-width:2.1628;stroke-linecap:round;stroke-linejoin:round;stroke-miterlimit:10"
   x1="100.228"
   y1="158"
   x2="110.362"
   y2="168.13499"
   id="line46" />
	</g>
	<g
   id="g48"
   style="stroke:url(#linearGradient69)">
		
			<line
   style="fill:none;stroke:url(#linearGradient67);stroke-width:2.1628;stroke-linecap:round;stroke-linejoin:round;stroke-miterlimit:10"
   x1="439.06799"
   y1="272.87601"
   x2="428.93301"
   y2="283.01099"
   id="line47" />
		
			<line
   style="fill:none;stroke:url(#linearGradient68);stroke-width:2.1628;stroke-linecap:round;stroke-linejoin:round;stroke-miterlimit:10"
   x1="428.93301"
   y1="272.87601"
   x2="439.06799"
   y2="283.01099"
   id="line48" />
	</g>
	<path
   style="fill:none;stroke:url(#linearGradient70);stroke-width:2.2614;stroke-linecap:round;stroke-linejoin:round;stroke-miterlimit:10"
   d="m 151.47,100.161 c -3.232,0 -6.19,1.163 -8.487,3.089 -2.346,-7.062 -8.994,-12.16 -16.843,-12.16 -8.787,0 -16.065,6.389 -17.487,14.771 -0.926,-0.265 -1.901,-0.416 -2.913,-0.416 -5.843,0 -10.579,4.737 -10.579,10.579 0,5.375 4.012,9.803 9.202,10.48 v 0.1 h 47.107 c 7.302,0 13.222,-5.919 13.222,-13.222 0,-7.301 -5.92,-13.221 -13.222,-13.221 z"
   id="path48" />
	<path
   style="fill:none;stroke:url(#linearGradient71);stroke-width:2.1628;stroke-linecap:round;stroke-linejoin:round;stroke-miterlimit:10"
   d="m 396.605,167.417 c 2.348,0 4.497,0.845 6.166,2.244 1.704,-5.13 6.534,-8.834 12.236,-8.834 6.384,0 11.671,4.642 12.704,10.731 0.673,-0.193 1.381,-0.302 2.116,-0.302 4.245,0 7.686,3.441 7.686,7.686 0,3.905 -2.914,7.122 -6.685,7.613 v 0.072 h -34.222 c -5.305,0 -9.605,-4.301 -9.605,-9.605 0,-5.304 4.299,-9.605 9.604,-9.605 z"
   id="path49" />
	<path
   style="fill:none;stroke:url(#linearGradient72);stroke-width:2.1628;stroke-linecap:round;stroke-linejoin:round;stroke-miterlimit:10"
   d="m 443.789,349.113 c -1.969,0 -3.771,0.709 -5.171,1.882 -1.429,-4.302 -5.48,-7.409 -10.262,-7.409 -5.354,0 -9.788,3.893 -10.654,9 -0.564,-0.161 -1.158,-0.253 -1.775,-0.253 -3.56,0 -6.446,2.886 -6.446,6.446 0,3.275 2.444,5.973 5.607,6.385 v 0.061 h 28.7 c 4.449,0 8.056,-3.606 8.056,-8.055 0,-4.45 -3.606,-8.057 -8.055,-8.057 z"
   id="path50" />
	<path
   style="fill:none;stroke:url(#linearGradient73);stroke-width:2.1628;stroke-linecap:round;stroke-linejoin:round;stroke-miterlimit:10"
   d="m 54.253,332.114 c 2.348,0 4.497,0.845 6.166,2.244 1.704,-5.13 6.534,-8.834 12.236,-8.834 6.384,0 11.671,4.642 12.704,10.731 0.673,-0.193 1.381,-0.302 2.116,-0.302 4.245,0 7.686,3.441 7.686,7.686 0,3.905 -2.914,7.122 -6.685,7.613 v 0.072 H 54.253 c -5.305,0 -9.605,-4.3 -9.605,-9.605 0,-5.305 4.3,-9.605 9.605,-9.605 z"
   id="path51" />
	
		<path
   style="fill:none;stroke:url(#linearGradient74);stroke-width:2.1628;stroke-linecap:round;stroke-linejoin:round;stroke-miterlimit:10;stroke-dasharray:3.2675, 7.6242"
   d="m 164.692,93.818 c 0,0 60.44,-49.277 142.56,-26.575 86.263,23.847 103.531,85.357 103.531,85.357"
   id="path52" />
	
		<path
   style="fill:none;stroke:url(#linearGradient75);stroke-width:2.0166;stroke-linecap:round;stroke-linejoin:round;stroke-miterlimit:10;stroke-dasharray:3.0467, 7.1089"
   d="m 73.433,237.04 c -23.431,3.634 -35.21,53.363 -8.854,73.104"
   id="path53" />
	
		<path
   style="fill:none;stroke:url(#linearGradient76);stroke-width:2.1628;stroke-linecap:round;stroke-linejoin:round;stroke-miterlimit:10;stroke-dasharray:3.2675, 7.6242"
   d="m 368.464,380.526 c 0,0 40.138,17.546 57.732,-6.933"
   id="path54" />
	
		<line
   style="fill:none;stroke:url(#linearGradient77);stroke-width:2.1628;stroke-linecap:round;stroke-linejoin:round;stroke-miterlimit:10"
   x1="177.513"
   y1="180.76401"
   x2="177.513"
   y2="155.418"
   id="line54" />
	
		<line
   style="fill:none;stroke:url(#linearGradient78);stroke-width:2.1628;stroke-linecap:round;stroke-linejoin:round;stroke-miterlimit:10"
   x1="171.395"
   y1="180.76401"
   x2="171.395"
   y2="168.13499"
   id="line55" />
	
		<line
   style="fill:none;stroke:url(#linearGradient79);stroke-width:2.1628;stroke-linecap:round;stroke-linejoin:round;stroke-miterlimit:10"
   x1="270.67001"
   y1="186.62801"
   x2="270.67001"
   y2="168.091"
   id="line56" />
	
		<line
   style="fill:none;stroke:url(#linearGradient80);stroke-width:2.1628;stroke-linecap:round;stroke-linejoin:round;stroke-miterlimit:10"
   x1="263.72"
   y1="185.047"
   x2="263.72"
   y2="177.35899"
   id="line57" />
	
		<line
   style="fill:none;stroke:url(#linearGradient81);stroke-width:2.1628;stroke-linecap:round;stroke-linejoin:round;stroke-miterlimit:10"
   x1="257.55399"
   y1="185.047"
   x2="257.55399"
   y2="172.198"
   id="line58" />
	
		<line
   style="fill:none;stroke:url(#linearGradient82);stroke-width:2.1628;stroke-linecap:round;stroke-linejoin:round;stroke-miterlimit:10"
   x1="183.394"
   y1="180.76401"
   x2="183.394"
   y2="168.091"
   id="line59" />
	
		<line
   style="fill:none;stroke:url(#linearGradient83);stroke-width:2.1628;stroke-linecap:round;stroke-linejoin:round;stroke-miterlimit:10"
   x1="351.39499"
   y1="184.29201"
   x2="351.39499"
   y2="178.62199"
   id="line60" />
	
		<line
   style="fill:none;stroke:url(#linearGradient84);stroke-width:2.1628;stroke-linecap:round;stroke-linejoin:round;stroke-miterlimit:10"
   x1="345.27701"
   y1="184.29201"
   x2="345.27701"
   y2="170.48199"
   id="line61" />
	
		<line
   style="fill:none;stroke:url(#linearGradient85);stroke-width:2.1628;stroke-linecap:round;stroke-linejoin:round;stroke-miterlimit:10"
   x1="357.276"
   y1="184.29201"
   x2="357.276"
   y2="174.42799"
   id="line62" />
</g>

</svg>
