<?xml version="1.0" encoding="UTF-8" standalone="no"?>
<svg
   width="396.29199"
   zoomAndPan="magnify"
   viewBox="0 0 297.21899 67.30229"
   height="89.736389"
   preserveAspectRatio="xMidYMid"
   version="1.2"
   id="svg50"
   xmlns="http://www.w3.org/2000/svg"
   xmlns:svg="http://www.w3.org/2000/svg">
  <defs
     id="defs1" />
  <g
     id="7a986fe322"
     transform="translate(-39.171879,-158.0107)">
    <g
       style="fill:#f6eaba;fill-opacity:1"
       id="g2">
      <g
         transform="translate(37.500002,199.26071)"
         id="g1">
        <path
           style="stroke:none"
           d="m 1.671875,0 v -0.71875 c 1.226563,0 2.15625,-0.144531 2.78125,-0.4375 0.632813,-0.300781 1.007813,-0.972656 1.125,-2.015625 l -0.0625,-33.734375 c 0,-1.300781 -0.308594,-2.128906 -0.921875,-2.484375 -0.617188,-0.351563 -1.589844,-0.53125 -2.921875,-0.53125 v -0.71875 H 30.5 l 2.953125,8.8125 H 32.71875 c -0.667969,-2.125 -1.429688,-3.769531 -2.28125,-4.9375 -0.855469,-1.164063 -1.945312,-1.972656 -3.265625,-2.421875 -1.3125,-0.445312 -3.03125,-0.671875 -5.15625,-0.671875 -2.679687,0 -4.761719,0.07031 -6.25,0.203125 -1.480469,0.125 -2.527344,0.390625 -3.140625,0.796875 -0.617188,0.40625 -0.921875,1.058594 -0.921875,1.953125 V -21.6875 H 18.125 c 2,-0.03906 3.453125,-0.375 4.359375,-1 0.914063,-0.632812 1.484375,-1.582031 1.703125,-2.84375 0.226562,-1.257812 0.34375,-2.820312 0.34375,-4.6875 H 25.25 v 18.453125 h -0.71875 c 0,-1.894531 -0.09375,-3.53125 -0.28125,-4.90625 -0.1875,-1.375 -0.71875,-2.429687 -1.59375,-3.171875 -0.867188,-0.75 -2.375,-1.125 -4.53125,-1.125 h -6.421875 v 17.234375 c 0,1.261719 0.535156,2.078125 1.609375,2.453125 1.082031,0.375 3.035156,0.5625 5.859375,0.5625 3.195313,0 5.804687,-0.675781 7.828125,-2.03125 2.03125,-1.363281 3.664062,-3.207031 4.90625,-5.53125 1.25,-2.320312 2.300781,-4.894531 3.15625,-7.71875 h 0.734375 l -3.96875,16 z m 0,0"
           id="path1" />
      </g>
    </g>
    <g
       style="fill:#f6eaba;fill-opacity:1"
       id="g4">
      <g
         transform="translate(73.062708,199.26071)"
         id="g3">
        <path
           style="stroke:none"
           d="m 9.53125,0 h -8.6875 v -0.71875 c 0.925781,0 1.863281,-0.332031 2.8125,-1 0.945312,-0.675781 1.625,-1.515625 2.03125,-2.515625 L 17.84375,-33.34375 16.28125,-37.125 c -0.449219,-1.113281 -1.136719,-1.859375 -2.0625,-2.234375 -0.929688,-0.375 -1.949219,-0.5625 -3.0625,-0.5625 v -0.71875 h 9.75 L 35.5625,-5.625 c 0.78125,1.8125 1.644531,3.085938 2.59375,3.8125 0.945312,0.730469 2.109375,1.09375 3.484375,1.09375 V 0 h -15.65625 v -0.71875 h 1.5 c 1.445313,0 2.269531,-0.472656 2.46875,-1.421875 0.207031,-0.945313 0.03516,-2.09375 -0.515625,-3.4375 l -3.171875,-7.75 h -16.0625 l -3.6875,8.875 c -0.480469,1.1875 -0.386719,2.109375 0.28125,2.765625 0.675781,0.648438 1.585937,0.96875 2.734375,0.96875 z m 8.703125,-32.5 -7.703125,18.453125 h 15.390625 z m 0,0"
           id="path2" />
      </g>
    </g>
    <g
       style="fill:#f6eaba;fill-opacity:1"
       id="g6">
      <g
         transform="translate(115.53744,199.26071)"
         id="g5">
        <path
           style="stroke:none"
           d="m 2.78125,0 v -16.71875 h 0.734375 c 0,3.710938 0.535156,6.746094 1.609375,9.109375 1.082031,2.367187 2.550781,4.105469 4.40625,5.21875 1.863281,1.117187 3.925781,1.671875 6.1875,1.671875 1.414062,0 2.707031,-0.210938 3.875,-0.640625 1.175781,-0.425781 2.113281,-1.132813 2.8125,-2.125 0.707031,-0.988281 1.0625,-2.300781 1.0625,-3.9375 0,-1.550781 -0.496094,-2.976563 -1.484375,-4.28125 -0.980469,-1.300781 -2.261719,-2.546875 -3.84375,-3.734375 -1.574219,-1.195312 -3.234375,-2.378906 -4.984375,-3.546875 -1.75,-1.164063 -3.417969,-2.378906 -5,-3.640625 -1.574219,-1.269531 -2.855469,-2.644531 -3.84375,-4.125 -0.980469,-1.488281 -1.46875,-3.128906 -1.46875,-4.921875 0,-2.15625 0.582031,-3.9375 1.75,-5.34375 1.175781,-1.414063 2.65625,-2.472656 4.4375,-3.171875 1.78125,-0.707031 3.582031,-1.0625 5.40625,-1.0625 1.414062,0 2.613281,0.140625 3.59375,0.421875 0.988281,0.273437 1.832031,0.605469 2.53125,1 0.707031,0.386719 1.347656,0.71875 1.921875,1 0.582031,0.28125 1.15625,0.421875 1.71875,0.421875 0.738281,0 1.238281,-0.164062 1.5,-0.5 0.257813,-0.34375 0.390625,-0.921875 0.390625,-1.734375 h 0.71875 v 13.15625 h -0.71875 c 0,-2.488281 -0.476562,-4.671875 -1.421875,-6.546875 -0.949219,-1.875 -2.242187,-3.332031 -3.875,-4.375 -1.636719,-1.039062 -3.496094,-1.5625 -5.578125,-1.5625 -2.230469,0 -3.828125,0.53125 -4.796875,1.59375 -0.96875,1.054688 -1.453125,2.398438 -1.453125,4.03125 0,1.824219 0.484375,3.433594 1.453125,4.828125 0.96875,1.398437 2.210937,2.664063 3.734375,3.796875 1.53125,1.125 3.148438,2.230469 4.859375,3.3125 1.707031,1.074219 3.320313,2.214844 4.84375,3.421875 1.519531,1.210937 2.765625,2.558594 3.734375,4.046875 0.96875,1.480469 1.453125,3.226562 1.453125,5.234375 0,1.898437 -0.382813,3.625 -1.140625,5.1875 -0.761719,1.5625 -2.039062,2.820313 -3.828125,3.765625 -1.78125,0.945312 -4.25,1.421875 -7.40625,1.421875 -1.523437,0 -2.804687,-0.132813 -3.84375,-0.390625 -1.042969,-0.2617188 -1.949219,-0.566406 -2.71875,-0.921875 -0.761719,-0.351563 -1.460937,-0.660156 -2.09375,-0.921875 -0.625,-0.257812 -1.273437,-0.390625 -1.9375,-0.390625 -1.710937,0 -2.5625,0.652344 -2.5625,1.953125 z m 0,0"
           id="path4" />
      </g>
    </g>
    <g
       style="fill:#f6eaba;fill-opacity:1"
       id="g8">
      <g
         transform="translate(146.80823,199.26071)"
         id="g7">
        <path
           style="stroke:none"
           d="M 1.84375,-30.109375 H 1.109375 l 1.84375,-10.53125 h 35.34375 l 1.84375,10.53125 h -0.71875 c -0.449219,-2.488281 -1.214844,-4.445313 -2.296875,-5.875 -1.074219,-1.4375 -2.414062,-2.453125 -4.015625,-3.046875 -1.59375,-0.59375 -3.398437,-0.890625 -5.40625,-0.890625 H 23.6875 v 36.1875 c 0,1.261719 0.316406,2.078125 0.953125,2.453125 0.632813,0.375 1.617187,0.5625 2.953125,0.5625 V 0 h -13.875 v -0.71875 c 1.332031,0 2.304688,-0.1875 2.921875,-0.5625 0.613281,-0.375 0.921875,-1.191406 0.921875,-2.453125 v -36.1875 h -4.078125 c -1.96875,0 -3.75,0.296875 -5.34375,0.890625 -1.59375,0.59375 -2.921875,1.609375 -3.984375,3.046875 -1.0625,1.429687 -1.835938,3.386719 -2.3125,5.875 z m 0,0"
           id="path6" />
      </g>
    </g>
    <g
       style="fill:#f6eaba;fill-opacity:1"
       id="g10">
      <g
         transform="translate(188.05669,199.26071)"
         id="g9">
        <path
           style="stroke:none"
           d="M 1.390625,-40.640625 H 12.09375 l 21.578125,30.109375 -0.0625,-26.375 c 0,-1.488281 -0.324219,-2.363281 -0.96875,-2.625 -0.648437,-0.257812 -1.621094,-0.390625 -2.921875,-0.390625 v -0.71875 h 8.578125 v 0.71875 c -1.261719,0 -2.21875,0.125 -2.875,0.375 -0.648437,0.242187 -1.007813,1.027344 -1.078125,2.359375 L 34.390625,0 h -0.71875 l -25.8125,-36.015625 v 32.28125 c 0,1.492187 0.332031,2.367187 1,2.625 0.675781,0.261719 1.660156,0.390625 2.953125,0.390625 V 0 H 3.171875 v -0.71875 c 1.34375,0 2.335937,-0.128906 2.984375,-0.390625 0.65625,-0.257813 0.984375,-1.132813 0.984375,-2.625 v -33.28125 c -0.679687,-1.113281 -1.492187,-1.875 -2.4375,-2.28125 -0.9375,-0.414063 -2.042969,-0.625 -3.3125,-0.625 z m 0,0"
           id="path8" />
      </g>
    </g>
    <g
       style="fill:#f6eaba;fill-opacity:1"
       id="g12">
      <g
         transform="translate(227.74437,199.26071)"
         id="g11">
        <path
           style="stroke:none"
           d="m 1.671875,0 v -0.71875 c 1.226563,0 2.15625,-0.144531 2.78125,-0.4375 0.632813,-0.300781 1.007813,-0.972656 1.125,-2.015625 l -0.0625,-33.734375 c 0,-1.300781 -0.308594,-2.128906 -0.921875,-2.484375 -0.617188,-0.351563 -1.589844,-0.53125 -2.921875,-0.53125 v -0.71875 H 30.5 l 2.953125,8.8125 H 32.71875 c -0.667969,-2.125 -1.429688,-3.769531 -2.28125,-4.9375 -0.855469,-1.164063 -1.945312,-1.972656 -3.265625,-2.421875 -1.3125,-0.445312 -3.03125,-0.671875 -5.15625,-0.671875 -2.679687,0 -4.761719,0.07031 -6.25,0.203125 -1.480469,0.125 -2.527344,0.390625 -3.140625,0.796875 -0.617188,0.40625 -0.921875,1.058594 -0.921875,1.953125 V -21.6875 H 18.125 c 2,-0.03906 3.453125,-0.375 4.359375,-1 0.914063,-0.632812 1.484375,-1.582031 1.703125,-2.84375 0.226562,-1.257812 0.34375,-2.820312 0.34375,-4.6875 H 25.25 v 18.453125 h -0.71875 c 0,-1.894531 -0.09375,-3.53125 -0.28125,-4.90625 -0.1875,-1.375 -0.71875,-2.429687 -1.59375,-3.171875 -0.867188,-0.75 -2.375,-1.125 -4.53125,-1.125 h -6.421875 v 17.234375 c 0,1.261719 0.535156,2.078125 1.609375,2.453125 1.082031,0.375 3.035156,0.5625 5.859375,0.5625 3.195313,0 5.804687,-0.675781 7.828125,-2.03125 2.03125,-1.363281 3.664062,-3.207031 4.90625,-5.53125 1.25,-2.320312 2.300781,-4.894531 3.15625,-7.71875 h 0.734375 l -3.96875,16 z m 0,0"
           id="path10" />
      </g>
    </g>
    <g
       style="fill:#f6eaba;fill-opacity:1"
       id="g14">
      <g
         transform="translate(264.97943,199.26071)"
         id="g13">
        <path
           style="stroke:none"
           d="m 2.78125,0 v -16.71875 h 0.734375 c 0,3.710938 0.535156,6.746094 1.609375,9.109375 1.082031,2.367187 2.550781,4.105469 4.40625,5.21875 1.863281,1.117187 3.925781,1.671875 6.1875,1.671875 1.414062,0 2.707031,-0.210938 3.875,-0.640625 1.175781,-0.425781 2.113281,-1.132813 2.8125,-2.125 0.707031,-0.988281 1.0625,-2.300781 1.0625,-3.9375 0,-1.550781 -0.496094,-2.976563 -1.484375,-4.28125 -0.980469,-1.300781 -2.261719,-2.546875 -3.84375,-3.734375 -1.574219,-1.195312 -3.234375,-2.378906 -4.984375,-3.546875 -1.75,-1.164063 -3.417969,-2.378906 -5,-3.640625 -1.574219,-1.269531 -2.855469,-2.644531 -3.84375,-4.125 -0.980469,-1.488281 -1.46875,-3.128906 -1.46875,-4.921875 0,-2.15625 0.582031,-3.9375 1.75,-5.34375 1.175781,-1.414063 2.65625,-2.472656 4.4375,-3.171875 1.78125,-0.707031 3.582031,-1.0625 5.40625,-1.0625 1.414062,0 2.613281,0.140625 3.59375,0.421875 0.988281,0.273437 1.832031,0.605469 2.53125,1 0.707031,0.386719 1.347656,0.71875 1.921875,1 0.582031,0.28125 1.15625,0.421875 1.71875,0.421875 0.738281,0 1.238281,-0.164062 1.5,-0.5 0.257813,-0.34375 0.390625,-0.921875 0.390625,-1.734375 h 0.71875 v 13.15625 h -0.71875 c 0,-2.488281 -0.476562,-4.671875 -1.421875,-6.546875 -0.949219,-1.875 -2.242187,-3.332031 -3.875,-4.375 -1.636719,-1.039062 -3.496094,-1.5625 -5.578125,-1.5625 -2.230469,0 -3.828125,0.53125 -4.796875,1.59375 -0.96875,1.054688 -1.453125,2.398438 -1.453125,4.03125 0,1.824219 0.484375,3.433594 1.453125,4.828125 0.96875,1.398437 2.210937,2.664063 3.734375,3.796875 1.53125,1.125 3.148438,2.230469 4.859375,3.3125 1.707031,1.074219 3.320313,2.214844 4.84375,3.421875 1.519531,1.210937 2.765625,2.558594 3.734375,4.046875 0.96875,1.480469 1.453125,3.226562 1.453125,5.234375 0,1.898437 -0.382813,3.625 -1.140625,5.1875 -0.761719,1.5625 -2.039062,2.820313 -3.828125,3.765625 -1.78125,0.945312 -4.25,1.421875 -7.40625,1.421875 -1.523437,0 -2.804687,-0.132813 -3.84375,-0.390625 -1.042969,-0.2617188 -1.949219,-0.566406 -2.71875,-0.921875 -0.761719,-0.351563 -1.460937,-0.660156 -2.09375,-0.921875 -0.625,-0.257812 -1.273437,-0.390625 -1.9375,-0.390625 -1.710937,0 -2.5625,0.652344 -2.5625,1.953125 z m 0,0"
           id="path12" />
      </g>
    </g>
    <g
       style="fill:#f6eaba;fill-opacity:1"
       id="g16">
      <g
         transform="translate(296.25023,199.26071)"
         id="g15">
        <path
           style="stroke:none"
           d="M 1.84375,-30.109375 H 1.109375 l 1.84375,-10.53125 h 35.34375 l 1.84375,10.53125 h -0.71875 c -0.449219,-2.488281 -1.214844,-4.445313 -2.296875,-5.875 -1.074219,-1.4375 -2.414062,-2.453125 -4.015625,-3.046875 -1.59375,-0.59375 -3.398437,-0.890625 -5.40625,-0.890625 H 23.6875 v 36.1875 c 0,1.261719 0.316406,2.078125 0.953125,2.453125 0.632813,0.375 1.617187,0.5625 2.953125,0.5625 V 0 h -13.875 v -0.71875 c 1.332031,0 2.304688,-0.1875 2.921875,-0.5625 0.613281,-0.375 0.921875,-1.191406 0.921875,-2.453125 v -36.1875 h -4.078125 c -1.96875,0 -3.75,0.296875 -5.34375,0.890625 -1.59375,0.59375 -2.921875,1.609375 -3.984375,3.046875 -1.0625,1.429687 -1.835938,3.386719 -2.3125,5.875 z m 0,0"
           id="path14" />
      </g>
    </g>
    <g
       style="fill:#f6eaba;fill-opacity:1"
       id="g18">
      <g
         transform="translate(129.89756,222.42237)"
         id="g17">
        <path
           style="stroke:none"
           d="m 4.9375,0.140625 c -0.855469,0 -1.605469,-0.1875 -2.25,-0.5625 C 2.039062,-0.804688 1.53125,-1.332031 1.15625,-2 0.789062,-2.675781 0.609375,-3.441406 0.609375,-4.296875 c 0,-0.664063 0.097656,-1.289063 0.296875,-1.875 0.195312,-0.582031 0.484375,-1.097656 0.859375,-1.546875 0.382813,-0.445312 0.84375,-0.789062 1.375,-1.03125 0.539063,-0.25 1.15625,-0.375 1.84375,-0.375 0.394531,0 0.722656,0.046875 0.984375,0.140625 0.257812,0.085937 0.476562,0.171875 0.65625,0.265625 0.1875,0.09375 0.34375,0.140625 0.46875,0.140625 0.082031,0 0.160156,-0.023437 0.234375,-0.078125 C 7.398438,-8.707031 7.4375,-8.816406 7.4375,-8.984375 h 0.15625 v 3.09375 H 7.453125 c 0,-1.039063 -0.214844,-1.789063 -0.640625,-2.25 -0.417969,-0.457031 -0.992188,-0.6875 -1.71875,-0.6875 -0.554688,0 -1.058594,0.152344 -1.515625,0.453125 C 3.128906,-8.082031 2.769531,-7.644531 2.5,-7.0625 c -0.273438,0.585938 -0.40625,1.308594 -0.40625,2.171875 0,0.855469 0.132812,1.617187 0.40625,2.28125 0.269531,0.65625 0.660156,1.171875 1.171875,1.546875 0.519531,0.367188 1.132813,0.546875 1.84375,0.546875 0.582031,0 1.066406,-0.128906 1.453125,-0.390625 C 7.351562,-1.175781 7.632812,-1.519531 7.8125,-1.9375 8,-2.363281 8.09375,-2.816406 8.09375,-3.296875 H 8.25 c 0,0.429687 -0.070312,0.84375 -0.203125,1.25 -0.125,0.40625 -0.324219,0.777344 -0.59375,1.109375 -0.273437,0.335938 -0.617187,0.601562 -1.03125,0.796875 -0.40625,0.1875 -0.902344,0.28125 -1.484375,0.28125 z m 0,0"
           id="path16" />
      </g>
    </g>
    <g
       style="fill:#f6eaba;fill-opacity:1"
       id="g20">
      <g
         transform="translate(138.70346,222.42237)"
         id="g19">
        <path
           style="stroke:none"
           d="m 0.25,-6.078125 h 2.109375 v 4.59375 c 0,0.375 0.070313,0.6875 0.21875,0.9375 0.144531,0.25 0.441406,0.375 0.890625,0.375 0.394531,0 0.707031,-0.101563 0.9375,-0.3125 C 4.644531,-0.691406 4.820312,-0.925781 4.9375,-1.1875 V -5.25 c 0,-0.289062 -0.0625,-0.472656 -0.1875,-0.546875 -0.117188,-0.082031 -0.34375,-0.125 -0.6875,-0.125 v -0.15625 h 2.109375 v 4.984375 c 0,0.40625 0.082031,0.667969 0.25,0.78125 0.164063,0.105469 0.425781,0.15625 0.78125,0.15625 V 0 H 4.9375 V -0.796875 C 4.832031,-0.640625 4.703125,-0.488281 4.546875,-0.34375 4.390625,-0.195312 4.191406,-0.0820312 3.953125,0 3.710938,0.09375 3.398438,0.140625 3.015625,0.140625 c -0.355469,0 -0.679687,-0.0429688 -0.96875,-0.125 C 1.765625,-0.0546875 1.539062,-0.207031 1.375,-0.4375 1.207031,-0.664062 1.125,-1.007812 1.125,-1.46875 v -3.765625 c 0,-0.289063 -0.078125,-0.476563 -0.234375,-0.5625 -0.148437,-0.082031 -0.359375,-0.125 -0.640625,-0.125 z m 0,0"
           id="path18" />
      </g>
    </g>
    <g
       style="fill:#f6eaba;fill-opacity:1"
       id="g22">
      <g
         transform="translate(146.02938,222.42237)"
         id="g21">
        <path
           style="stroke:none"
           d="m 0.375,-5.640625 2.25,-0.4375 v 1.296875 h 0.046875 c 0.082031,-0.175781 0.1875,-0.375 0.3125,-0.59375 0.132813,-0.226562 0.316406,-0.425781 0.546875,-0.59375 0.226562,-0.164062 0.53125,-0.25 0.90625,-0.25 0.363281,0 0.640625,0.046875 0.828125,0.140625 0.1875,0.09375 0.28125,0.140625 0.28125,0.140625 l 0.34375,1.609375 H 5.734375 C 5.566406,-4.765625 5.351562,-5.054688 5.09375,-5.203125 4.832031,-5.359375 4.5,-5.4375 4.09375,-5.4375 c -0.179688,0 -0.355469,0.027344 -0.53125,0.078125 -0.179688,0.054687 -0.351562,0.167969 -0.515625,0.34375 C 2.890625,-4.835938 2.75,-4.566406 2.625,-4.203125 v 3.421875 c 0.019531,0.273438 0.097656,0.445312 0.234375,0.515625 C 3.003906,-0.191406 3.21875,-0.15625 3.5,-0.15625 V 0 H 0.515625 v -0.15625 c 0.300781,0 0.519531,-0.039062 0.65625,-0.125 0.144531,-0.082031 0.21875,-0.265625 0.21875,-0.546875 v -3.9375 c 0,-0.25 -0.09375,-0.425781 -0.28125,-0.53125 C 0.929688,-5.410156 0.6875,-5.46875 0.375,-5.46875 Z m 0,0"
           id="path20" />
      </g>
    </g>
    <g
       style="fill:#f6eaba;fill-opacity:1"
       id="g24">
      <g
         transform="translate(152.23297,222.42237)"
         id="g23">
        <path
           style="stroke:none"
           d="m 0.5,-1.78125 c 0,-0.425781 0.085938,-0.773438 0.265625,-1.046875 0.1875,-0.269531 0.414063,-0.476563 0.6875,-0.625 0.28125,-0.15625 0.566406,-0.257813 0.859375,-0.3125 0.289062,-0.0625 0.539062,-0.09375 0.75,-0.09375 0.394531,0 0.710938,0.039063 0.953125,0.109375 0.25,0.074219 0.453125,0.167969 0.609375,0.28125 V -4.1875 C 4.625,-4.414062 4.566406,-4.632812 4.453125,-4.84375 4.347656,-5.0625 4.171875,-5.242188 3.921875,-5.390625 3.679688,-5.535156 3.34375,-5.609375 2.90625,-5.609375 2.25,-5.609375 1.742188,-5.445312 1.390625,-5.125 1.046875,-4.800781 0.875,-4.40625 0.875,-3.9375 H 0.71875 c 0,-0.539062 0.117188,-0.976562 0.359375,-1.3125 0.25,-0.332031 0.5625,-0.578125 0.9375,-0.734375 0.375,-0.15625 0.75,-0.234375 1.125,-0.234375 0.84375,0 1.503906,0.1875 1.984375,0.5625 0.488281,0.375 0.734375,0.867188 0.734375,1.46875 v 2.984375 c 0,0.324219 0.035156,0.578125 0.109375,0.765625 0.082031,0.179688 0.242188,0.265625 0.484375,0.265625 0.195313,0 0.351563,-0.054687 0.46875,-0.171875 0.113281,-0.113281 0.191406,-0.25 0.234375,-0.40625 0.050781,-0.164062 0.078125,-0.316406 0.078125,-0.453125 h 0.15625 c 0,0.242187 -0.042969,0.464844 -0.125,0.671875 -0.074219,0.199219 -0.214844,0.359375 -0.421875,0.484375 -0.199219,0.125 -0.484375,0.1875 -0.859375,0.1875 -0.5,0 -0.855469,-0.09375 -1.0625,-0.28125 C 4.722656,-0.328125 4.625,-0.628906 4.625,-1.046875 H 4.578125 C 4.347656,-0.617188 4.035156,-0.3125 3.640625,-0.125 c -0.386719,0.1757812 -0.761719,0.265625 -1.125,0.265625 -0.648437,0 -1.148437,-0.1796875 -1.5,-0.546875 C 0.671875,-0.769531 0.5,-1.226562 0.5,-1.78125 Z m 2.578125,1.25 c 0.269531,0 0.519531,-0.054688 0.75,-0.171875 0.238281,-0.125 0.429687,-0.300781 0.578125,-0.53125 0.144531,-0.238281 0.21875,-0.53125 0.21875,-0.875 V -3.25 C 4.425781,-3.40625 4.179688,-3.519531 3.890625,-3.59375 3.597656,-3.664062 3.320312,-3.695312 3.0625,-3.6875 2.75,-3.664062 2.492188,-3.578125 2.296875,-3.421875 c -0.199219,0.15625 -0.34375,0.351563 -0.4375,0.578125 -0.09375,0.21875 -0.140625,0.449219 -0.140625,0.6875 0,0.5 0.113281,0.898438 0.34375,1.1875 0.226562,0.292969 0.566406,0.4375 1.015625,0.4375 z m 0,0"
           id="path22" />
      </g>
    </g>
    <g
       style="fill:#f6eaba;fill-opacity:1"
       id="g26">
      <g
         transform="translate(159.43553,222.42237)"
         id="g25">
        <path
           style="stroke:none"
           d="m 0.25,-5.921875 v -0.15625 C 0.6875,-6.140625 1.039062,-6.28125 1.3125,-6.5 c 0.269531,-0.21875 0.476562,-0.476562 0.625,-0.78125 0.144531,-0.3125 0.242188,-0.617188 0.296875,-0.921875 h 0.15625 v 2.125 h 1.3125 v 0.15625 h -1.3125 v 4.71875 c 0,0.335937 0.035156,0.589844 0.109375,0.765625 0.070312,0.167969 0.238281,0.25 0.5,0.25 0.1875,0 0.332031,-0.050781 0.4375,-0.15625 0.113281,-0.113281 0.195312,-0.25 0.25,-0.40625 0.050781,-0.15625 0.078125,-0.304688 0.078125,-0.453125 H 3.9375 c 0,0.199219 -0.042969,0.40625 -0.125,0.625 -0.085938,0.210937 -0.226562,0.386719 -0.421875,0.53125 C 3.203125,0.0859375 2.9375,0.15625 2.59375,0.15625 c -0.542969,0 -0.917969,-0.1171875 -1.125,-0.34375 -0.210938,-0.226562 -0.3125,-0.601562 -0.3125,-1.125 v -4.609375 z m 0,0"
           id="path24" />
      </g>
    </g>
    <g
       style="fill:#f6eaba;fill-opacity:1"
       id="g28">
      <g
         transform="translate(163.36982,222.42237)"
         id="g27">
        <path
           style="stroke:none"
           d="m 3.625,0.140625 c -0.6875,0 -1.265625,-0.13671875 -1.734375,-0.40625 C 1.429688,-0.535156 1.082031,-0.90625 0.84375,-1.375 0.613281,-1.851562 0.5,-2.398438 0.5,-3.015625 0.5,-3.421875 0.570312,-3.8125 0.71875,-4.1875 c 0.144531,-0.382812 0.359375,-0.726562 0.640625,-1.03125 0.28125,-0.3125 0.625,-0.554688 1.03125,-0.734375 0.40625,-0.175781 0.863281,-0.265625 1.375,-0.265625 0.507813,0 0.9375,0.109375 1.28125,0.328125 0.351563,0.210937 0.625,0.496094 0.8125,0.859375 0.1875,0.367188 0.28125,0.765625 0.28125,1.203125 h -4.40625 c -0.011719,0.054687 -0.015625,0.105469 -0.015625,0.15625 0,0.054687 0,0.109375 0,0.171875 0,0.574219 0.085938,1.085938 0.265625,1.53125 0.175781,0.449219 0.4375,0.804688 0.78125,1.0625 0.351563,0.25 0.800781,0.375 1.34375,0.375 0.425781,0 0.769531,-0.078125 1.03125,-0.234375 0.269531,-0.164063 0.476563,-0.367187 0.625,-0.609375 0.144531,-0.238281 0.242187,-0.476562 0.296875,-0.71875 0.050781,-0.25 0.078125,-0.453125 0.078125,-0.609375 h 0.15625 c -0.011719,0.480469 -0.105469,0.9375 -0.28125,1.375 -0.179687,0.4375 -0.460937,0.792969 -0.84375,1.0625 C 4.785156,0.00390625 4.269531,0.140625 3.625,0.140625 Z M 1.765625,-4 h 3.34375 c 0,-0.21875 -0.023437,-0.441406 -0.0625,-0.671875 -0.03125,-0.238281 -0.09375,-0.457031 -0.1875,-0.65625 -0.09375,-0.195313 -0.242187,-0.351563 -0.4375,-0.46875 -0.199219,-0.125 -0.453125,-0.1875 -0.765625,-0.1875 -0.5,0 -0.921875,0.183594 -1.265625,0.546875 -0.335937,0.367188 -0.542969,0.84375 -0.625,1.4375 z m 0,0"
           id="path26" />
      </g>
    </g>
    <g
       style="fill:#f6eaba;fill-opacity:1"
       id="g30">
      <g
         transform="translate(170.16541,222.42237)"
         id="g29">
        <path
           style="stroke:none"
           d="M 3.25,0.140625 C 2.738281,0.140625 2.273438,0.0390625 1.859375,-0.15625 1.453125,-0.351562 1.125,-0.671875 0.875,-1.109375 0.625,-1.554688 0.5,-2.128906 0.5,-2.828125 c 0,-0.726563 0.144531,-1.34375 0.4375,-1.84375 0.300781,-0.5 0.691406,-0.878906 1.171875,-1.140625 0.488281,-0.269531 1.007813,-0.40625 1.5625,-0.40625 0.445313,0 0.804687,0.089844 1.078125,0.265625 0.28125,0.167969 0.492188,0.371094 0.640625,0.609375 v -2.828125 c 0,-0.25 -0.101563,-0.421875 -0.296875,-0.515625 -0.1875,-0.09375 -0.445312,-0.140625 -0.765625,-0.140625 v -0.15625 L 6.625,-9.4375 v 8.140625 c 0,0.417969 0.054688,0.710937 0.171875,0.875 0.125,0.15625 0.285156,0.234375 0.484375,0.234375 0.1875,0 0.335938,-0.050781 0.453125,-0.15625 0.113281,-0.101562 0.191406,-0.234375 0.234375,-0.390625 0.050781,-0.164063 0.078125,-0.320313 0.078125,-0.46875 H 8.21875 c 0,0.386719 -0.117188,0.710937 -0.34375,0.96875 -0.21875,0.25 -0.574219,0.375 -1.0625,0.375 -0.480469,0 -0.839844,-0.1210938 -1.078125,-0.359375 -0.230469,-0.25 -0.34375,-0.597656 -0.34375,-1.046875 H 5.3125 C 5.226562,-1.054688 5.113281,-0.835938 4.96875,-0.609375 4.820312,-0.390625 4.613281,-0.207031 4.34375,-0.0625 4.070312,0.0703125 3.707031,0.140625 3.25,0.140625 Z m 0.59375,-6.15625 c -0.46875,0 -0.859375,0.125 -1.171875,0.375 -0.3125,0.242187 -0.554687,0.5625 -0.71875,0.96875 -0.15625,0.40625 -0.234375,0.867187 -0.234375,1.375 0,1.03125 0.164062,1.789063 0.5,2.265625 0.332031,0.480469 0.804688,0.71875 1.421875,0.71875 0.394531,0 0.71875,-0.109375 0.96875,-0.328125 0.257813,-0.226563 0.453125,-0.507813 0.578125,-0.84375 0.132812,-0.34375 0.203125,-0.675781 0.203125,-1 0,0 0,-0.0625 0,-0.1875 0,-0.132813 0,-0.296875 0,-0.484375 0,-0.1875 0,-0.375 0,-0.5625 0,-0.1875 0,-0.34375 0,-0.46875 0,-0.125 0,-0.1875 0,-0.1875 0,-0.289062 -0.070313,-0.5625 -0.203125,-0.8125 C 5.0625,-5.445312 4.878906,-5.648438 4.640625,-5.796875 4.410156,-5.941406 4.144531,-6.015625 3.84375,-6.015625 Z m 0,0"
           id="path28" />
      </g>
    </g>
    <g
       style="fill:#f6eaba;fill-opacity:1"
       id="g32">
      <g
         transform="translate(178.39165,222.42237)"
         id="g31">
        <path
           style="stroke:none"
           d=""
           id="path30" />
      </g>
    </g>
    <g
       style="fill:#f6eaba;fill-opacity:1"
       id="g34">
      <g
         transform="translate(181.84494,222.42237)"
         id="g33">
        <path
           style="stroke:none"
           d="m 0.375,0 v -0.15625 c 0.289062,0 0.503906,-0.035156 0.640625,-0.109375 0.132813,-0.082031 0.203125,-0.269531 0.203125,-0.5625 V -8.15625 c 0,-0.289062 -0.070312,-0.472656 -0.203125,-0.546875 -0.136719,-0.082031 -0.351563,-0.125 -0.640625,-0.125 v -0.15625 h 3.046875 v 0.15625 c -0.28125,0 -0.492187,0.039063 -0.625,0.109375 -0.136719,0.074219 -0.210937,0.246094 -0.21875,0.515625 v 3.5 h 3.78125 V -8.15625 c 0,-0.289062 -0.074219,-0.472656 -0.21875,-0.546875 -0.136719,-0.082031 -0.351563,-0.125 -0.640625,-0.125 v -0.15625 h 3.0625 v 0.15625 c -0.292969,0 -0.507812,0.042969 -0.640625,0.125 C 7.785156,-8.628906 7.71875,-8.445312 7.71875,-8.15625 v 7.359375 c 0,0.28125 0.066406,0.460937 0.203125,0.53125 0.132813,0.074219 0.347656,0.109375 0.640625,0.109375 V 0 H 5.5 v -0.15625 c 0.289062,0 0.503906,-0.035156 0.640625,-0.109375 0.144531,-0.082031 0.21875,-0.269531 0.21875,-0.5625 v -3.71875 h -3.78125 v 3.84375 c 0.00781,0.230469 0.082031,0.382813 0.21875,0.453125 0.144531,0.0625 0.351563,0.09375 0.625,0.09375 V 0 Z m 0,0"
           id="path32" />
      </g>
    </g>
    <g
       style="fill:#f6eaba;fill-opacity:1"
       id="g36">
      <g
         transform="translate(190.7865,222.42237)"
         id="g35">
        <path
           style="stroke:none"
           d="m 0.5,-3.09375 c 0,-0.601562 0.125,-1.140625 0.375,-1.609375 0.25,-0.476563 0.609375,-0.847656 1.078125,-1.109375 0.46875,-0.269531 1.03125,-0.40625 1.6875,-0.40625 0.6875,0 1.257813,0.136719 1.71875,0.40625 0.46875,0.261719 0.820313,0.632812 1.0625,1.109375 0.238281,0.46875 0.359375,1.007813 0.359375,1.609375 0,0.65625 -0.132812,1.230469 -0.390625,1.71875 -0.25,0.480469 -0.617187,0.855469 -1.09375,1.125 -0.46875,0.2578125 -1.023437,0.390625 -1.65625,0.390625 -1.011719,0 -1.789063,-0.289063 -2.328125,-0.875 C 0.769531,-1.316406 0.5,-2.101562 0.5,-3.09375 Z M 3.515625,-6.0625 c -0.304687,0 -0.558594,0.085938 -0.765625,0.25 -0.210938,0.167969 -0.382812,0.390625 -0.515625,0.671875 -0.125,0.273437 -0.226563,0.578125 -0.296875,0.921875 -0.0625,0.335938 -0.09375,0.667969 -0.09375,1 0,0.335938 0.035156,0.6875 0.109375,1.0625 0.082031,0.375 0.195313,0.730469 0.34375,1.0625 0.15625,0.324219 0.351563,0.585938 0.59375,0.78125 0.238281,0.199219 0.53125,0.296875 0.875,0.296875 0.289063,0 0.539063,-0.0820312 0.75,-0.25 0.207031,-0.175781 0.378906,-0.410156 0.515625,-0.703125 0.132812,-0.289062 0.234375,-0.609375 0.296875,-0.953125 0.0625,-0.351563 0.09375,-0.703125 0.09375,-1.046875 0,-0.34375 -0.039063,-0.695312 -0.109375,-1.0625 C 5.238281,-4.40625 5.125,-4.742188 4.96875,-5.046875 4.820312,-5.347656 4.625,-5.59375 4.375,-5.78125 4.132812,-5.96875 3.847656,-6.0625 3.515625,-6.0625 Z m 0,0"
           id="path34" />
      </g>
    </g>
    <g
       style="fill:#f6eaba;fill-opacity:1"
       id="g38">
      <g
         transform="translate(198.06308,222.42237)"
         id="g37">
        <path
           style="stroke:none"
           d="m 6.578125,-4.234375 v 3.390625 c 0,0.292969 0.070313,0.480469 0.21875,0.5625 0.144531,0.085938 0.363281,0.125 0.65625,0.125 V 0 H 4.46875 v -0.15625 c 0.300781,0 0.519531,-0.039062 0.65625,-0.125 0.144531,-0.082031 0.21875,-0.265625 0.21875,-0.546875 V -4.4375 c 0,-0.476562 -0.085938,-0.84375 -0.25,-1.09375 -0.167969,-0.257812 -0.453125,-0.390625 -0.859375,-0.390625 -0.3125,0 -0.59375,0.089844 -0.84375,0.265625 C 3.148438,-5.476562 2.960938,-5.257812 2.828125,-5 2.691406,-4.75 2.625,-4.5 2.625,-4.25 v 3.421875 c 0,0.292969 0.09375,0.480469 0.28125,0.5625 0.195312,0.074219 0.4375,0.109375 0.71875,0.109375 V 0 H 0.515625 v -0.15625 c 0.300781,0 0.519531,-0.039062 0.65625,-0.125 0.144531,-0.082031 0.21875,-0.265625 0.21875,-0.546875 v -3.96875 c 0,-0.25 -0.09375,-0.421875 -0.28125,-0.515625 C 0.929688,-5.414062 0.6875,-5.46875 0.375,-5.46875 v -0.171875 l 2.25,-0.4375 v 0.90625 c 0.175781,-0.28125 0.421875,-0.523437 0.734375,-0.734375 0.3125,-0.207031 0.738281,-0.3125 1.28125,-0.3125 0.238281,0 0.476563,0.039062 0.71875,0.109375 0.25,0.074219 0.472656,0.199219 0.671875,0.375 C 6.238281,-5.554688 6.382812,-5.3125 6.46875,-5 c 0.1875,-0.320312 0.4375,-0.601562 0.75,-0.84375 0.320312,-0.25 0.78125,-0.375 1.375,-0.375 0.289062,0 0.582031,0.058594 0.875,0.171875 0.300781,0.117187 0.550781,0.3125 0.75,0.59375 0.207031,0.28125 0.3125,0.6875 0.3125,1.21875 v 3.40625 c 0,0.28125 0.06641,0.46875 0.203125,0.5625 0.144531,0.085937 0.367187,0.125 0.671875,0.125 V 0 H 8.421875 v -0.140625 c 0.289063,0 0.507813,-0.039063 0.65625,-0.125 0.144531,-0.09375 0.21875,-0.28125 0.21875,-0.5625 V -4.4375 c 0,-0.46875 -0.085937,-0.832031 -0.25,-1.09375 C 8.878906,-5.789062 8.59375,-5.921875 8.1875,-5.921875 c -0.3125,0 -0.59375,0.089844 -0.84375,0.265625 C 7.101562,-5.476562 6.914062,-5.257812 6.78125,-5 6.644531,-4.738281 6.578125,-4.484375 6.578125,-4.234375 Z m 0,0"
           id="path36" />
      </g>
    </g>
    <g
       style="fill:#f6eaba;fill-opacity:1"
       id="g40">
      <g
         transform="translate(209.59461,222.42237)"
         id="g39">
        <path
           style="stroke:none"
           d="m 3.625,0.140625 c -0.6875,0 -1.265625,-0.13671875 -1.734375,-0.40625 C 1.429688,-0.535156 1.082031,-0.90625 0.84375,-1.375 0.613281,-1.851562 0.5,-2.398438 0.5,-3.015625 0.5,-3.421875 0.570312,-3.8125 0.71875,-4.1875 c 0.144531,-0.382812 0.359375,-0.726562 0.640625,-1.03125 0.28125,-0.3125 0.625,-0.554688 1.03125,-0.734375 0.40625,-0.175781 0.863281,-0.265625 1.375,-0.265625 0.507813,0 0.9375,0.109375 1.28125,0.328125 0.351563,0.210937 0.625,0.496094 0.8125,0.859375 0.1875,0.367188 0.28125,0.765625 0.28125,1.203125 h -4.40625 c -0.011719,0.054687 -0.015625,0.105469 -0.015625,0.15625 0,0.054687 0,0.109375 0,0.171875 0,0.574219 0.085938,1.085938 0.265625,1.53125 0.175781,0.449219 0.4375,0.804688 0.78125,1.0625 0.351563,0.25 0.800781,0.375 1.34375,0.375 0.425781,0 0.769531,-0.078125 1.03125,-0.234375 0.269531,-0.164063 0.476563,-0.367187 0.625,-0.609375 0.144531,-0.238281 0.242187,-0.476562 0.296875,-0.71875 0.050781,-0.25 0.078125,-0.453125 0.078125,-0.609375 h 0.15625 c -0.011719,0.480469 -0.105469,0.9375 -0.28125,1.375 -0.179687,0.4375 -0.460937,0.792969 -0.84375,1.0625 C 4.785156,0.00390625 4.269531,0.140625 3.625,0.140625 Z M 1.765625,-4 h 3.34375 c 0,-0.21875 -0.023437,-0.441406 -0.0625,-0.671875 -0.03125,-0.238281 -0.09375,-0.457031 -0.1875,-0.65625 -0.09375,-0.195313 -0.242187,-0.351563 -0.4375,-0.46875 -0.199219,-0.125 -0.453125,-0.1875 -0.765625,-0.1875 -0.5,0 -0.921875,0.183594 -1.265625,0.546875 -0.335937,0.367188 -0.542969,0.84375 -0.625,1.4375 z m 0,0"
           id="path38" />
      </g>
    </g>
    <g
       style="fill:#f6eaba;fill-opacity:1"
       id="g42">
      <g
         transform="translate(216.43955,222.42237)"
         id="g41">
        <path
           style="stroke:none"
           d="M 0.65625,0 H 0.5 v -2.546875 h 0.15625 c 0,0.46875 0.054688,0.867187 0.171875,1.1875 0.125,0.3125 0.285156,0.5625 0.484375,0.75 0.195312,0.1875 0.398438,0.324219 0.609375,0.40625 0.21875,0.074219 0.421875,0.109375 0.609375,0.109375 0.414062,0 0.722656,-0.09375 0.921875,-0.28125 0.207031,-0.195312 0.3125,-0.4375 0.3125,-0.71875 0,-0.320312 -0.078125,-0.578125 -0.234375,-0.765625 C 3.375,-2.054688 3.171875,-2.21875 2.921875,-2.34375 c -0.242187,-0.125 -0.5,-0.234375 -0.78125,-0.328125 C 1.867188,-2.773438 1.609375,-2.894531 1.359375,-3.03125 1.117188,-3.175781 0.914062,-3.363281 0.75,-3.59375 0.59375,-3.820312 0.515625,-4.113281 0.515625,-4.46875 c 0,-0.539062 0.175781,-0.96875 0.53125,-1.28125 0.351563,-0.3125 0.816406,-0.46875 1.390625,-0.46875 0.269531,0 0.492188,0.039062 0.671875,0.109375 0.1875,0.074219 0.347656,0.152344 0.484375,0.234375 C 3.738281,-5.800781 3.875,-5.765625 4,-5.765625 c 0.082031,0 0.140625,-0.03125 0.171875,-0.09375 0.039063,-0.0625 0.0625,-0.132813 0.0625,-0.21875 h 0.15625 L 4.40625,-4.0625 H 4.234375 c 0,-0.351562 -0.070313,-0.675781 -0.203125,-0.96875 C 3.894531,-5.320312 3.703125,-5.550781 3.453125,-5.71875 3.210938,-5.894531 2.914062,-5.984375 2.5625,-5.984375 c -0.28125,0 -0.507812,0.078125 -0.671875,0.234375 -0.167969,0.15625 -0.25,0.367188 -0.25,0.625 0,0.304688 0.070313,0.546875 0.21875,0.734375 0.15625,0.179687 0.351563,0.335937 0.59375,0.46875 0.25,0.125 0.515625,0.246094 0.796875,0.359375 0.28125,0.117188 0.546875,0.25 0.796875,0.40625 0.25,0.148438 0.453125,0.34375 0.609375,0.59375 0.15625,0.25 0.234375,0.570312 0.234375,0.953125 -0.011719,0.511719 -0.210937,0.933594 -0.59375,1.265625 -0.375,0.3242188 -0.875,0.484375 -1.5,0.484375 C 2.503906,0.140625 2.257812,0.113281 2.0625,0.0625 1.875,0.0078125 1.710938,-0.046875 1.578125,-0.109375 1.441406,-0.171875 1.316406,-0.222656 1.203125,-0.265625 1.097656,-0.304688 0.984375,-0.316406 0.859375,-0.296875 0.722656,-0.273438 0.65625,-0.175781 0.65625,0 Z m 0,0"
           id="path40" />
      </g>
    </g>
    <g
       style="fill:#f6eaba;fill-opacity:1"
       id="g44">
      <g
         transform="translate(221.70582,222.42237)"
         id="g43">
        <path
           style="stroke:none"
           d="m 0.25,-5.921875 v -0.15625 C 0.6875,-6.140625 1.039062,-6.28125 1.3125,-6.5 c 0.269531,-0.21875 0.476562,-0.476562 0.625,-0.78125 0.144531,-0.3125 0.242188,-0.617188 0.296875,-0.921875 h 0.15625 v 2.125 h 1.3125 v 0.15625 h -1.3125 v 4.71875 c 0,0.335937 0.035156,0.589844 0.109375,0.765625 0.070312,0.167969 0.238281,0.25 0.5,0.25 0.1875,0 0.332031,-0.050781 0.4375,-0.15625 0.113281,-0.113281 0.195312,-0.25 0.25,-0.40625 0.050781,-0.15625 0.078125,-0.304688 0.078125,-0.453125 H 3.9375 c 0,0.199219 -0.042969,0.40625 -0.125,0.625 -0.085938,0.210937 -0.226562,0.386719 -0.421875,0.53125 C 3.203125,0.0859375 2.9375,0.15625 2.59375,0.15625 c -0.542969,0 -0.917969,-0.1171875 -1.125,-0.34375 -0.210938,-0.226562 -0.3125,-0.601562 -0.3125,-1.125 v -4.609375 z m 0,0"
           id="path42" />
      </g>
    </g>
    <g
       style="fill:#f6eaba;fill-opacity:1"
       id="g46">
      <g
         transform="translate(225.64011,222.42237)"
         id="g45">
        <path
           style="stroke:none"
           d="m 0.5,-1.78125 c 0,-0.425781 0.085938,-0.773438 0.265625,-1.046875 0.1875,-0.269531 0.414063,-0.476563 0.6875,-0.625 0.28125,-0.15625 0.566406,-0.257813 0.859375,-0.3125 0.289062,-0.0625 0.539062,-0.09375 0.75,-0.09375 0.394531,0 0.710938,0.039063 0.953125,0.109375 0.25,0.074219 0.453125,0.167969 0.609375,0.28125 V -4.1875 C 4.625,-4.414062 4.566406,-4.632812 4.453125,-4.84375 4.347656,-5.0625 4.171875,-5.242188 3.921875,-5.390625 3.679688,-5.535156 3.34375,-5.609375 2.90625,-5.609375 2.25,-5.609375 1.742188,-5.445312 1.390625,-5.125 1.046875,-4.800781 0.875,-4.40625 0.875,-3.9375 H 0.71875 c 0,-0.539062 0.117188,-0.976562 0.359375,-1.3125 0.25,-0.332031 0.5625,-0.578125 0.9375,-0.734375 0.375,-0.15625 0.75,-0.234375 1.125,-0.234375 0.84375,0 1.503906,0.1875 1.984375,0.5625 0.488281,0.375 0.734375,0.867188 0.734375,1.46875 v 2.984375 c 0,0.324219 0.035156,0.578125 0.109375,0.765625 0.082031,0.179688 0.242188,0.265625 0.484375,0.265625 0.195313,0 0.351563,-0.054687 0.46875,-0.171875 0.113281,-0.113281 0.191406,-0.25 0.234375,-0.40625 0.050781,-0.164062 0.078125,-0.316406 0.078125,-0.453125 h 0.15625 c 0,0.242187 -0.042969,0.464844 -0.125,0.671875 -0.074219,0.199219 -0.214844,0.359375 -0.421875,0.484375 -0.199219,0.125 -0.484375,0.1875 -0.859375,0.1875 -0.5,0 -0.855469,-0.09375 -1.0625,-0.28125 C 4.722656,-0.328125 4.625,-0.628906 4.625,-1.046875 H 4.578125 C 4.347656,-0.617188 4.035156,-0.3125 3.640625,-0.125 c -0.386719,0.1757812 -0.761719,0.265625 -1.125,0.265625 -0.648437,0 -1.148437,-0.1796875 -1.5,-0.546875 C 0.671875,-0.769531 0.5,-1.226562 0.5,-1.78125 Z m 2.578125,1.25 c 0.269531,0 0.519531,-0.054688 0.75,-0.171875 0.238281,-0.125 0.429687,-0.300781 0.578125,-0.53125 0.144531,-0.238281 0.21875,-0.53125 0.21875,-0.875 V -3.25 C 4.425781,-3.40625 4.179688,-3.519531 3.890625,-3.59375 3.597656,-3.664062 3.320312,-3.695312 3.0625,-3.6875 2.75,-3.664062 2.492188,-3.578125 2.296875,-3.421875 c -0.199219,0.15625 -0.34375,0.351563 -0.4375,0.578125 -0.09375,0.21875 -0.140625,0.449219 -0.140625,0.6875 0,0.5 0.113281,0.898438 0.34375,1.1875 0.226562,0.292969 0.566406,0.4375 1.015625,0.4375 z m 0,0"
           id="path44" />
      </g>
    </g>
    <g
       style="fill:#f6eaba;fill-opacity:1"
       id="g48">
      <g
         transform="translate(232.54665,222.42237)"
         id="g47">
        <path
           style="stroke:none"
           d="M 5.484375,-6.078125 H 7.09375 v 0.15625 c -0.21875,0 -0.40625,0.039063 -0.5625,0.109375 C 6.375,-5.75 6.269531,-5.648438 6.21875,-5.515625 l -2.5625,6.1875 C 3.457031,1.179688 3.257812,1.597656 3.0625,1.921875 2.875,2.253906 2.65625,2.5 2.40625,2.65625 2.164062,2.8125 1.859375,2.890625 1.484375,2.890625 c -0.199219,0 -0.375,-0.03125 -0.53125,-0.09375 C 0.796875,2.734375 0.671875,2.664062 0.578125,2.59375 0.492188,2.53125 0.453125,2.5 0.453125,2.5 L -0.25,0.5625 h 0.15625 C 0.0625,1 0.265625,1.347656 0.515625,1.609375 c 0.25,0.269531 0.625,0.40625 1.125,0.40625 0.351563,0 0.648437,-0.078125 0.890625,-0.234375 0.238281,-0.148438 0.445312,-0.355469 0.625,-0.625 C 3.332031,0.894531 3.5,0.597656 3.65625,0.265625 L 3.84375,-0.203125 1.125,-5.5 C 1.03125,-5.675781 0.914062,-5.789062 0.78125,-5.84375 0.65625,-5.894531 0.472656,-5.921875 0.234375,-5.921875 v -0.15625 h 2.78125 v 0.15625 c -0.25,0 -0.4375,0.027344 -0.5625,0.078125 -0.125,0.054688 -0.136719,0.171875 -0.03125,0.359375 l 2.015625,3.84375 1.609375,-3.875 c 0.039063,-0.125 0.019531,-0.222656 -0.0625,-0.296875 -0.074219,-0.070312 -0.242187,-0.109375 -0.5,-0.109375 z m 0,0"
           id="path46" />
      </g>
    </g>
    <g
       style="fill:#f6eaba;fill-opacity:1"
       id="g50">
      <g
         transform="translate(239.83556,222.42237)"
         id="g49">
        <path
           style="stroke:none"
           d="M 0.65625,0 H 0.5 v -2.546875 h 0.15625 c 0,0.46875 0.054688,0.867187 0.171875,1.1875 0.125,0.3125 0.285156,0.5625 0.484375,0.75 0.195312,0.1875 0.398438,0.324219 0.609375,0.40625 0.21875,0.074219 0.421875,0.109375 0.609375,0.109375 0.414062,0 0.722656,-0.09375 0.921875,-0.28125 0.207031,-0.195312 0.3125,-0.4375 0.3125,-0.71875 0,-0.320312 -0.078125,-0.578125 -0.234375,-0.765625 C 3.375,-2.054688 3.171875,-2.21875 2.921875,-2.34375 c -0.242187,-0.125 -0.5,-0.234375 -0.78125,-0.328125 C 1.867188,-2.773438 1.609375,-2.894531 1.359375,-3.03125 1.117188,-3.175781 0.914062,-3.363281 0.75,-3.59375 0.59375,-3.820312 0.515625,-4.113281 0.515625,-4.46875 c 0,-0.539062 0.175781,-0.96875 0.53125,-1.28125 0.351563,-0.3125 0.816406,-0.46875 1.390625,-0.46875 0.269531,0 0.492188,0.039062 0.671875,0.109375 0.1875,0.074219 0.347656,0.152344 0.484375,0.234375 C 3.738281,-5.800781 3.875,-5.765625 4,-5.765625 c 0.082031,0 0.140625,-0.03125 0.171875,-0.09375 0.039063,-0.0625 0.0625,-0.132813 0.0625,-0.21875 h 0.15625 L 4.40625,-4.0625 H 4.234375 c 0,-0.351562 -0.070313,-0.675781 -0.203125,-0.96875 C 3.894531,-5.320312 3.703125,-5.550781 3.453125,-5.71875 3.210938,-5.894531 2.914062,-5.984375 2.5625,-5.984375 c -0.28125,0 -0.507812,0.078125 -0.671875,0.234375 -0.167969,0.15625 -0.25,0.367188 -0.25,0.625 0,0.304688 0.070313,0.546875 0.21875,0.734375 0.15625,0.179687 0.351563,0.335937 0.59375,0.46875 0.25,0.125 0.515625,0.246094 0.796875,0.359375 0.28125,0.117188 0.546875,0.25 0.796875,0.40625 0.25,0.148438 0.453125,0.34375 0.609375,0.59375 0.15625,0.25 0.234375,0.570312 0.234375,0.953125 -0.011719,0.511719 -0.210937,0.933594 -0.59375,1.265625 -0.375,0.3242188 -0.875,0.484375 -1.5,0.484375 C 2.503906,0.140625 2.257812,0.113281 2.0625,0.0625 1.875,0.0078125 1.710938,-0.046875 1.578125,-0.109375 1.441406,-0.171875 1.316406,-0.222656 1.203125,-0.265625 1.097656,-0.304688 0.984375,-0.316406 0.859375,-0.296875 0.722656,-0.273438 0.65625,-0.175781 0.65625,0 Z m 0,0"
           id="path48" />
      </g>
    </g>
  </g>
</svg>
