<?xml version="1.0" encoding="UTF-8" standalone="no"?>
<svg
   width="243.46767"
   zoomAndPan="magnify"
   viewBox="0 0 182.60075 169.10063"
   height="225.46751"
   preserveAspectRatio="xMidYMid"
   version="1.2"
   id="svg107"
   xmlns="http://www.w3.org/2000/svg"
   xmlns:svg="http://www.w3.org/2000/svg">
  <defs
     id="defs2">
    <clipPath
       id="9e46e3f632">
      <path
         d="m 177,102.42969 h 27 V 173 h -27 z m 0,0"
         id="path1" />
    </clipPath>
    <clipPath
       id="8074530822">
      <path
         d="M 115,108 H 260 V 211.92969 H 115 Z m 0,0"
         id="path2" />
    </clipPath>
  </defs>
  <g
     id="0e2aaac458"
     transform="translate(-96.855043,-102.42969)">
    <g
       style="fill:#cdad6c;fill-opacity:1"
       id="g4">
      <g
         transform="translate(95.011293,255.38195)"
         id="g3">
        <path
           style="stroke:none"
           d="M 1.84375,0 V -0.546875 C 2.5,-0.753906 2.921875,-1.191406 3.109375,-1.859375 3.304688,-2.523438 3.40625,-3.566406 3.40625,-4.984375 v -17.46875 c 0,-1.414063 -0.101562,-2.453125 -0.296875,-3.109375 C 2.921875,-26.226562 2.5,-26.664062 1.84375,-26.875 v -0.5625 h 18.8125 l 0.421875,5.53125 -0.5,0.125 c -0.792969,-1.9375 -1.851563,-3.253906 -3.171875,-3.953125 -1.3125,-0.707031 -3.070312,-1.0625 -5.265625,-1.0625 H 7.5625 v 11.75 h 3.765625 c 1.59375,0 2.84375,-0.101563 3.75,-0.3125 0.914063,-0.207031 1.597656,-0.53125 2.046875,-0.96875 0.445312,-0.445313 0.773438,-1.015625 0.984375,-1.703125 h 0.546875 v 6.59375 h -0.546875 c -0.210937,-0.6875 -0.539063,-1.25 -0.984375,-1.6875 -0.449219,-0.445312 -1.132812,-0.773438 -2.046875,-0.984375 -0.90625,-0.207031 -2.15625,-0.3125 -3.75,-0.3125 H 7.5625 V -2.59375 c 0,1.3125 0.648438,1.96875 1.953125,1.96875 h 3.765625 c 1.988281,0 3.660156,-0.363281 5.015625,-1.09375 1.363281,-0.738281 2.410156,-2.097656 3.140625,-4.078125 l 0.5,0.078125 L 21.671875,0 Z m 0,0"
           id="path3" />
      </g>
    </g>
    <g
       style="fill:#cdad6c;fill-opacity:1"
       id="g6">
      <g
         transform="translate(118.32039,255.38195)"
         id="g5">
        <path
           style="stroke:none"
           d="M -0.828125,0 V -0.546875 C -0.222656,-0.753906 0.34375,-1.160156 0.875,-1.765625 1.414062,-2.367188 1.945312,-3.320312 2.46875,-4.625 l 7.328125,-18.1875 c 0.289063,-0.726562 0.265625,-1.429688 -0.078125,-2.109375 l -0.515625,-1.09375 3.84375,-1.734375 9.71875,23.171875 c 0.550781,1.273437 1.082031,2.210937 1.59375,2.8125 0.507813,0.605469 0.984375,1.011719 1.421875,1.21875 V 0 h -7.125 v -0.546875 c 0.65625,-0.207031 0.894531,-0.613281 0.71875,-1.21875 -0.167969,-0.601563 -0.527344,-1.539063 -1.078125,-2.8125 l -2.34375,-5.65625 H 5.484375 L 3.21875,-4.625 c -0.53125,1.304688 -0.746094,2.273438 -0.640625,2.90625 0.113281,0.625 0.492187,1.015625 1.140625,1.171875 V 0 Z M 5.71875,-10.859375 h 9.953125 L 10.625,-22.96875 Z m 0,0"
           id="path4" />
      </g>
    </g>
    <g
       style="fill:#cdad6c;fill-opacity:1"
       id="g8">
      <g
         transform="translate(143.50989,255.38195)"
         id="g7">
        <path
           style="stroke:none"
           d="m 11.203125,0.390625 c -2.011719,0 -3.882813,-0.28125 -5.609375,-0.84375 -1.71875,-0.5625 -3.074219,-1.207031 -4.0625,-1.9375 l -0.15625,-5.875 0.5,-0.078125 c 0.550781,1.492188 1.300781,2.828125 2.25,4.015625 0.957031,1.1875 2.113281,2.136719 3.46875,2.84375 1.363281,0.699219 2.90625,1.046875 4.625,1.046875 0.914062,0 1.765625,-0.1875 2.546875,-0.5625 0.789063,-0.375 1.429687,-0.925781 1.921875,-1.65625 0.5,-0.738281 0.75,-1.644531 0.75,-2.71875 0,-0.957031 -0.277344,-1.796875 -0.828125,-2.515625 -0.542969,-0.71875 -1.242187,-1.34375 -2.09375,-1.875 -0.84375,-0.539063 -1.742187,-1.015625 -2.6875,-1.421875 -0.9375,-0.40625 -1.796875,-0.765625 -2.578125,-1.078125 -1.335938,-0.570313 -2.5625,-1.144531 -3.6875,-1.71875 -1.125,-0.582031 -2.027344,-1.320313 -2.703125,-2.21875 -0.679687,-0.90625 -1.015625,-2.113281 -1.015625,-3.625 0,-2.425781 0.90625,-4.34375 2.71875,-5.75 1.8125,-1.414063 4.257812,-2.125 7.34375,-2.125 1.46875,0 2.832031,0.148437 4.09375,0.4375 1.269531,0.28125 2.414062,0.683594 3.4375,1.203125 l 0.15625,5.09375 -0.4375,0.15625 c -0.804688,-2.007812 -1.984375,-3.550781 -3.546875,-4.625 -1.554687,-1.070312 -3.28125,-1.609375 -5.1875,-1.609375 -1.5625,0 -2.890625,0.445313 -3.984375,1.328125 -1.085938,0.875 -1.625,2.078125 -1.625,3.609375 0,0.867187 0.210938,1.621094 0.640625,2.265625 0.4375,0.636719 1.015625,1.1875 1.734375,1.65625 0.71875,0.46875 1.488281,0.882812 2.3125,1.234375 0.820312,0.355469 1.625,0.6875 2.40625,1 1,0.398437 2.015625,0.820313 3.046875,1.265625 1.03125,0.4375 1.972656,0.960938 2.828125,1.5625 0.863281,0.605469 1.554688,1.324219 2.078125,2.15625 0.53125,0.835938 0.796875,1.839844 0.796875,3.015625 0,1.335937 -0.277344,2.523437 -0.828125,3.5625 -0.554687,1.042969 -1.289063,1.917969 -2.203125,2.625 -0.90625,0.710937 -1.921875,1.246094 -3.046875,1.609375 -1.125,0.363281 -2.25,0.546875 -3.375,0.546875 z m 0,0"
           id="path6" />
      </g>
    </g>
    <g
       style="fill:#cdad6c;fill-opacity:1"
       id="g10">
      <g
         transform="translate(165.17364,255.38195)"
         id="g9">
        <path
           style="stroke:none"
           d="m 7.375,0 v -0.546875 c 0.644531,-0.207031 1.066406,-0.644531 1.265625,-1.3125 0.195313,-0.664063 0.296875,-1.707031 0.296875,-3.125 V -26.71875 H 7.71875 c -1.75,0 -3.125,0.292969 -4.125,0.875 -0.992188,0.585938 -1.851562,1.664062 -2.578125,3.234375 l -0.46875,-0.07813 0.234375,-4.75 h 20.421875 l 0.234375,4.75 -0.46875,0.07813 c -0.730469,-1.570313 -1.59375,-2.648437 -2.59375,-3.234375 -0.992188,-0.582031 -2.359375,-0.875 -4.109375,-0.875 H 13.125 v 21.734375 c 0,1.417969 0.09766,2.460937 0.296875,3.125 0.195313,0.667969 0.617187,1.105469 1.265625,1.3125 V 0 Z m 0,0"
           id="path8" />
      </g>
    </g>
    <g
       style="fill:#cdad6c;fill-opacity:1"
       id="g12">
      <g
         transform="translate(187.11162,255.38195)"
         id="g11">
        <path
           style="stroke:none"
           d="M 22.5,0.3125 4.109375,-22.890625 v 15.5625 c 0,1.59375 0.101563,2.851563 0.3125,3.765625 0.207031,0.917969 0.535156,1.601562 0.984375,2.046875 0.445312,0.4375 1.007812,0.761719 1.6875,0.96875 V 0 h -5.25 V -0.546875 C 2.5,-0.753906 2.921875,-1.191406 3.109375,-1.859375 3.304688,-2.523438 3.40625,-3.566406 3.40625,-4.984375 v -17.46875 c 0,-1.414063 -0.132812,-2.453125 -0.390625,-3.109375 C 2.753906,-26.226562 2.207031,-26.664062 1.375,-26.875 v -0.5625 h 4.421875 l 16.46875,20.625 v -13.296875 c 0,-1.59375 -0.109375,-2.84375 -0.328125,-3.75 -0.210938,-0.914063 -0.539062,-1.59375 -0.984375,-2.03125 -0.4375,-0.445313 -0.996094,-0.773437 -1.671875,-0.984375 v -0.5625 h 5.296875 v 0.5625 c -0.65625,0.210938 -1.085937,0.648438 -1.28125,1.3125 C 23.097656,-24.90625 23,-23.867188 23,-22.453125 V 0.3125 Z m 0,0"
           id="path10" />
      </g>
    </g>
    <g
       style="fill:#cdad6c;fill-opacity:1"
       id="g14">
      <g
         transform="translate(213.04544,255.38195)"
         id="g13">
        <path
           style="stroke:none"
           d="M 1.84375,0 V -0.546875 C 2.5,-0.753906 2.921875,-1.191406 3.109375,-1.859375 3.304688,-2.523438 3.40625,-3.566406 3.40625,-4.984375 v -17.46875 c 0,-1.414063 -0.101562,-2.453125 -0.296875,-3.109375 C 2.921875,-26.226562 2.5,-26.664062 1.84375,-26.875 v -0.5625 h 18.8125 l 0.421875,5.53125 -0.5,0.125 c -0.792969,-1.9375 -1.851563,-3.253906 -3.171875,-3.953125 -1.3125,-0.707031 -3.070312,-1.0625 -5.265625,-1.0625 H 7.5625 v 11.75 h 3.765625 c 1.59375,0 2.84375,-0.101563 3.75,-0.3125 0.914063,-0.207031 1.597656,-0.53125 2.046875,-0.96875 0.445312,-0.445313 0.773438,-1.015625 0.984375,-1.703125 h 0.546875 v 6.59375 h -0.546875 c -0.210937,-0.6875 -0.539063,-1.25 -0.984375,-1.6875 -0.449219,-0.445312 -1.132812,-0.773438 -2.046875,-0.984375 -0.90625,-0.207031 -2.15625,-0.3125 -3.75,-0.3125 H 7.5625 V -2.59375 c 0,1.3125 0.648438,1.96875 1.953125,1.96875 h 3.765625 c 1.988281,0 3.660156,-0.363281 5.015625,-1.09375 1.363281,-0.738281 2.410156,-2.097656 3.140625,-4.078125 l 0.5,0.078125 L 21.671875,0 Z m 0,0"
           id="path12" />
      </g>
    </g>
    <g
       style="fill:#cdad6c;fill-opacity:1"
       id="g16">
      <g
         transform="translate(236.35454,255.38195)"
         id="g15">
        <path
           style="stroke:none"
           d="m 11.203125,0.390625 c -2.011719,0 -3.882813,-0.28125 -5.609375,-0.84375 -1.71875,-0.5625 -3.074219,-1.207031 -4.0625,-1.9375 l -0.15625,-5.875 0.5,-0.078125 c 0.550781,1.492188 1.300781,2.828125 2.25,4.015625 0.957031,1.1875 2.113281,2.136719 3.46875,2.84375 1.363281,0.699219 2.90625,1.046875 4.625,1.046875 0.914062,0 1.765625,-0.1875 2.546875,-0.5625 0.789063,-0.375 1.429687,-0.925781 1.921875,-1.65625 0.5,-0.738281 0.75,-1.644531 0.75,-2.71875 0,-0.957031 -0.277344,-1.796875 -0.828125,-2.515625 -0.542969,-0.71875 -1.242187,-1.34375 -2.09375,-1.875 -0.84375,-0.539063 -1.742187,-1.015625 -2.6875,-1.421875 -0.9375,-0.40625 -1.796875,-0.765625 -2.578125,-1.078125 -1.335938,-0.570313 -2.5625,-1.144531 -3.6875,-1.71875 -1.125,-0.582031 -2.027344,-1.320313 -2.703125,-2.21875 -0.679687,-0.90625 -1.015625,-2.113281 -1.015625,-3.625 0,-2.425781 0.90625,-4.34375 2.71875,-5.75 1.8125,-1.414063 4.257812,-2.125 7.34375,-2.125 1.46875,0 2.832031,0.148437 4.09375,0.4375 1.269531,0.28125 2.414062,0.683594 3.4375,1.203125 l 0.15625,5.09375 -0.4375,0.15625 c -0.804688,-2.007812 -1.984375,-3.550781 -3.546875,-4.625 -1.554687,-1.070312 -3.28125,-1.609375 -5.1875,-1.609375 -1.5625,0 -2.890625,0.445313 -3.984375,1.328125 -1.085938,0.875 -1.625,2.078125 -1.625,3.609375 0,0.867187 0.210938,1.621094 0.640625,2.265625 0.4375,0.636719 1.015625,1.1875 1.734375,1.65625 0.71875,0.46875 1.488281,0.882812 2.3125,1.234375 0.820312,0.355469 1.625,0.6875 2.40625,1 1,0.398437 2.015625,0.820313 3.046875,1.265625 1.03125,0.4375 1.972656,0.960938 2.828125,1.5625 0.863281,0.605469 1.554688,1.324219 2.078125,2.15625 0.53125,0.835938 0.796875,1.839844 0.796875,3.015625 0,1.335937 -0.277344,2.523437 -0.828125,3.5625 -0.554687,1.042969 -1.289063,1.917969 -2.203125,2.625 -0.90625,0.710937 -1.921875,1.246094 -3.046875,1.609375 -1.125,0.363281 -2.25,0.546875 -3.375,0.546875 z m 0,0"
           id="path14" />
      </g>
    </g>
    <g
       style="fill:#cdad6c;fill-opacity:1"
       id="g18">
      <g
         transform="translate(258.01829,255.38195)"
         id="g17">
        <path
           style="stroke:none"
           d="m 7.375,0 v -0.546875 c 0.644531,-0.207031 1.066406,-0.644531 1.265625,-1.3125 0.195313,-0.664063 0.296875,-1.707031 0.296875,-3.125 V -26.71875 H 7.71875 c -1.75,0 -3.125,0.292969 -4.125,0.875 -0.992188,0.585938 -1.851562,1.664062 -2.578125,3.234375 l -0.46875,-0.07813 0.234375,-4.75 h 20.421875 l 0.234375,4.75 -0.46875,0.07813 c -0.730469,-1.570313 -1.59375,-2.648437 -2.59375,-3.234375 -0.992188,-0.582031 -2.359375,-0.875 -4.109375,-0.875 H 13.125 v 21.734375 c 0,1.417969 0.09766,2.460937 0.296875,3.125 0.195313,0.667969 0.617187,1.105469 1.265625,1.3125 V 0 Z m 0,0"
           id="path16" />
      </g>
    </g>
    <g
       style="fill:#cdad6c;fill-opacity:1"
       id="g20">
      <g
         transform="translate(132.72477,271.35845)"
         id="g19">
        <path
           style="stroke:none"
           d="m 1.0625,0 v -8.90625 h 3.484375 c 0.726563,0 1.351563,0.136719 1.875,0.40625 0.53125,0.261719 0.941406,0.632812 1.234375,1.109375 0.289062,0.480469 0.4375,1.046875 0.4375,1.703125 0,0.648438 -0.148438,1.214844 -0.4375,1.703125 -0.292969,0.480469 -0.703125,0.851563 -1.234375,1.109375 -0.523437,0.261719 -1.148437,0.390625 -1.875,0.390625 H 3.09375 V 0 Z m 2.015625,-4.21875 h 1.3125 c 0.519531,0 0.921875,-0.125 1.203125,-0.375 0.289062,-0.25 0.4375,-0.609375 0.4375,-1.078125 C 6.03125,-6.140625 5.882812,-6.5 5.59375,-6.75 5.3125,-7.007812 4.910156,-7.140625 4.390625,-7.140625 h -1.3125 z m 0,0"
           id="path18" />
      </g>
    </g>
    <g
       style="fill:#cdad6c;fill-opacity:1"
       id="g22">
      <g
         transform="translate(141.18019,271.35845)"
         id="g21">
        <path
           style="stroke:none"
           d="M 1.0625,0 V -8.90625 H 4.875 c 0.675781,0 1.265625,0.125 1.765625,0.375 0.5,0.242188 0.882813,0.589844 1.15625,1.046875 0.269531,0.460937 0.40625,1.007813 0.40625,1.640625 0,0.65625 -0.152344,1.21875 -0.453125,1.6875 -0.292969,0.46875 -0.703125,0.824219 -1.234375,1.0625 L 8.359375,0 H 6.015625 L 4.421875,-2.765625 H 3.09375 V 0 Z m 2,-4.484375 h 1.546875 c 0.5,0 0.878906,-0.113281 1.140625,-0.34375 0.269531,-0.226563 0.40625,-0.5625 0.40625,-1 C 6.15625,-6.253906 6.019531,-6.582031 5.75,-6.8125 5.488281,-7.050781 5.109375,-7.171875 4.609375,-7.171875 H 3.0625 Z m 0,0"
           id="path20" />
      </g>
    </g>
    <g
       style="fill:#cdad6c;fill-opacity:1"
       id="g24">
      <g
         transform="translate(150.1315,271.35845)"
         id="g23">
        <path
           style="stroke:none"
           d="m 5.296875,0.171875 c -0.929687,0 -1.75,-0.1914062 -2.46875,-0.578125 -0.71875,-0.394531 -1.28125,-0.941406 -1.6875,-1.640625 -0.398437,-0.695313 -0.59375,-1.5 -0.59375,-2.40625 0,-0.90625 0.195313,-1.703125 0.59375,-2.390625 0.40625,-0.695312 0.96875,-1.242188 1.6875,-1.640625 0.71875,-0.394531 1.539063,-0.59375 2.46875,-0.59375 0.925781,0 1.742187,0.199219 2.453125,0.59375 0.71875,0.398437 1.28125,0.945313 1.6875,1.640625 0.40625,0.6875 0.609375,1.484375 0.609375,2.390625 0,0.90625 -0.203125,1.710937 -0.609375,2.40625 C 9.03125,-1.347656 8.46875,-0.800781 7.75,-0.40625 7.039062,-0.0195312 6.222656,0.171875 5.296875,0.171875 Z m -2.6875,-4.625 c 0,0.53125 0.113281,1.007813 0.34375,1.421875 0.226563,0.40625 0.539063,0.726562 0.9375,0.953125 0.40625,0.21875 0.875,0.328125 1.40625,0.328125 0.53125,0 0.992187,-0.109375 1.390625,-0.328125 C 7.09375,-2.304688 7.40625,-2.625 7.625,-3.03125 c 0.226562,-0.414062 0.34375,-0.890625 0.34375,-1.421875 0,-0.53125 -0.117188,-1 -0.34375,-1.40625 C 7.40625,-6.265625 7.09375,-6.582031 6.6875,-6.8125 6.289062,-7.039062 5.828125,-7.15625 5.296875,-7.15625 c -0.53125,0 -1,0.117188 -1.40625,0.34375 -0.398437,0.230469 -0.710937,0.546875 -0.9375,0.953125 -0.230469,0.40625 -0.34375,0.875 -0.34375,1.40625 z m 0,0"
           id="path22" />
      </g>
    </g>
    <g
       style="fill:#cdad6c;fill-opacity:1"
       id="g26">
      <g
         transform="translate(160.72302,271.35845)"
         id="g25">
        <path
           style="stroke:none"
           d="m 1.0625,0 v -8.90625 h 3.484375 c 0.726563,0 1.351563,0.136719 1.875,0.40625 0.53125,0.261719 0.941406,0.632812 1.234375,1.109375 0.289062,0.480469 0.4375,1.046875 0.4375,1.703125 0,0.648438 -0.148438,1.214844 -0.4375,1.703125 -0.292969,0.480469 -0.703125,0.851563 -1.234375,1.109375 -0.523437,0.261719 -1.148437,0.390625 -1.875,0.390625 H 3.09375 V 0 Z m 2.015625,-4.21875 h 1.3125 c 0.519531,0 0.921875,-0.125 1.203125,-0.375 0.289062,-0.25 0.4375,-0.609375 0.4375,-1.078125 C 6.03125,-6.140625 5.882812,-6.5 5.59375,-6.75 5.3125,-7.007812 4.910156,-7.140625 4.390625,-7.140625 h -1.3125 z m 0,0"
           id="path24" />
      </g>
    </g>
    <g
       style="fill:#cdad6c;fill-opacity:1"
       id="g28">
      <g
         transform="translate(169.17845,271.35845)"
         id="g27">
        <path
           style="stroke:none"
           d="m 1.0625,0 v -8.90625 h 5.859375 v 1.703125 h -3.84375 v 1.84375 h 3.5 v 1.703125 h -3.5 v 1.9375 H 7.0625 V 0 Z m 0,0"
           id="path26" />
      </g>
    </g>
    <g
       style="fill:#cdad6c;fill-opacity:1"
       id="g30">
      <g
         transform="translate(176.88368,271.35845)"
         id="g29">
        <path
           style="stroke:none"
           d="M 1.0625,0 V -8.90625 H 4.875 c 0.675781,0 1.265625,0.125 1.765625,0.375 0.5,0.242188 0.882813,0.589844 1.15625,1.046875 0.269531,0.460937 0.40625,1.007813 0.40625,1.640625 0,0.65625 -0.152344,1.21875 -0.453125,1.6875 -0.292969,0.46875 -0.703125,0.824219 -1.234375,1.0625 L 8.359375,0 H 6.015625 L 4.421875,-2.765625 H 3.09375 V 0 Z m 2,-4.484375 h 1.546875 c 0.5,0 0.878906,-0.113281 1.140625,-0.34375 0.269531,-0.226563 0.40625,-0.5625 0.40625,-1 C 6.15625,-6.253906 6.019531,-6.582031 5.75,-6.8125 5.488281,-7.050781 5.109375,-7.171875 4.609375,-7.171875 H 3.0625 Z m 0,0"
           id="path28" />
      </g>
    </g>
    <g
       style="fill:#cdad6c;fill-opacity:1"
       id="g32">
      <g
         transform="translate(185.83499,271.35845)"
         id="g31">
        <path
           style="stroke:none"
           d="M 3.203125,0 V -7.015625 H 0.375 V -8.90625 h 7.671875 v 1.890625 h -2.8125 V 0 Z m 0,0"
           id="path30" />
      </g>
    </g>
    <g
       style="fill:#cdad6c;fill-opacity:1"
       id="g34">
      <g
         transform="translate(194.26498,271.35845)"
         id="g33">
        <path
           style="stroke:none"
           d="M 3.390625,0 V -3.109375 L 0.109375,-8.90625 h 2.3125 l 1.09375,2.0625 0.890625,1.609375 0.890625,-1.609375 1.09375,-2.0625 H 8.6875 L 5.421875,-3.140625 V 0 Z m 0,0"
           id="path32" />
      </g>
    </g>
    <g
       style="fill:#cdad6c;fill-opacity:1"
       id="g36">
      <g
         transform="translate(203.0637,271.35845)"
         id="g35">
        <path
           style="stroke:none"
           d=""
           id="path34" />
      </g>
    </g>
    <g
       style="fill:#cdad6c;fill-opacity:1"
       id="g38">
      <g
         transform="translate(206.05171,271.35845)"
         id="g37">
        <path
           style="stroke:none"
           d="M 5.15625,0.171875 C 4.25,0.171875 3.445312,-0.0195312 2.75,-0.40625 2.0625,-0.800781 1.519531,-1.347656 1.125,-2.046875 c -0.386719,-0.695313 -0.578125,-1.5 -0.578125,-2.40625 0,-0.90625 0.191406,-1.703125 0.578125,-2.390625 0.394531,-0.695312 0.9375,-1.242188 1.625,-1.640625 0.695312,-0.394531 1.492188,-0.59375 2.390625,-0.59375 0.75,0 1.4375,0.148437 2.0625,0.4375 0.632813,0.28125 1.164063,0.6875 1.59375,1.21875 0.425781,0.523437 0.722656,1.136719 0.890625,1.84375 H 7.609375 C 7.429688,-6.066406 7.125,-6.453125 6.6875,-6.734375 6.257812,-7.015625 5.765625,-7.15625 5.203125,-7.15625 c -0.5,0 -0.949219,0.117188 -1.34375,0.34375 -0.398437,0.230469 -0.703125,0.546875 -0.921875,0.953125 -0.21875,0.40625 -0.328125,0.875 -0.328125,1.40625 0,0.53125 0.109375,1.007813 0.328125,1.421875 0.21875,0.40625 0.519531,0.726562 0.90625,0.953125 C 4.238281,-1.859375 4.6875,-1.75 5.1875,-1.75 c 0.582031,0 1.09375,-0.144531 1.53125,-0.4375 0.445312,-0.300781 0.765625,-0.707031 0.953125,-1.21875 H 9.75 c -0.148438,0.71875 -0.4375,1.351562 -0.875,1.890625 -0.429688,0.53125 -0.960938,0.949219 -1.59375,1.25 -0.636719,0.2890625 -1.34375,0.4375 -2.125,0.4375 z m 0,0"
           id="path36" />
      </g>
    </g>
    <g
       style="fill:#cdad6c;fill-opacity:1"
       id="g40">
      <g
         transform="translate(216.31265,271.35845)"
         id="g39">
        <path
           style="stroke:none"
           d="M 0.109375,0 3.65625,-8.90625 H 5.640625 L 9.171875,0 H 7.015625 L 6.40625,-1.53125 H 2.875 L 2.28125,0 Z m 3.28125,-3.125 H 5.90625 L 4.640625,-6.390625 Z m 0,0"
           id="path38" />
      </g>
    </g>
    <g
       style="fill:#cdad6c;fill-opacity:1"
       id="g42">
      <g
         transform="translate(225.59454,271.35845)"
         id="g41">
        <path
           style="stroke:none"
           d="M 1.0625,0 V -8.90625 H 4.875 c 0.675781,0 1.265625,0.125 1.765625,0.375 0.5,0.242188 0.882813,0.589844 1.15625,1.046875 0.269531,0.460937 0.40625,1.007813 0.40625,1.640625 0,0.65625 -0.152344,1.21875 -0.453125,1.6875 -0.292969,0.46875 -0.703125,0.824219 -1.234375,1.0625 L 8.359375,0 H 6.015625 L 4.421875,-2.765625 H 3.09375 V 0 Z m 2,-4.484375 h 1.546875 c 0.5,0 0.878906,-0.113281 1.140625,-0.34375 0.269531,-0.226563 0.40625,-0.5625 0.40625,-1 C 6.15625,-6.253906 6.019531,-6.582031 5.75,-6.8125 5.488281,-7.050781 5.109375,-7.171875 4.609375,-7.171875 H 3.0625 Z m 0,0"
           id="path40" />
      </g>
    </g>
    <g
       style="fill:#cdad6c;fill-opacity:1"
       id="g44">
      <g
         transform="translate(234.54585,271.35845)"
         id="g43">
        <path
           style="stroke:none"
           d="m 1.0625,0 v -8.90625 h 5.859375 v 1.703125 h -3.84375 v 1.84375 h 3.5 v 1.703125 h -3.5 v 1.9375 H 7.0625 V 0 Z m 0,0"
           id="path42" />
      </g>
    </g>
    <path
       style="fill:#043029;fill-opacity:1;fill-rule:evenodd;stroke:none"
       d="m 169.53516,124.80469 13.23828,9.44531 v 37.31641 L 172.25,169.3125 l -2.71484,2.53125 V 126.75 l -1.57422,1.11328 -10.125,7.19141 V 142 l -1.57422,-1.14453 V 134.25 Z m 0,0"
       id="path44" />
    <path
       style="fill:#cdad6c;fill-opacity:1;fill-rule:evenodd;stroke:none"
       d="m 148.73047,188.32812 c 0.0937,-1.57421 1.29687,-2.83984 2.83984,-2.99609 v 2.99609 z m 2.83984,3.36329 h -2.83984 v -2.6875 h 2.83984 z m 3.51953,-2.6875 v 2.6875 H 152.25 v -2.6875 z M 152.25,185.33203 c 1.54297,0.15625 2.74609,1.44922 2.83984,2.99609 H 152.25 Z m 61.17187,-0.46094 c 0.125,-2.10156 1.76172,-3.82812 3.82813,-4.04297 v 4.04297 z m 3.85938,4.56641 h -3.85938 v -3.60938 h 3.85938 z m 4.78516,-3.64063 v 3.60938 h -3.85938 v -3.60938 z m -3.85938,-4.96875 c 2.07031,0.21485 3.73438,1.94141 3.82813,4.04297 h -3.82813 z m -47.09766,-4.10546 c 0.0273,-0.80469 0.64454,-1.42188 1.44922,-1.51563 v 1.51563 z m 1.44922,1.69531 h -1.44922 v -1.35547 h 1.44922 z m 1.75782,-1.35547 v 1.35547 h -1.44922 v -1.35547 z m -1.41797,-1.85547 c 0.76953,0.0937 1.38672,0.74219 1.44922,1.51563 h -1.44922 z m 8.60937,5.55859 -1.60547,1.54297 -14.72265,-2.6875 7.5625,-7.03515 z m 50.0625,5.21485 -13.82422,-12.90235 -23.70703,22.10157 h -26.17187 l -15.95703,-14.87891 -7.71875,7.19141 c -0.39844,-0.67969 -0.76954,-1.35547 -1.14063,-2.03516 l 8.85938,-8.27344 11.85156,2.16016 8.94922,-8.36328 15.52734,3.33203 29.50781,-4.38281 14.90625,13.89062 c -0.33984,0.76953 -0.71093,1.44922 -1.08203,2.16016 z m -78.11719,-1.97656 v -0.0898 l 0.125,0.1211 c -0.0312,0 -0.0625,-0.0312 -0.125,-0.0312 z m 0,0"
       id="path45" />
    <path
       style="fill:#cdad6c;fill-opacity:1;fill-rule:evenodd;stroke:none"
       d="m 153.45312,140.79297 8.60938,6.14453 v 30.52344 l -8.60938,-1.57422 v -33.14844 l -1.57421,1.11328 -5.46485,3.88672 v 32.44141 l -1.54297,1.44922 V 146.9375 Z m 0,0"
       id="path46" />
    <g
       clip-rule="nonzero"
       clip-path="url(#9e46e3f632)"
       id="g47">
      <path
         style="fill:#cdad6c;fill-opacity:1;fill-rule:evenodd;stroke:none"
         d="m 190.64453,102.42969 13.27344,9.44531 v 14.62891 l -7.90235,7.03906 v 38.05469 l -5.37109,0.80078 -1.54297,0.0312 v -66.94531 l -10.125,7.1914 v 16.91406 l -1.57422,-1.10937 V 111.875 Z m 0,0"
         id="path47" />
    </g>
    <path
       style="fill:#043029;fill-opacity:1;fill-rule:evenodd;stroke:none"
       d="M 208.17578,124.80469 197.58984,134.25 v 37.00781 l 0.0625,0.0937 1.51172,-0.21875 v -36.17187 l 7.4375,-6.63672 1.57422,-1.41797 v 42.90234 l 10.09375,-1.51172 3.17969,2.96094 V 134.25 Z m 0,0"
       id="path48" />
    <g
       clip-rule="nonzero"
       clip-path="url(#8074530822)"
       id="g49">
      <path
         style="fill:#043029;fill-opacity:1;fill-rule:evenodd;stroke:none"
         d="m 187.43359,199.28516 c 12.16407,0 23.79688,0.83203 34.47657,2.34375 l -0.1211,-0.0312 c 0.92578,-0.80079 1.82031,-1.63672 2.6836,-2.5 9.47656,-9.47657 15.33984,-22.59375 15.33984,-37.03907 0,-14.47265 -5.86328,-27.5625 -15.33984,-37.03515 -4.66016,-4.66016 -10.1836,-8.42578 -16.32813,-11.08203 v -3.24219 c 6.94531,2.80859 13.21094,6.97656 18.42578,12.19531 10.03125,10.02734 16.20703,23.85547 16.20703,39.13672 0,15.27734 -6.20703,29.13281 -16.20703,39.13672 -0.33984,0.33594 -0.67578,0.64453 -1.01562,0.98437 13.30078,2.13282 24.9375,5.33985 34.13672,9.32422 -20.09375,-4.32422 -45.15625,-6.88281 -72.28907,-6.88281 -27.16015,0 -52.1914,2.55859 -72.28515,6.88281 9.19922,-3.98437 20.86718,-7.1914 34.13672,-9.32422 -0.33985,-0.33984 -0.67969,-0.64843 -1.01563,-0.98437 -10.03125,-10.03125 -16.20703,-23.85938 -16.20703,-39.13672 0,-15.28125 6.20312,-29.13672 16.20703,-39.13672 6.78906,-6.79297 15.30859,-11.82422 24.84375,-14.35547 v 3.08594 c -8.70312,2.47266 -16.51172,7.13281 -22.74609,13.36719 -9.47657,9.47656 -15.33985,22.5625 -15.33985,37.03906 0,14.47266 5.86328,27.5625 15.33985,37.03516 0.86328,0.86718 1.75781,1.69921 2.68359,2.5 l -0.12109,0.0312 c 10.73828,-1.48047 22.375,-2.3125 34.53515,-2.3125"
         id="path49" />
    </g>
    <g
       style="fill:#043029;fill-opacity:1"
       id="g61">
      <g
         transform="translate(135.09963,294.43064)"
         id="g60">
        <path
           style="stroke:none"
           d=""
           id="path59" />
      </g>
    </g>
    <g
       style="fill:#043029;fill-opacity:1"
       id="g67" />
    <g
       style="fill:#043029;fill-opacity:1"
       id="g81">
      <g
         transform="translate(195.11157,294.43064)"
         id="g80">
        <path
           style="stroke:none"
           d=""
           id="path79" />
      </g>
    </g>
    <g
       style="fill:#043029;fill-opacity:1"
       id="g89">
      <g
         transform="translate(220.40225,294.43064)"
         id="g88">
        <path
           style="stroke:none"
           d=""
           id="path87" />
      </g>
    </g>
  </g>
</svg>
