<svg xmlns="http://www.w3.org/2000/svg" xmlns:xlink="http://www.w3.org/1999/xlink" width="500" zoomAndPan="magnify" viewBox="0 0 375 374.999991" height="500" preserveAspectRatio="xMidYMid meet" version="1.2"><defs><clipPath id="b0761fb985"><path d="M 151.832031 110.246094 L 223 110.246094 L 223 202 L 151.832031 202 Z M 151.832031 110.246094 "/></clipPath></defs><g id="e2118d3918"><path style=" stroke:none;fill-rule:nonzero;fill:#ff914d;fill-opacity:1;" d="M 189.417969 197.800781 C 189.667969 194.363281 189.046875 190.855469 188.996094 187.417969 C 188.933594 183.027344 188.214844 178.679688 188.1875 174.292969 C 187.707031 174.273438 187.226562 174.257812 186.753906 174.257812 C 186.226562 174.257812 185.699219 174.257812 185.171875 174.246094 C 185.15625 174.289062 185.140625 174.328125 185.132812 174.371094 C 185.117188 174.421875 185.101562 174.46875 185.082031 174.519531 C 185.128906 174.667969 185.144531 174.820312 185.132812 174.976562 C 184.960938 177.011719 185.550781 179.078125 185.550781 181.125 C 185.550781 183.273438 185.5625 185.421875 185.550781 187.574219 C 185.527344 191.5 185.355469 195.421875 185.039062 199.34375 C 185.578125 199.34375 186.109375 199.34375 186.644531 199.328125 C 187.277344 199.316406 187.90625 199.265625 188.53125 199.179688 C 188.71875 199.15625 188.902344 199.117188 189.078125 199.0625 C 189.140625 199.042969 189.199219 199.019531 189.257812 198.992188 C 189.386719 198.851562 189.539062 198.746094 189.71875 198.679688 C 189.488281 198.429688 189.390625 198.136719 189.417969 197.800781 Z M 189.417969 197.800781 "/><path style=" stroke:none;fill-rule:nonzero;fill:#10b5b8;fill-opacity:1;" d="M 168.476562 123.570312 C 167.640625 123.59375 166.957031 123.824219 166.453125 124.546875 C 166.105469 125.039062 165.96875 125.585938 166.039062 126.183594 C 166.367188 126.300781 166.566406 126.53125 166.628906 126.878906 C 167.222656 129.324219 171.433594 128.050781 171.636719 125.925781 C 171.78125 124.386719 169.742188 123.527344 168.476562 123.570312 Z M 168.476562 123.570312 "/><path style=" stroke:none;fill-rule:nonzero;fill:#ff914d;fill-opacity:1;" d="M 181.761719 174.074219 C 180.90625 174.152344 179.894531 174.339844 178.984375 174.207031 C 178.949219 174.304688 178.914062 174.402344 178.886719 174.5 C 178.761719 174.949219 178.65625 175.398438 178.554688 175.851562 C 178.402344 176.605469 178.207031 177.347656 177.964844 178.074219 C 177.023438 180.71875 176.183594 183.410156 175.085938 185.996094 C 174.027344 188.492188 172.960938 190.957031 171.777344 193.398438 C 170.835938 195.34375 169.90625 197.296875 169.089844 199.296875 C 171.210938 199.265625 173.351562 199.230469 175.441406 199.566406 C 177.089844 194.957031 178.234375 190.203125 179.8125 185.574219 C 181.089844 181.820312 181.308594 177.765625 182.792969 174.078125 C 182.449219 174.050781 182.109375 174.046875 181.761719 174.074219 Z M 181.761719 174.074219 "/><path style=" stroke:none;fill-rule:nonzero;fill:#107173;fill-opacity:1;" d="M 181.183594 119.660156 C 179.257812 115.507812 174.539062 112.761719 170.015625 112.664062 C 165.351562 112.558594 161.691406 115.289062 159.148438 119.027344 C 157.558594 121.382812 156.363281 124.214844 156.0625 127.042969 C 155.796875 129.558594 156.277344 131.925781 157.503906 134.136719 C 157.605469 134.257812 157.679688 134.390625 157.726562 134.542969 C 157.878906 134.804688 158.039062 135.0625 158.210938 135.320312 C 158.351562 135.511719 158.417969 135.730469 158.414062 135.96875 C 159.3125 137.320312 160.761719 138.316406 162.203125 139.023438 C 164.125 139.964844 166.363281 140.71875 168.53125 140.695312 C 173.679688 140.636719 178.515625 137.40625 180.71875 132.761719 C 182.578125 128.84375 183.046875 123.664062 181.183594 119.660156 Z M 165.152344 128.992188 C 165.117188 128.960938 165.082031 128.925781 165.046875 128.890625 C 162.75 126.371094 163.960938 122.121094 167.414062 121.449219 C 169.953125 120.957031 173.5625 122.429688 173.835938 125.320312 C 174.246094 129.644531 167.484375 132.179688 165.152344 128.992188 Z M 165.152344 128.992188 "/><path style=" stroke:none;fill-rule:nonzero;fill:#10b5b8;fill-opacity:1;" d="M 199.265625 123.570312 C 198.429688 123.59375 197.746094 123.824219 197.242188 124.546875 C 196.894531 125.039062 196.757812 125.585938 196.828125 126.183594 C 197.15625 126.300781 197.355469 126.53125 197.417969 126.878906 C 198.015625 129.324219 202.238281 128.054688 202.4375 125.925781 C 202.574219 124.386719 200.535156 123.527344 199.265625 123.570312 Z M 199.265625 123.570312 "/><path style=" stroke:none;fill-rule:nonzero;fill:#107173;fill-opacity:1;" d="M 211.980469 119.660156 C 210.050781 115.507812 205.339844 112.761719 200.808594 112.664062 C 196.148438 112.558594 192.484375 115.289062 189.945312 119.027344 C 188.347656 121.382812 187.15625 124.214844 186.855469 127.042969 C 186.589844 129.558594 187.066406 131.925781 188.289062 134.140625 C 188.390625 134.257812 188.46875 134.394531 188.511719 134.542969 C 188.664062 134.808594 188.828125 135.066406 189 135.320312 C 189.140625 135.515625 189.207031 135.730469 189.199219 135.96875 C 190.101562 137.324219 191.550781 138.320312 192.992188 139.023438 C 194.914062 139.96875 197.152344 140.722656 199.320312 140.695312 C 204.46875 140.636719 209.304688 137.410156 211.507812 132.765625 C 213.371094 128.84375 213.839844 123.664062 211.980469 119.660156 Z M 195.945312 128.992188 C 195.910156 128.960938 195.875 128.925781 195.84375 128.890625 C 193.542969 126.371094 194.757812 122.121094 198.207031 121.449219 C 200.75 120.957031 204.355469 122.429688 204.628906 125.320312 C 205.039062 129.644531 198.277344 132.179688 195.945312 128.992188 Z M 195.945312 128.992188 "/><path style=" stroke:none;fill-rule:nonzero;fill:#107173;fill-opacity:1;" d="M 156.265625 151.195312 L 156.230469 151.195312 C 155.980469 151.21875 155.753906 151.160156 155.546875 151.019531 L 155.421875 151.019531 C 155.140625 151.03125 154.863281 151.054688 154.585938 151.078125 L 154.199219 151.121094 C 154.109375 151.867188 154.230469 152.617188 154.324219 153.367188 C 155.023438 153.328125 155.773438 153.316406 156.40625 153.507812 C 156.378906 152.742188 156.347656 151.964844 156.265625 151.195312 Z M 156.265625 151.195312 "/><path style=" stroke:none;fill-rule:nonzero;fill:#107173;fill-opacity:1;" d="M 207.808594 140.25 C 204.417969 142.511719 200.253906 143.484375 196.222656 142.523438 C 194.820312 142.191406 193.464844 141.71875 192.160156 141.105469 C 191.960938 141.382812 191.691406 141.511719 191.351562 141.496094 L 191.191406 141.496094 C 185.886719 141.496094 180.503906 141.226562 175.222656 141.898438 C 174.914062 141.949219 174.644531 141.871094 174.414062 141.664062 C 173 142.285156 171.527344 142.671875 169.992188 142.816406 C 168.457031 142.964844 166.933594 142.863281 165.429688 142.519531 C 163.785156 142.136719 162.210938 141.554688 160.710938 140.777344 C 160.226562 141.179688 159.410156 141.214844 159.042969 140.589844 C 158.953125 140.621094 158.867188 140.648438 158.78125 140.6875 C 158.640625 140.742188 158.511719 140.820312 158.394531 140.917969 C 157.914062 141.347656 157.480469 141.789062 157.347656 142.445312 C 157.074219 143.75 157.398438 144.957031 157.679688 146.226562 C 157.992188 147.617188 158.230469 149.023438 158.390625 150.441406 C 158.71875 153.445312 158.75 156.449219 158.480469 159.457031 C 158.277344 161.664062 157.605469 164.738281 160.253906 165.652344 C 162.429688 166.402344 164.902344 165.8125 167.113281 165.597656 C 173.511719 164.992188 179.820312 166.125 186.199219 166.351562 C 189.496094 166.46875 192.828125 166.375 196.121094 166.25 C 199.0625 166.140625 202.1875 166.386719 205.015625 165.441406 C 205.847656 164.929688 206.652344 164.273438 206.835938 163.257812 C 207.027344 162.199219 206.808594 161.121094 206.59375 160.078125 C 206.523438 159.824219 206.5625 159.582031 206.703125 159.359375 C 206.660156 159.320312 206.605469 159.261719 206.546875 159.199219 C 206.269531 158.992188 206.144531 158.714844 206.167969 158.367188 C 206.152344 158.28125 206.140625 158.195312 206.125 158.109375 C 206.007812 157.390625 205.898438 156.667969 205.824219 155.941406 C 205.667969 154.496094 205.589844 153.042969 205.582031 151.589844 C 205.578125 151.296875 205.671875 151.039062 205.867188 150.820312 C 206.058594 150.597656 206.300781 150.472656 206.59375 150.441406 C 207.113281 149.605469 208.09375 148.917969 209.03125 148.84375 C 209.097656 145.933594 209.269531 142.835938 207.808594 140.25 Z M 207.808594 140.25 "/><path style=" stroke:none;fill-rule:nonzero;fill:#107173;fill-opacity:1;" d="M 219.582031 139.542969 C 219.523438 139.578125 219.46875 139.613281 219.449219 139.628906 C 219.035156 139.9375 218.648438 140.277344 218.285156 140.640625 C 217.207031 141.699219 216.195312 142.820312 215.25 144 C 214.210938 145.246094 213.277344 146.570312 212.449219 147.964844 C 212.109375 148.53125 211.824219 149.121094 211.585938 149.734375 C 211.484375 150.019531 211.433594 150.3125 211.429688 150.613281 C 211.539062 151.671875 210.351562 152.027344 209.671875 151.578125 C 209.375 151.53125 209.148438 151.375 208.996094 151.121094 L 208.988281 151.101562 C 208.910156 151.148438 208.839844 151.199219 208.769531 151.253906 C 208.769531 151.253906 208.738281 151.289062 208.695312 151.332031 C 208.648438 151.375 208.582031 151.457031 208.53125 151.523438 C 208.53125 151.53125 208.511719 151.554688 208.488281 151.597656 C 208.34375 151.886719 208.117188 152.070312 207.804688 152.152344 C 207.84375 154.035156 208.011719 155.910156 208.3125 157.773438 C 208.359375 157.816406 208.398438 157.867188 208.4375 157.917969 C 208.484375 157.976562 208.523438 158.039062 208.554688 158.109375 C 209.640625 158.179688 209.542969 157.402344 209.457031 156.492188 C 209.347656 155.363281 209.15625 154.265625 209.230469 153.132812 C 209.328125 151.703125 211.507812 152.144531 211.414062 153.554688 C 211.3125 155.058594 211.957031 156.5625 211.636719 158.074219 C 211.554688 158.519531 211.375 158.925781 211.101562 159.285156 C 211.183594 159.296875 211.265625 159.3125 211.34375 159.335938 C 213.847656 160.121094 215.167969 162.382812 216.867188 164.1875 C 217.601562 164.972656 218.414062 165.863281 219.269531 166.511719 C 219.726562 166.855469 219.707031 166.769531 219.75 166.207031 C 219.785156 165.722656 219.734375 165.234375 219.726562 164.75 C 219.710938 164.378906 219.847656 164.078125 220.144531 163.847656 C 220.183594 159.804688 220.320312 155.773438 220.332031 151.734375 C 220.34375 147.71875 220.882812 143.394531 219.582031 139.542969 Z M 219.582031 139.542969 "/><path style=" stroke:none;fill-rule:nonzero;fill:#ff914d;fill-opacity:1;" d="M 199.449219 185.929688 C 197.304688 182.292969 195.679688 178.140625 192.808594 174.984375 C 192.597656 174.753906 192.492188 174.484375 192.5 174.175781 C 191.808594 174.292969 191.113281 174.351562 190.410156 174.351562 C 190.421875 175.140625 190.453125 175.929688 190.496094 176.71875 C 190.636719 176.703125 190.777344 176.71875 190.914062 176.761719 C 191.050781 176.804688 191.171875 176.871094 191.277344 176.964844 C 191.382812 177.058594 191.46875 177.171875 191.527344 177.300781 C 191.585938 177.429688 191.617188 177.566406 191.617188 177.710938 C 191.675781 178.945312 192.402344 180.046875 192.957031 181.121094 C 193.59375 182.367188 194.03125 183.691406 194.53125 184.992188 C 195.605469 187.8125 196.722656 190.609375 198.105469 193.292969 C 198.601562 194.230469 199.023438 195.203125 199.367188 196.207031 C 199.515625 196.65625 199.648438 197.113281 199.820312 197.554688 C 199.914062 197.808594 200.03125 198.054688 200.167969 198.289062 C 200.984375 198.410156 201.910156 197.789062 202.675781 197.566406 C 203.511719 197.359375 204.359375 197.269531 205.214844 197.296875 C 203.191406 193.554688 201.613281 189.589844 199.449219 185.929688 Z M 199.449219 185.929688 "/><path style=" stroke:none;fill-rule:nonzero;fill:#ff914d;fill-opacity:1;" d="M 193.082031 168.878906 C 193.015625 168.777344 192.964844 168.667969 192.929688 168.550781 C 191.003906 168.582031 189.089844 168.585938 187.152344 168.585938 C 184.179688 168.585938 181.230469 168.300781 178.28125 168.046875 C 178.339844 168.558594 178.386719 169.078125 178.453125 169.589844 C 178.507812 170.148438 178.617188 170.695312 178.785156 171.234375 C 178.835938 171.417969 178.910156 171.59375 179.007812 171.757812 C 179.085938 171.875 179.222656 171.960938 179.128906 171.960938 C 180.066406 172.121094 181.039062 171.851562 181.980469 171.828125 C 183.394531 171.792969 184.835938 172.027344 186.257812 172.027344 C 188.203125 172.027344 190.191406 172.285156 192.121094 171.976562 C 192.410156 171.957031 192.6875 171.882812 192.949219 171.75 C 192.890625 171.773438 193.019531 171.589844 193.035156 171.5 C 193.082031 171.277344 193.113281 171.050781 193.132812 170.820312 C 193.15625 170.171875 193.140625 169.523438 193.082031 168.878906 Z M 193.082031 168.878906 "/><path style=" stroke:none;fill-rule:nonzero;fill:#000000;fill-opacity:1;" d="M 204.628906 125.320312 C 204.355469 122.429688 200.75 120.957031 198.207031 121.449219 C 194.757812 122.121094 193.542969 126.371094 195.84375 128.890625 C 195.875 128.925781 195.910156 128.960938 195.945312 128.992188 C 198.277344 132.179688 205.039062 129.644531 204.628906 125.320312 Z M 202.433594 125.929688 C 202.230469 128.054688 198.015625 129.328125 197.421875 126.882812 C 197.359375 126.539062 197.164062 126.304688 196.832031 126.1875 C 196.765625 125.589844 196.902344 125.042969 197.25 124.550781 C 197.746094 123.828125 198.429688 123.597656 199.269531 123.574219 C 200.535156 123.527344 202.574219 124.386719 202.4375 125.925781 Z M 202.433594 125.929688 "/><g clip-rule="nonzero" clip-path="url(#b0761fb985)"><path style=" stroke:none;fill-rule:nonzero;fill:#000000;fill-opacity:1;" d="M 221.683594 138.804688 C 221.5625 138.398438 221.292969 138.160156 220.875 138.097656 C 220.828125 137.875 220.722656 137.6875 220.5625 137.53125 C 219.664062 136.617188 218.339844 137.640625 217.625 138.253906 C 216.304688 139.410156 215.09375 140.671875 213.984375 142.035156 C 213 143.210938 212.082031 144.4375 211.238281 145.71875 C 211.167969 143.375 210.847656 141.082031 209.621094 138.957031 C 209.605469 138.929688 209.589844 138.90625 209.574219 138.882812 C 216.140625 133.039062 217.695312 121.453125 211.332031 114.914062 C 208.738281 112.269531 204.863281 110.710938 201.207031 110.46875 C 197.753906 110.246094 194.488281 111.410156 191.835938 113.601562 C 188.703125 116.195312 186.558594 119.796875 185.320312 123.632812 C 184.675781 125.597656 184.453125 127.609375 184.65625 129.664062 C 184.859375 131.722656 185.46875 133.652344 186.484375 135.453125 C 186.996094 136.980469 187.984375 138.238281 189.21875 139.261719 C 185.550781 139.226562 181.855469 139.136719 178.199219 139.378906 L 178.214844 139.363281 C 185.253906 133.703125 187.074219 121.636719 180.53125 114.914062 C 177.945312 112.265625 174.070312 110.703125 170.421875 110.46875 C 166.972656 110.246094 163.703125 111.410156 161.050781 113.601562 C 157.910156 116.199219 155.765625 119.804688 154.527344 123.640625 C 153.878906 125.605469 153.65625 127.613281 153.859375 129.671875 C 154.0625 131.730469 154.671875 133.660156 155.691406 135.457031 C 156.136719 136.738281 156.855469 137.835938 157.847656 138.753906 C 157.273438 139.035156 156.753906 139.398438 156.292969 139.839844 C 154.527344 141.601562 154.929688 144.460938 155.5 146.617188 C 155.6875 147.339844 155.84375 148.078125 155.96875 148.824219 C 155.035156 148.667969 153.824219 148.96875 153.027344 148.980469 C 152.183594 148.996094 151.894531 149.765625 152.09375 150.394531 C 152.054688 150.492188 152.03125 150.59375 152.019531 150.695312 C 151.851562 152.035156 152.167969 153.304688 152.207031 154.632812 C 152.222656 155.265625 152.8125 155.667969 153.398438 155.65625 C 153.898438 155.648438 155.574219 155.28125 155.824219 155.777344 C 155.945312 156.042969 156.148438 156.214844 156.429688 156.285156 C 156.394531 157.519531 156.257812 158.746094 156.230469 159.976562 C 156.210938 161.242188 155.96875 162.480469 156.109375 163.746094 C 156.738281 169.40625 163.882812 168.109375 167.738281 167.789062 C 170.515625 167.554688 173.273438 167.667969 176.027344 167.875 C 176.261719 169.449219 176.164062 171.601562 177.039062 172.972656 C 176.449219 174.003906 176.324219 175.644531 176.109375 176.550781 C 175.515625 179.039062 174.457031 181.542969 173.527344 183.929688 C 171.40625 189.371094 168.460938 194.457031 166.453125 199.945312 C 166.15625 200.761719 166.628906 201.550781 167.535156 201.546875 C 170.332031 201.546875 173.171875 201.335938 175.929688 201.933594 C 176.375 202.03125 176.96875 201.785156 177.140625 201.339844 C 178.890625 196.644531 180.277344 191.835938 181.675781 187.027344 C 182.304688 184.855469 182.867188 182.707031 183.324219 180.492188 L 183.324219 180.507812 C 183.363281 182.664062 183.324219 184.824219 183.324219 186.980469 C 183.324219 191.402344 183.128906 195.816406 182.734375 200.226562 C 182.667969 200.984375 183.136719 201.542969 183.910156 201.546875 C 185.238281 201.546875 186.5625 201.585938 187.886719 201.484375 C 189.152344 201.390625 190.726562 201.222656 191.183594 199.84375 C 191.300781 199.550781 191.269531 199.273438 191.09375 199.011719 C 191.421875 198.851562 191.585938 198.589844 191.589844 198.226562 C 191.84375 194.691406 191.222656 191.148438 191.199219 187.617188 C 191.199219 185.742188 191.054688 183.875 190.898438 182.003906 C 191.539062 183.332031 192.023438 184.707031 192.554688 186.085938 C 193.183594 187.742188 193.839844 189.386719 194.542969 191.015625 C 195.203125 192.542969 196.039062 193.984375 196.6875 195.511719 C 197.398438 197.183594 197.726562 200.175781 199.921875 200.503906 C 201.058594 200.675781 202.183594 200.070312 203.226562 199.714844 C 203.949219 199.46875 204.902344 199.546875 205.652344 199.53125 C 206.367188 199.515625 207.066406 199.660156 207.578125 199.054688 C 207.710938 198.890625 207.789062 198.707031 207.816406 198.5 C 207.96875 198.226562 208 197.945312 207.910156 197.644531 C 207.832031 197.382812 207.703125 197.148438 207.523438 196.9375 C 205.253906 192.953125 203.570312 188.667969 201.269531 184.699219 C 199.074219 180.898438 197.3125 176.746094 194.363281 173.449219 C 195.605469 172.371094 195.375 170.179688 195.265625 168.507812 C 195.871094 168.492188 196.460938 168.472656 197.0625 168.449219 C 200.007812 168.328125 202.984375 168.5 205.816406 167.523438 C 205.9375 167.484375 206.046875 167.425781 206.148438 167.347656 C 207.398438 166.585938 208.460938 165.554688 208.878906 164.113281 C 209.242188 162.859375 209.101562 161.558594 208.855469 160.292969 C 209.289062 160.273438 209.703125 160.179688 210.105469 160.011719 C 210.0625 160.164062 210.050781 160.320312 210.070312 160.476562 C 210.089844 160.632812 210.140625 160.78125 210.214844 160.921875 C 210.292969 161.058594 210.394531 161.175781 210.515625 161.277344 C 210.640625 161.375 210.777344 161.445312 210.929688 161.492188 C 212.289062 161.917969 213.320312 163.375 214.1875 164.421875 C 215.09375 165.507812 216.085938 166.460938 217.070312 167.46875 C 217.988281 168.414062 219.347656 169.449219 220.695312 168.664062 C 221.558594 168.15625 221.851562 167.34375 221.9375 166.460938 C 222.226562 166.234375 222.367188 165.9375 222.359375 165.570312 C 222.359375 160.894531 222.539062 156.21875 222.558594 151.542969 C 222.570312 147.328125 223.058594 142.871094 221.683594 138.804688 Z M 154.324219 153.371094 C 154.230469 152.621094 154.109375 151.871094 154.199219 151.125 L 154.585938 151.085938 C 154.863281 151.058594 155.140625 151.035156 155.421875 151.023438 L 155.546875 151.023438 C 155.753906 151.164062 155.980469 151.222656 156.230469 151.199219 L 156.265625 151.199219 C 156.335938 151.972656 156.378906 152.75 156.40625 153.519531 C 155.773438 153.324219 155.023438 153.324219 154.324219 153.371094 Z M 189.203125 135.964844 C 189.207031 135.726562 189.140625 135.511719 189 135.316406 C 188.828125 135.0625 188.667969 134.804688 188.515625 134.539062 C 188.46875 134.390625 188.394531 134.253906 188.289062 134.136719 C 187.070312 131.921875 186.589844 129.558594 186.855469 127.042969 C 187.15625 124.214844 188.347656 121.371094 189.945312 119.023438 C 192.484375 115.292969 196.148438 112.554688 200.808594 112.660156 C 205.339844 112.757812 210.050781 115.507812 211.980469 119.65625 C 213.839844 123.660156 213.371094 128.839844 211.511719 132.757812 C 209.304688 137.410156 204.46875 140.632812 199.320312 140.691406 C 197.152344 140.714844 194.917969 139.960938 192.992188 139.019531 C 191.550781 138.316406 190.105469 137.320312 189.203125 135.964844 Z M 157.726562 134.550781 C 157.679688 134.398438 157.605469 134.265625 157.503906 134.144531 C 156.277344 131.929688 155.796875 129.5625 156.0625 127.042969 C 156.363281 124.214844 157.558594 121.382812 159.148438 119.027344 C 161.691406 115.292969 165.351562 112.558594 170.015625 112.664062 C 174.546875 112.761719 179.257812 115.507812 181.183594 119.660156 C 183.046875 123.664062 182.578125 128.84375 180.714844 132.761719 C 178.511719 137.410156 173.675781 140.632812 168.527344 140.691406 C 166.359375 140.71875 164.121094 139.964844 162.199219 139.019531 C 160.757812 138.316406 159.308594 137.320312 158.410156 135.964844 C 158.414062 135.726562 158.347656 135.511719 158.207031 135.316406 C 158.039062 135.0625 157.878906 134.804688 157.726562 134.539062 Z M 179.8125 185.578125 C 178.234375 190.207031 177.089844 194.960938 175.441406 199.570312 C 173.351562 199.234375 171.210938 199.269531 169.089844 199.300781 C 169.898438 197.300781 170.835938 195.347656 171.777344 193.402344 C 172.960938 190.960938 174.027344 188.496094 175.085938 186 C 176.183594 183.414062 177.023438 180.722656 177.964844 178.078125 C 178.207031 177.351562 178.402344 176.609375 178.554688 175.855469 C 178.65625 175.402344 178.757812 174.953125 178.886719 174.503906 C 178.914062 174.40625 178.949219 174.308594 178.984375 174.210938 C 179.894531 174.347656 180.90625 174.15625 181.761719 174.078125 C 182.105469 174.050781 182.449219 174.050781 182.792969 174.078125 C 181.308594 177.769531 181.089844 181.828125 179.8125 185.578125 Z M 189.257812 198.980469 C 189.199219 199.007812 189.140625 199.03125 189.078125 199.050781 C 188.902344 199.105469 188.71875 199.144531 188.53125 199.167969 C 187.90625 199.257812 187.277344 199.304688 186.644531 199.316406 C 186.109375 199.335938 185.578125 199.335938 185.039062 199.332031 C 185.355469 195.417969 185.527344 191.492188 185.550781 187.5625 C 185.566406 185.410156 185.550781 183.261719 185.550781 181.113281 C 185.550781 179.066406 184.960938 177.003906 185.132812 174.964844 C 185.144531 174.808594 185.128906 174.65625 185.082031 174.507812 C 185.101562 174.460938 185.117188 174.410156 185.132812 174.359375 C 185.140625 174.316406 185.15625 174.277344 185.171875 174.238281 C 185.699219 174.238281 186.226562 174.238281 186.753906 174.246094 C 187.226562 174.246094 187.707031 174.261719 188.1875 174.28125 C 188.214844 178.671875 188.929688 183.019531 188.996094 187.40625 C 189.046875 190.84375 189.667969 194.359375 189.417969 197.789062 C 189.390625 198.128906 189.488281 198.421875 189.71875 198.667969 C 189.539062 198.734375 189.386719 198.839844 189.257812 198.980469 Z M 186.265625 172.027344 C 184.851562 172.027344 183.402344 171.792969 181.988281 171.824219 C 181.046875 171.847656 180.074219 172.117188 179.136719 171.957031 C 179.230469 171.957031 179.09375 171.871094 179.015625 171.757812 C 178.917969 171.589844 178.84375 171.414062 178.792969 171.230469 C 178.625 170.695312 178.515625 170.148438 178.460938 169.589844 C 178.394531 169.074219 178.347656 168.558594 178.289062 168.042969 C 181.238281 168.300781 184.191406 168.585938 187.160156 168.585938 C 189.085938 168.585938 191.011719 168.585938 192.9375 168.550781 C 192.972656 168.667969 193.023438 168.777344 193.089844 168.878906 C 193.148438 169.523438 193.164062 170.167969 193.140625 170.816406 C 193.125 171.046875 193.089844 171.273438 193.042969 171.496094 C 193.027344 171.585938 192.902344 171.769531 192.960938 171.746094 C 192.699219 171.878906 192.421875 171.953125 192.128906 171.972656 C 190.191406 172.285156 188.203125 172.027344 186.265625 172.027344 Z M 199.457031 185.929688 C 201.621094 189.589844 203.199219 193.554688 205.222656 197.289062 C 204.367188 197.261719 203.519531 197.351562 202.683594 197.558594 C 201.917969 197.78125 200.992188 198.402344 200.175781 198.28125 C 200.039062 198.046875 199.921875 197.800781 199.828125 197.546875 C 199.65625 197.105469 199.523438 196.648438 199.375 196.199219 C 199.03125 195.195312 198.609375 194.222656 198.113281 193.285156 C 196.730469 190.597656 195.613281 187.804688 194.539062 184.984375 C 194.039062 183.683594 193.601562 182.355469 192.964844 181.113281 C 192.410156 180.039062 191.6875 178.9375 191.628906 177.703125 C 191.625 177.558594 191.59375 177.421875 191.535156 177.292969 C 191.476562 177.164062 191.390625 177.050781 191.285156 176.957031 C 191.179688 176.863281 191.058594 176.796875 190.921875 176.753906 C 190.785156 176.710938 190.648438 176.695312 190.503906 176.710938 C 190.460938 175.921875 190.429688 175.132812 190.417969 174.339844 C 191.121094 174.34375 191.816406 174.285156 192.507812 174.164062 C 192.5 174.476562 192.605469 174.746094 192.816406 174.972656 C 195.679688 178.140625 197.304688 182.289062 199.449219 185.929688 Z M 206.597656 150.441406 C 206.308594 150.472656 206.066406 150.601562 205.871094 150.820312 C 205.679688 151.039062 205.582031 151.296875 205.589844 151.589844 C 205.589844 153.046875 205.667969 154.503906 205.816406 155.953125 C 205.894531 156.679688 206 157.402344 206.121094 158.121094 C 206.132812 158.207031 206.144531 158.292969 206.160156 158.378906 C 206.136719 158.726562 206.265625 159.003906 206.542969 159.210938 C 206.597656 159.269531 206.65625 159.328125 206.699219 159.371094 C 206.554688 159.59375 206.519531 159.832031 206.585938 160.089844 C 206.804688 161.128906 207.019531 162.207031 206.828125 163.265625 C 206.648438 164.277344 205.84375 164.9375 205.011719 165.453125 C 202.179688 166.398438 199.0625 166.148438 196.113281 166.261719 C 192.820312 166.382812 189.488281 166.480469 186.195312 166.363281 C 179.8125 166.136719 173.507812 164.996094 167.109375 165.609375 C 164.886719 165.808594 162.425781 166.417969 160.246094 165.664062 C 157.597656 164.75 158.273438 161.671875 158.472656 159.464844 C 158.742188 156.460938 158.714844 153.453125 158.386719 150.453125 C 158.226562 149.035156 157.988281 147.628906 157.671875 146.234375 C 157.394531 144.96875 157.066406 143.757812 157.339844 142.457031 C 157.476562 141.800781 157.910156 141.359375 158.386719 140.925781 C 158.503906 140.832031 158.632812 140.753906 158.773438 140.695312 C 158.859375 140.660156 158.949219 140.628906 159.035156 140.601562 C 159.40625 141.226562 160.222656 141.199219 160.707031 140.785156 C 162.207031 141.566406 163.777344 142.148438 165.425781 142.53125 C 166.929688 142.875 168.449219 142.972656 169.984375 142.828125 C 171.519531 142.679688 172.996094 142.296875 174.40625 141.671875 C 174.640625 141.878906 174.910156 141.960938 175.214844 141.910156 C 180.488281 141.234375 185.875 141.503906 191.1875 141.503906 L 191.347656 141.503906 C 191.6875 141.523438 191.957031 141.394531 192.15625 141.117188 C 193.460938 141.730469 194.816406 142.199219 196.21875 142.53125 C 200.25 143.492188 204.414062 142.53125 207.804688 140.257812 C 209.261719 142.847656 209.089844 145.945312 209.015625 148.855469 C 208.097656 148.921875 207.113281 149.605469 206.589844 150.441406 Z M 220.347656 151.714844 C 220.332031 155.757812 220.199219 159.789062 220.15625 163.828125 C 219.863281 164.058594 219.722656 164.359375 219.742188 164.730469 C 219.742188 165.214844 219.800781 165.703125 219.765625 166.1875 C 219.722656 166.75 219.742188 166.832031 219.285156 166.488281 C 218.429688 165.84375 217.613281 164.953125 216.882812 164.167969 C 215.179688 162.347656 213.859375 160.09375 211.359375 159.316406 C 211.28125 159.292969 211.199219 159.277344 211.117188 159.265625 C 211.390625 158.902344 211.570312 158.5 211.652344 158.054688 C 211.96875 156.542969 211.324219 155.039062 211.429688 153.535156 C 211.523438 152.121094 209.34375 151.679688 209.246094 153.109375 C 209.167969 154.246094 209.363281 155.34375 209.46875 156.472656 C 209.558594 157.390625 209.65625 158.167969 208.566406 158.089844 C 208.535156 158.019531 208.496094 157.957031 208.453125 157.898438 C 208.414062 157.847656 208.371094 157.796875 208.324219 157.753906 C 208.027344 155.894531 207.855469 154.023438 207.816406 152.136719 C 208.128906 152.058594 208.359375 151.875 208.503906 151.585938 C 208.527344 151.542969 208.539062 151.519531 208.542969 151.507812 C 208.597656 151.445312 208.652344 151.378906 208.707031 151.320312 C 208.765625 151.257812 208.777344 151.25 208.785156 151.242188 C 208.855469 151.1875 208.925781 151.136719 209 151.089844 L 209.011719 151.105469 C 209.164062 151.363281 209.386719 151.519531 209.683594 151.566406 C 210.367188 152.023438 211.550781 151.660156 211.445312 150.601562 C 211.449219 150.300781 211.5 150.007812 211.597656 149.722656 C 211.835938 149.109375 212.125 148.519531 212.464844 147.953125 C 213.292969 146.558594 214.226562 145.234375 215.265625 143.988281 C 216.210938 142.808594 217.222656 141.6875 218.296875 140.628906 C 218.664062 140.261719 219.050781 139.925781 219.460938 139.617188 C 219.484375 139.601562 219.539062 139.566406 219.597656 139.53125 C 220.882812 143.394531 220.34375 147.71875 220.332031 151.707031 Z M 220.347656 151.714844 "/></g><path style=" stroke:none;fill-rule:nonzero;fill:#000000;fill-opacity:1;" d="M 173.835938 125.320312 C 173.5625 122.429688 169.953125 120.957031 167.414062 121.449219 C 163.960938 122.121094 162.75 126.371094 165.046875 128.890625 C 165.082031 128.925781 165.117188 128.960938 165.152344 128.992188 C 167.484375 132.179688 174.246094 129.644531 173.835938 125.320312 Z M 171.636719 125.929688 C 171.433594 128.054688 167.222656 129.328125 166.628906 126.882812 C 166.566406 126.539062 166.371094 126.304688 166.039062 126.1875 C 165.96875 125.589844 166.109375 125.042969 166.457031 124.550781 C 166.949219 123.828125 167.632812 123.597656 168.476562 123.574219 C 169.742188 123.527344 171.78125 124.386719 171.636719 125.925781 Z M 171.636719 125.929688 "/><g style="fill:#000000;fill-opacity:1;"><g transform="translate(37.967604, 236.719408)"><path style="stroke:none" d="M 13.6875 -20.640625 C 14.238281 -20.578125 14.6875 -20.367188 15.03125 -20.015625 C 15.375 -19.671875 15.601562 -19.269531 15.71875 -18.8125 C 15.84375 -18.351562 15.84375 -17.90625 15.71875 -17.46875 C 15.601562 -17.039062 15.375 -16.695312 15.03125 -16.4375 C 14.6875 -16.175781 14.238281 -16.085938 13.6875 -16.171875 C 12.738281 -16.285156 11.773438 -16.375 10.796875 -16.4375 C 10.660156 -14.238281 10.523438 -12.046875 10.390625 -9.859375 C 10.265625 -7.679688 10.128906 -5.503906 9.984375 -3.328125 C 9.960938 -2.742188 9.785156 -2.273438 9.453125 -1.921875 C 9.128906 -1.578125 8.742188 -1.347656 8.296875 -1.234375 C 7.847656 -1.128906 7.398438 -1.128906 6.953125 -1.234375 C 6.515625 -1.347656 6.15625 -1.578125 5.875 -1.921875 C 5.59375 -2.273438 5.460938 -2.742188 5.484375 -3.328125 C 5.628906 -5.503906 5.765625 -7.691406 5.890625 -9.890625 C 6.023438 -12.097656 6.160156 -14.289062 6.296875 -16.46875 C 5.398438 -16.445312 4.519531 -16.390625 3.65625 -16.296875 C 3.082031 -16.253906 2.617188 -16.363281 2.265625 -16.625 C 1.910156 -16.882812 1.675781 -17.234375 1.5625 -17.671875 C 1.457031 -18.109375 1.460938 -18.554688 1.578125 -19.015625 C 1.703125 -19.472656 1.9375 -19.867188 2.28125 -20.203125 C 2.625 -20.535156 3.082031 -20.734375 3.65625 -20.796875 C 7 -21.128906 10.34375 -21.078125 13.6875 -20.640625 Z M 13.6875 -20.640625 "/></g></g><g style="fill:#000000;fill-opacity:1;"><g transform="translate(55.265223, 236.719408)"><path style="stroke:none" d="M 12.875 -20.96875 C 12.96875 -21.53125 13.191406 -21.941406 13.546875 -22.203125 C 13.910156 -22.460938 14.316406 -22.59375 14.765625 -22.59375 C 15.222656 -22.59375 15.65625 -22.472656 16.0625 -22.234375 C 16.476562 -21.992188 16.800781 -21.660156 17.03125 -21.234375 C 17.257812 -20.816406 17.3125 -20.328125 17.1875 -19.765625 C 16.101562 -14.242188 15.363281 -8.6875 14.96875 -3.09375 C 14.925781 -2.53125 14.738281 -2.070312 14.40625 -1.71875 C 14.082031 -1.375 13.691406 -1.140625 13.234375 -1.015625 C 12.773438 -0.898438 12.328125 -0.898438 11.890625 -1.015625 C 11.460938 -1.140625 11.109375 -1.367188 10.828125 -1.703125 C 10.546875 -2.046875 10.425781 -2.507812 10.46875 -3.09375 C 10.53125 -4.03125 10.601562 -4.96875 10.6875 -5.90625 C 10.78125 -6.84375 10.878906 -7.785156 10.984375 -8.734375 L 6.875 -8.734375 C 6.726562 -7.535156 6.582031 -6.335938 6.4375 -5.140625 C 6.300781 -3.953125 6.164062 -2.769531 6.03125 -1.59375 C 5.945312 -1.007812 5.734375 -0.546875 5.390625 -0.203125 C 5.054688 0.128906 4.660156 0.347656 4.203125 0.453125 C 3.742188 0.566406 3.289062 0.566406 2.84375 0.453125 C 2.40625 0.347656 2.054688 0.128906 1.796875 -0.203125 C 1.535156 -0.546875 1.445312 -1.007812 1.53125 -1.59375 C 1.707031 -3.226562 1.894531 -4.867188 2.09375 -6.515625 C 2.300781 -8.171875 2.492188 -9.828125 2.671875 -11.484375 C 2.765625 -12.265625 2.859375 -13.054688 2.953125 -13.859375 C 3.046875 -14.660156 3.140625 -15.460938 3.234375 -16.265625 C 3.316406 -16.960938 3.382812 -17.703125 3.4375 -18.484375 C 3.488281 -19.265625 3.644531 -19.984375 3.90625 -20.640625 C 4.101562 -21.179688 4.40625 -21.578125 4.8125 -21.828125 C 5.226562 -22.078125 5.671875 -22.195312 6.140625 -22.1875 C 6.609375 -22.175781 7.039062 -22.054688 7.4375 -21.828125 C 7.84375 -21.597656 8.128906 -21.28125 8.296875 -20.875 C 8.460938 -20.476562 8.4375 -20 8.21875 -19.4375 C 7.976562 -18.800781 7.835938 -18.097656 7.796875 -17.328125 C 7.753906 -16.554688 7.695312 -15.832031 7.625 -15.15625 C 7.582031 -14.832031 7.539062 -14.507812 7.5 -14.1875 C 7.457031 -13.863281 7.414062 -13.546875 7.375 -13.234375 L 11.546875 -13.234375 C 11.722656 -14.515625 11.921875 -15.800781 12.140625 -17.09375 C 12.367188 -18.394531 12.613281 -19.6875 12.875 -20.96875 Z M 12.875 -20.96875 "/></g></g><g style="fill:#000000;fill-opacity:1;"><g transform="translate(74.001807, 236.719408)"><path style="stroke:none" d="M 17.0625 -2.8125 C 17.40625 -2.332031 17.546875 -1.878906 17.484375 -1.453125 C 17.429688 -1.023438 17.242188 -0.648438 16.921875 -0.328125 C 16.597656 -0.00390625 16.210938 0.21875 15.765625 0.34375 C 15.316406 0.476562 14.859375 0.476562 14.390625 0.34375 C 13.921875 0.21875 13.515625 -0.078125 13.171875 -0.546875 C 12.265625 -1.785156 11.253906 -2.921875 10.140625 -3.953125 C 9.035156 -4.992188 7.84375 -5.9375 6.5625 -6.78125 C 6.46875 -5.601562 6.375 -4.414062 6.28125 -3.21875 C 6.195312 -2.03125 6.101562 -0.847656 6 0.328125 C 5.957031 0.910156 5.769531 1.367188 5.4375 1.703125 C 5.113281 2.046875 4.71875 2.273438 4.25 2.390625 C 3.789062 2.515625 3.347656 2.519531 2.921875 2.40625 C 2.492188 2.300781 2.140625 2.070312 1.859375 1.71875 C 1.578125 1.375 1.457031 0.910156 1.5 0.328125 C 1.675781 -1.847656 1.8125 -4.066406 1.90625 -6.328125 C 2.007812 -8.585938 2.285156 -10.796875 2.734375 -12.953125 C 2.953125 -14.078125 3.359375 -15.160156 3.953125 -16.203125 C 4.554688 -17.242188 5.320312 -18.101562 6.25 -18.78125 C 7.1875 -19.457031 8.273438 -19.828125 9.515625 -19.890625 C 10.367188 -19.929688 11.179688 -19.769531 11.953125 -19.40625 C 12.722656 -19.050781 13.378906 -18.550781 13.921875 -17.90625 C 14.460938 -17.269531 14.828125 -16.550781 15.015625 -15.75 C 15.203125 -14.945312 15.15625 -14.117188 14.875 -13.265625 C 14.59375 -12.398438 14.132812 -11.585938 13.5 -10.828125 C 12.875 -10.066406 12.15625 -9.40625 11.34375 -8.84375 C 13.476562 -7.101562 15.382812 -5.09375 17.0625 -2.8125 Z M 9.03125 -12.8125 C 9.144531 -12.925781 9.34375 -13.109375 9.625 -13.359375 C 9.90625 -13.609375 10.15625 -13.875 10.375 -14.15625 C 10.59375 -14.4375 10.6875 -14.65625 10.65625 -14.8125 C 10.570312 -15.238281 10.414062 -15.46875 10.1875 -15.5 C 9.957031 -15.539062 9.695312 -15.476562 9.40625 -15.3125 C 9.113281 -15.144531 8.828125 -14.914062 8.546875 -14.625 C 8.265625 -14.332031 8.023438 -14.054688 7.828125 -13.796875 C 7.628906 -13.535156 7.5 -13.347656 7.4375 -13.234375 C 7.28125 -12.773438 7.140625 -12.273438 7.015625 -11.734375 C 7.421875 -11.785156 7.78125 -11.90625 8.09375 -12.09375 C 8.414062 -12.289062 8.726562 -12.53125 9.03125 -12.8125 Z M 9.03125 -12.8125 "/></g></g><g style="fill:#000000;fill-opacity:1;"><g transform="translate(92.978234, 236.719408)"><path style="stroke:none" d="M 2.84375 -18.484375 C 2.90625 -19.035156 3.101562 -19.484375 3.4375 -19.828125 C 3.78125 -20.171875 4.179688 -20.398438 4.640625 -20.515625 C 5.109375 -20.640625 5.5625 -20.644531 6 -20.53125 C 6.4375 -20.425781 6.785156 -20.195312 7.046875 -19.84375 C 7.304688 -19.488281 7.40625 -19.035156 7.34375 -18.484375 C 6.769531 -13.054688 6.320312 -7.625 6 -2.1875 C 5.957031 -1.601562 5.773438 -1.132812 5.453125 -0.78125 C 5.140625 -0.4375 4.753906 -0.207031 4.296875 -0.09375 C 3.847656 0.0078125 3.40625 0.0078125 2.96875 -0.09375 C 2.53125 -0.207031 2.164062 -0.4375 1.875 -0.78125 C 1.582031 -1.132812 1.457031 -1.601562 1.5 -2.1875 C 1.820312 -7.625 2.269531 -13.054688 2.84375 -18.484375 Z M 2.84375 -18.484375 "/></g></g><g style="fill:#000000;fill-opacity:1;"><g transform="translate(101.851888, 236.719408)"><path style="stroke:none" d="M 13.140625 -15.90625 C 13.335938 -16.4375 13.644531 -16.820312 14.0625 -17.0625 C 14.488281 -17.3125 14.9375 -17.429688 15.40625 -17.421875 C 15.875 -17.410156 16.300781 -17.285156 16.6875 -17.046875 C 17.082031 -16.816406 17.363281 -16.503906 17.53125 -16.109375 C 17.707031 -15.710938 17.691406 -15.242188 17.484375 -14.703125 C 15.628906 -9.765625 13.550781 -4.960938 11.25 -0.296875 C 10.988281 0.242188 10.601562 0.582031 10.09375 0.71875 C 9.582031 0.863281 9.070312 0.835938 8.5625 0.640625 C 8.050781 0.453125 7.65625 0.140625 7.375 -0.296875 C 6.375 -1.835938 5.550781 -3.488281 4.90625 -5.25 C 4.257812 -7.007812 3.6875 -8.796875 3.1875 -10.609375 C 2.6875 -12.429688 2.164062 -14.207031 1.625 -15.9375 C 1.4375 -16.488281 1.4375 -16.96875 1.625 -17.375 C 1.820312 -17.789062 2.117188 -18.113281 2.515625 -18.34375 C 2.921875 -18.570312 3.351562 -18.6875 3.8125 -18.6875 C 4.269531 -18.6875 4.695312 -18.5625 5.09375 -18.3125 C 5.5 -18.0625 5.78125 -17.664062 5.9375 -17.125 C 6.476562 -15.425781 6.992188 -13.664062 7.484375 -11.84375 C 7.972656 -10.03125 8.554688 -8.265625 9.234375 -6.546875 C 9.941406 -8.078125 10.617188 -9.625 11.265625 -11.1875 C 11.910156 -12.75 12.535156 -14.320312 13.140625 -15.90625 Z M 13.140625 -15.90625 "/></g></g><g style="fill:#000000;fill-opacity:1;"><g transform="translate(120.978213, 236.719408)"><path style="stroke:none" d="M 12.515625 -6.328125 C 13.085938 -6.304688 13.550781 -6.132812 13.90625 -5.8125 C 14.257812 -5.5 14.488281 -5.113281 14.59375 -4.65625 C 14.707031 -4.207031 14.707031 -3.765625 14.59375 -3.328125 C 14.488281 -2.890625 14.257812 -2.523438 13.90625 -2.234375 C 13.550781 -1.941406 13.085938 -1.804688 12.515625 -1.828125 C 11.148438 -1.890625 9.785156 -1.882812 8.421875 -1.8125 C 7.066406 -1.738281 5.707031 -1.59375 4.34375 -1.375 C 3.925781 -1.320312 3.488281 -1.367188 3.03125 -1.515625 C 2.570312 -1.660156 2.1875 -1.90625 1.875 -2.25 C 1.5625 -2.59375 1.445312 -3.03125 1.53125 -3.5625 C 1.875 -6.320312 2.25 -9.082031 2.65625 -11.84375 C 3.0625 -14.601562 3.503906 -17.363281 3.984375 -20.125 C 4.046875 -20.46875 4.164062 -20.757812 4.34375 -21 C 4.507812 -21.28125 4.738281 -21.515625 5.03125 -21.703125 C 5.332031 -21.890625 5.707031 -21.992188 6.15625 -22.015625 C 8.3125 -22.078125 10.46875 -22.039062 12.625 -21.90625 C 13.207031 -21.863281 13.671875 -21.675781 14.015625 -21.34375 C 14.367188 -21.007812 14.597656 -20.617188 14.703125 -20.171875 C 14.816406 -19.722656 14.816406 -19.28125 14.703125 -18.84375 C 14.597656 -18.40625 14.367188 -18.046875 14.015625 -17.765625 C 13.671875 -17.484375 13.207031 -17.363281 12.625 -17.40625 C 11.144531 -17.5 9.632812 -17.546875 8.09375 -17.546875 C 8 -16.972656 7.898438 -16.394531 7.796875 -15.8125 C 7.703125 -15.226562 7.613281 -14.644531 7.53125 -14.0625 C 8.351562 -14.050781 9.144531 -14.003906 9.90625 -13.921875 C 10.5 -13.859375 11.019531 -13.628906 11.46875 -13.234375 C 11.925781 -12.847656 12.15625 -12.328125 12.15625 -11.671875 C 12.15625 -11.285156 12.046875 -10.910156 11.828125 -10.546875 C 11.617188 -10.191406 11.34375 -9.90625 11 -9.6875 C 10.664062 -9.46875 10.300781 -9.378906 9.90625 -9.421875 C 8.882812 -9.515625 7.863281 -9.5625 6.84375 -9.5625 C 6.757812 -9.007812 6.675781 -8.441406 6.59375 -7.859375 C 6.519531 -7.273438 6.441406 -6.707031 6.359375 -6.15625 C 7.378906 -6.25 8.398438 -6.3125 9.421875 -6.34375 C 10.441406 -6.375 11.472656 -6.367188 12.515625 -6.328125 Z M 12.515625 -6.328125 "/></g></g><g style="fill:#000000;fill-opacity:1;"><g transform="translate(137.256557, 236.719408)"><path style="stroke:none" d=""/></g></g><g style="fill:#000000;fill-opacity:1;"><g transform="translate(146.37003, 236.719408)"><path style="stroke:none" d="M 12.515625 -6.359375 C 13.085938 -6.335938 13.550781 -6.171875 13.90625 -5.859375 C 14.257812 -5.554688 14.488281 -5.175781 14.59375 -4.71875 C 14.707031 -4.269531 14.707031 -3.820312 14.59375 -3.375 C 14.488281 -2.925781 14.257812 -2.554688 13.90625 -2.265625 C 13.550781 -1.972656 13.085938 -1.847656 12.515625 -1.890625 C 11.148438 -1.929688 9.785156 -1.921875 8.421875 -1.859375 C 7.066406 -1.796875 5.707031 -1.65625 4.34375 -1.4375 C 3.925781 -1.351562 3.488281 -1.382812 3.03125 -1.53125 C 2.570312 -1.6875 2.1875 -1.9375 1.875 -2.28125 C 1.5625 -2.625 1.445312 -3.0625 1.53125 -3.59375 C 1.875 -6.375 2.25 -9.144531 2.65625 -11.90625 C 3.0625 -14.664062 3.503906 -17.414062 3.984375 -20.15625 C 4.046875 -20.5 4.164062 -20.800781 4.34375 -21.0625 C 4.507812 -21.34375 4.738281 -21.570312 5.03125 -21.75 C 5.332031 -21.925781 5.707031 -22.023438 6.15625 -22.046875 C 8.3125 -22.128906 10.46875 -22.09375 12.625 -21.9375 C 13.207031 -21.894531 13.671875 -21.707031 14.015625 -21.375 C 14.367188 -21.039062 14.597656 -20.648438 14.703125 -20.203125 C 14.816406 -19.753906 14.816406 -19.304688 14.703125 -18.859375 C 14.597656 -18.421875 14.367188 -18.0625 14.015625 -17.78125 C 13.671875 -17.507812 13.207031 -17.394531 12.625 -17.4375 C 11.144531 -17.53125 9.632812 -17.578125 8.09375 -17.578125 C 8 -16.992188 7.898438 -16.410156 7.796875 -15.828125 C 7.703125 -15.253906 7.613281 -14.675781 7.53125 -14.09375 C 8.351562 -14.070312 9.144531 -14.035156 9.90625 -13.984375 C 10.5 -13.898438 11.019531 -13.664062 11.46875 -13.28125 C 11.925781 -12.90625 12.15625 -12.390625 12.15625 -11.734375 C 12.15625 -11.347656 12.046875 -10.972656 11.828125 -10.609375 C 11.617188 -10.253906 11.34375 -9.96875 11 -9.75 C 10.664062 -9.53125 10.300781 -9.441406 9.90625 -9.484375 C 8.882812 -9.578125 7.863281 -9.613281 6.84375 -9.59375 C 6.757812 -9.039062 6.675781 -8.476562 6.59375 -7.90625 C 6.519531 -7.332031 6.441406 -6.757812 6.359375 -6.1875 C 7.378906 -6.28125 8.398438 -6.347656 9.421875 -6.390625 C 10.441406 -6.429688 11.472656 -6.421875 12.515625 -6.359375 Z M 12.515625 -6.359375 "/></g></g><g style="fill:#000000;fill-opacity:1;"><g transform="translate(162.648375, 236.719408)"><path style="stroke:none" d="M 15.546875 -13.109375 C 15.597656 -11.128906 15.644531 -9.140625 15.6875 -7.140625 C 15.726562 -5.140625 15.78125 -3.140625 15.84375 -1.140625 C 15.863281 -0.554688 15.722656 -0.09375 15.421875 0.25 C 15.117188 0.601562 14.75 0.832031 14.3125 0.9375 C 13.875 1.050781 13.425781 1.050781 12.96875 0.9375 C 12.519531 0.832031 12.140625 0.601562 11.828125 0.25 C 11.523438 -0.09375 11.363281 -0.554688 11.34375 -1.140625 C 11.320312 -1.742188 11.304688 -2.335938 11.296875 -2.921875 C 11.285156 -3.515625 11.269531 -4.109375 11.25 -4.703125 L 6.75 -4.890625 C 6.59375 -4.128906 6.441406 -3.375 6.296875 -2.625 C 6.160156 -1.875 6.019531 -1.117188 5.875 -0.359375 C 5.78125 0.222656 5.554688 0.644531 5.203125 0.90625 C 4.859375 1.164062 4.453125 1.289062 3.984375 1.28125 C 3.523438 1.269531 3.085938 1.144531 2.671875 0.90625 C 2.265625 0.675781 1.945312 0.351562 1.71875 -0.0625 C 1.488281 -0.476562 1.425781 -0.976562 1.53125 -1.5625 C 1.882812 -3.519531 2.285156 -5.457031 2.734375 -7.375 C 3.191406 -9.300781 3.832031 -11.171875 4.65625 -12.984375 C 5.050781 -13.890625 5.554688 -14.859375 6.171875 -15.890625 C 6.796875 -16.929688 7.503906 -17.882812 8.296875 -18.75 C 9.085938 -19.625 9.960938 -20.265625 10.921875 -20.671875 C 11.816406 -21.046875 12.546875 -21.113281 13.109375 -20.875 C 13.671875 -20.632812 14.109375 -20.203125 14.421875 -19.578125 C 14.742188 -18.960938 14.976562 -18.25 15.125 -17.4375 C 15.28125 -16.632812 15.382812 -15.84375 15.4375 -15.0625 C 15.488281 -14.28125 15.523438 -13.628906 15.546875 -13.109375 Z M 7.984375 -9.328125 C 8.523438 -9.304688 9.050781 -9.285156 9.5625 -9.265625 C 10.082031 -9.242188 10.601562 -9.222656 11.125 -9.203125 C 11.101562 -9.867188 11.085938 -10.523438 11.078125 -11.171875 C 11.066406 -11.828125 11.054688 -12.472656 11.046875 -13.109375 C 11.023438 -13.367188 11.015625 -13.644531 11.015625 -13.9375 C 11.015625 -14.226562 11.015625 -14.519531 11.015625 -14.8125 C 10.671875 -14.414062 10.378906 -14.039062 10.140625 -13.6875 C 9.742188 -13.082031 9.378906 -12.453125 9.046875 -11.796875 C 8.710938 -11.148438 8.414062 -10.5 8.15625 -9.84375 C 8.132812 -9.757812 8.109375 -9.671875 8.078125 -9.578125 C 8.054688 -9.492188 8.023438 -9.410156 7.984375 -9.328125 Z M 7.984375 -9.328125 "/></g></g><g style="fill:#000000;fill-opacity:1;"><g transform="translate(179.975968, 236.719408)"><path style="stroke:none" d="M 11.1875 -12.953125 C 12.3125 -12.191406 13.195312 -11.203125 13.84375 -9.984375 C 14.488281 -8.765625 14.742188 -7.46875 14.609375 -6.09375 C 14.472656 -4.894531 14.0625 -3.863281 13.375 -3 C 12.695312 -2.132812 11.863281 -1.460938 10.875 -0.984375 C 9.882812 -0.503906 8.832031 -0.238281 7.71875 -0.1875 C 6.613281 -0.144531 5.550781 -0.332031 4.53125 -0.75 C 3.507812 -1.164062 2.648438 -1.847656 1.953125 -2.796875 C 1.585938 -3.253906 1.4375 -3.695312 1.5 -4.125 C 1.5625 -4.550781 1.742188 -4.925781 2.046875 -5.25 C 2.359375 -5.570312 2.742188 -5.796875 3.203125 -5.921875 C 3.671875 -6.054688 4.140625 -6.0625 4.609375 -5.9375 C 5.078125 -5.820312 5.476562 -5.53125 5.8125 -5.0625 C 5.976562 -4.84375 6.28125 -4.71875 6.71875 -4.6875 C 7.15625 -4.664062 7.59375 -4.6875 8.03125 -4.75 C 8.476562 -4.820312 8.789062 -4.898438 8.96875 -4.984375 C 9.382812 -5.179688 9.695312 -5.472656 9.90625 -5.859375 C 10.125 -6.253906 10.203125 -6.679688 10.140625 -7.140625 C 10.078125 -7.703125 9.875 -8.160156 9.53125 -8.515625 C 9.195312 -8.878906 8.796875 -9.195312 8.328125 -9.46875 C 7.859375 -9.738281 7.382812 -10 6.90625 -10.25 C 6.425781 -10.5 6.003906 -10.769531 5.640625 -11.0625 C 4.640625 -11.945312 4.03125 -12.90625 3.8125 -13.9375 C 3.59375 -14.96875 3.664062 -15.992188 4.03125 -17.015625 C 4.40625 -18.046875 4.984375 -18.984375 5.765625 -19.828125 C 6.546875 -20.671875 7.4375 -21.320312 8.4375 -21.78125 C 8.96875 -22.039062 9.460938 -22.109375 9.921875 -21.984375 C 10.390625 -21.867188 10.785156 -21.644531 11.109375 -21.3125 C 11.441406 -20.976562 11.664062 -20.59375 11.78125 -20.15625 C 11.90625 -19.71875 11.882812 -19.289062 11.71875 -18.875 C 11.5625 -18.46875 11.222656 -18.144531 10.703125 -17.90625 C 10.367188 -17.75 9.972656 -17.53125 9.515625 -17.25 C 9.066406 -16.96875 8.695312 -16.628906 8.40625 -16.234375 C 8.125 -15.847656 8.070312 -15.414062 8.25 -14.9375 C 8.351562 -14.613281 8.585938 -14.335938 8.953125 -14.109375 C 9.328125 -13.878906 9.722656 -13.675781 10.140625 -13.5 C 10.554688 -13.320312 10.90625 -13.140625 11.1875 -12.953125 Z M 11.1875 -12.953125 "/></g></g><g style="fill:#000000;fill-opacity:1;"><g transform="translate(196.104416, 236.719408)"><path style="stroke:none" d="M 13.6875 -20.609375 C 14.238281 -20.523438 14.6875 -20.3125 15.03125 -19.96875 C 15.375 -19.632812 15.601562 -19.238281 15.71875 -18.78125 C 15.84375 -18.320312 15.84375 -17.867188 15.71875 -17.421875 C 15.601562 -16.984375 15.375 -16.640625 15.03125 -16.390625 C 14.6875 -16.140625 14.238281 -16.046875 13.6875 -16.109375 C 12.757812 -16.234375 11.796875 -16.320312 10.796875 -16.375 C 10.660156 -14.195312 10.523438 -12.015625 10.390625 -9.828125 C 10.265625 -7.648438 10.128906 -5.460938 9.984375 -3.265625 C 9.960938 -2.710938 9.785156 -2.257812 9.453125 -1.90625 C 9.128906 -1.550781 8.742188 -1.3125 8.296875 -1.1875 C 7.847656 -1.070312 7.398438 -1.070312 6.953125 -1.1875 C 6.515625 -1.3125 6.15625 -1.546875 5.875 -1.890625 C 5.59375 -2.234375 5.460938 -2.691406 5.484375 -3.265625 C 5.628906 -5.460938 5.765625 -7.65625 5.890625 -9.84375 C 6.023438 -12.039062 6.160156 -14.238281 6.296875 -16.4375 C 5.398438 -16.394531 4.519531 -16.335938 3.65625 -16.265625 C 3.082031 -16.203125 2.617188 -16.304688 2.265625 -16.578125 C 1.910156 -16.847656 1.675781 -17.203125 1.5625 -17.640625 C 1.457031 -18.078125 1.460938 -18.519531 1.578125 -18.96875 C 1.703125 -19.425781 1.9375 -19.820312 2.28125 -20.15625 C 2.625 -20.5 3.082031 -20.703125 3.65625 -20.765625 C 7 -21.097656 10.34375 -21.046875 13.6875 -20.609375 Z M 13.6875 -20.609375 "/></g></g><g style="fill:#000000;fill-opacity:1;"><g transform="translate(213.402035, 236.719408)"><path style="stroke:none" d=""/></g></g><g style="fill:#000000;fill-opacity:1;"><g transform="translate(222.515508, 236.719408)"><path style="stroke:none" d="M 11.1875 -12.953125 C 12.3125 -12.191406 13.195312 -11.203125 13.84375 -9.984375 C 14.488281 -8.765625 14.742188 -7.46875 14.609375 -6.09375 C 14.472656 -4.894531 14.0625 -3.863281 13.375 -3 C 12.695312 -2.132812 11.863281 -1.460938 10.875 -0.984375 C 9.882812 -0.503906 8.832031 -0.238281 7.71875 -0.1875 C 6.613281 -0.144531 5.550781 -0.332031 4.53125 -0.75 C 3.507812 -1.164062 2.648438 -1.847656 1.953125 -2.796875 C 1.585938 -3.253906 1.4375 -3.695312 1.5 -4.125 C 1.5625 -4.550781 1.742188 -4.925781 2.046875 -5.25 C 2.359375 -5.570312 2.742188 -5.796875 3.203125 -5.921875 C 3.671875 -6.054688 4.140625 -6.0625 4.609375 -5.9375 C 5.078125 -5.820312 5.476562 -5.53125 5.8125 -5.0625 C 5.976562 -4.84375 6.28125 -4.71875 6.71875 -4.6875 C 7.15625 -4.664062 7.59375 -4.6875 8.03125 -4.75 C 8.476562 -4.820312 8.789062 -4.898438 8.96875 -4.984375 C 9.382812 -5.179688 9.695312 -5.472656 9.90625 -5.859375 C 10.125 -6.253906 10.203125 -6.679688 10.140625 -7.140625 C 10.078125 -7.703125 9.875 -8.160156 9.53125 -8.515625 C 9.195312 -8.878906 8.796875 -9.195312 8.328125 -9.46875 C 7.859375 -9.738281 7.382812 -10 6.90625 -10.25 C 6.425781 -10.5 6.003906 -10.769531 5.640625 -11.0625 C 4.640625 -11.945312 4.03125 -12.90625 3.8125 -13.9375 C 3.59375 -14.96875 3.664062 -15.992188 4.03125 -17.015625 C 4.40625 -18.046875 4.984375 -18.984375 5.765625 -19.828125 C 6.546875 -20.671875 7.4375 -21.320312 8.4375 -21.78125 C 8.96875 -22.039062 9.460938 -22.109375 9.921875 -21.984375 C 10.390625 -21.867188 10.785156 -21.644531 11.109375 -21.3125 C 11.441406 -20.976562 11.664062 -20.59375 11.78125 -20.15625 C 11.90625 -19.71875 11.882812 -19.289062 11.71875 -18.875 C 11.5625 -18.46875 11.222656 -18.144531 10.703125 -17.90625 C 10.367188 -17.75 9.972656 -17.53125 9.515625 -17.25 C 9.066406 -16.96875 8.695312 -16.628906 8.40625 -16.234375 C 8.125 -15.847656 8.070312 -15.414062 8.25 -14.9375 C 8.351562 -14.613281 8.585938 -14.335938 8.953125 -14.109375 C 9.328125 -13.878906 9.722656 -13.675781 10.140625 -13.5 C 10.554688 -13.320312 10.90625 -13.140625 11.1875 -12.953125 Z M 11.1875 -12.953125 "/></g></g><g style="fill:#000000;fill-opacity:1;"><g transform="translate(238.643956, 236.719408)"><path style="stroke:none" d="M 13.6875 -20.609375 C 14.238281 -20.523438 14.6875 -20.3125 15.03125 -19.96875 C 15.375 -19.632812 15.601562 -19.238281 15.71875 -18.78125 C 15.84375 -18.320312 15.84375 -17.867188 15.71875 -17.421875 C 15.601562 -16.984375 15.375 -16.640625 15.03125 -16.390625 C 14.6875 -16.140625 14.238281 -16.046875 13.6875 -16.109375 C 12.757812 -16.234375 11.796875 -16.320312 10.796875 -16.375 C 10.660156 -14.195312 10.523438 -12.015625 10.390625 -9.828125 C 10.265625 -7.648438 10.128906 -5.460938 9.984375 -3.265625 C 9.960938 -2.710938 9.785156 -2.257812 9.453125 -1.90625 C 9.128906 -1.550781 8.742188 -1.3125 8.296875 -1.1875 C 7.847656 -1.070312 7.398438 -1.070312 6.953125 -1.1875 C 6.515625 -1.3125 6.15625 -1.546875 5.875 -1.890625 C 5.59375 -2.234375 5.460938 -2.691406 5.484375 -3.265625 C 5.628906 -5.460938 5.765625 -7.65625 5.890625 -9.84375 C 6.023438 -12.039062 6.160156 -14.238281 6.296875 -16.4375 C 5.398438 -16.394531 4.519531 -16.335938 3.65625 -16.265625 C 3.082031 -16.203125 2.617188 -16.304688 2.265625 -16.578125 C 1.910156 -16.847656 1.675781 -17.203125 1.5625 -17.640625 C 1.457031 -18.078125 1.460938 -18.519531 1.578125 -18.96875 C 1.703125 -19.425781 1.9375 -19.820312 2.28125 -20.15625 C 2.625 -20.5 3.082031 -20.703125 3.65625 -20.765625 C 7 -21.097656 10.34375 -21.046875 13.6875 -20.609375 Z M 13.6875 -20.609375 "/></g></g><g style="fill:#000000;fill-opacity:1;"><g transform="translate(255.941576, 236.719408)"><path style="stroke:none" d="M 17.546875 -17.046875 C 17.671875 -15.960938 17.679688 -14.785156 17.578125 -13.515625 C 17.484375 -12.242188 17.253906 -10.972656 16.890625 -9.703125 C 16.523438 -8.429688 16.019531 -7.25 15.375 -6.15625 C 14.726562 -5.070312 13.925781 -4.15625 12.96875 -3.40625 C 12.019531 -2.65625 10.914062 -2.171875 9.65625 -1.953125 C 8.34375 -1.734375 7.21875 -1.832031 6.28125 -2.25 C 5.351562 -2.664062 4.582031 -3.3125 3.96875 -4.1875 C 3.363281 -5.070312 2.878906 -6.082031 2.515625 -7.21875 C 2.160156 -8.363281 1.90625 -9.554688 1.75 -10.796875 C 1.601562 -12.035156 1.523438 -13.21875 1.515625 -14.34375 C 1.503906 -15.476562 1.53125 -16.476562 1.59375 -17.34375 C 1.632812 -17.90625 1.816406 -18.359375 2.140625 -18.703125 C 2.472656 -19.054688 2.863281 -19.289062 3.3125 -19.40625 C 3.757812 -19.53125 4.203125 -19.53125 4.640625 -19.40625 C 5.085938 -19.289062 5.453125 -19.0625 5.734375 -18.71875 C 6.015625 -18.375 6.132812 -17.914062 6.09375 -17.34375 C 6.070312 -17.039062 6.050781 -16.53125 6.03125 -15.8125 C 6.007812 -15.09375 6.019531 -14.273438 6.0625 -13.359375 C 6.101562 -12.453125 6.1875 -11.535156 6.3125 -10.609375 C 6.445312 -9.691406 6.640625 -8.875 6.890625 -8.15625 C 7.140625 -7.4375 7.472656 -6.914062 7.890625 -6.59375 C 8.304688 -6.28125 8.835938 -6.269531 9.484375 -6.5625 C 10.359375 -6.988281 11.054688 -7.609375 11.578125 -8.421875 C 12.097656 -9.242188 12.476562 -10.164062 12.71875 -11.1875 C 12.957031 -12.207031 13.097656 -13.234375 13.140625 -14.265625 C 13.179688 -15.296875 13.148438 -16.222656 13.046875 -17.046875 C 12.972656 -17.597656 13.0625 -18.050781 13.3125 -18.40625 C 13.570312 -18.757812 13.914062 -18.988281 14.34375 -19.09375 C 14.78125 -19.207031 15.226562 -19.203125 15.6875 -19.078125 C 16.144531 -18.960938 16.550781 -18.734375 16.90625 -18.390625 C 17.257812 -18.046875 17.472656 -17.597656 17.546875 -17.046875 Z M 17.546875 -17.046875 "/></g></g><g style="fill:#000000;fill-opacity:1;"><g transform="translate(275.0679, 236.719408)"><path style="stroke:none" d="M 12.984375 -18.5625 C 14.003906 -17.644531 14.796875 -16.550781 15.359375 -15.28125 C 15.921875 -14.007812 16.117188 -12.675781 15.953125 -11.28125 C 15.816406 -10.125 15.441406 -9.039062 14.828125 -8.03125 C 14.222656 -7.019531 13.476562 -6.144531 12.59375 -5.40625 C 11.613281 -4.5625 10.457031 -3.882812 9.125 -3.375 C 7.800781 -2.863281 6.53125 -2.410156 5.3125 -2.015625 C 4.96875 -1.890625 4.617188 -1.789062 4.265625 -1.71875 C 3.921875 -1.65625 3.578125 -1.644531 3.234375 -1.6875 C 2.753906 -1.738281 2.335938 -1.957031 1.984375 -2.34375 C 1.640625 -2.738281 1.476562 -3.175781 1.5 -3.65625 C 1.632812 -9.09375 1.90625 -14.546875 2.3125 -20.015625 C 2.351562 -20.628906 2.554688 -21.0625 2.921875 -21.3125 C 3.296875 -21.5625 3.738281 -21.691406 4.25 -21.703125 C 4.757812 -21.710938 5.253906 -21.675781 5.734375 -21.59375 C 6.015625 -21.5625 6.273438 -21.523438 6.515625 -21.484375 C 7.691406 -21.242188 8.828125 -20.90625 9.921875 -20.46875 C 11.023438 -20.039062 12.046875 -19.40625 12.984375 -18.5625 Z M 11.3125 -11.046875 C 11.59375 -11.835938 11.632812 -12.5625 11.4375 -13.21875 C 11.25 -13.882812 10.90625 -14.457031 10.40625 -14.9375 C 9.90625 -15.414062 9.316406 -15.816406 8.640625 -16.140625 C 7.960938 -16.460938 7.269531 -16.703125 6.5625 -16.859375 C 6.363281 -13.578125 6.207031 -10.316406 6.09375 -7.078125 C 6.832031 -7.316406 7.546875 -7.59375 8.234375 -7.90625 C 8.921875 -8.21875 9.535156 -8.617188 10.078125 -9.109375 C 10.617188 -9.597656 11.03125 -10.242188 11.3125 -11.046875 Z M 11.3125 -11.046875 "/></g></g><g style="fill:#000000;fill-opacity:1;"><g transform="translate(292.575364, 236.719408)"><path style="stroke:none" d="M 2.84375 -18.484375 C 2.90625 -19.035156 3.101562 -19.484375 3.4375 -19.828125 C 3.78125 -20.171875 4.179688 -20.398438 4.640625 -20.515625 C 5.109375 -20.640625 5.5625 -20.644531 6 -20.53125 C 6.4375 -20.425781 6.785156 -20.195312 7.046875 -19.84375 C 7.304688 -19.488281 7.40625 -19.035156 7.34375 -18.484375 C 6.769531 -13.054688 6.320312 -7.625 6 -2.1875 C 5.957031 -1.601562 5.773438 -1.132812 5.453125 -0.78125 C 5.140625 -0.4375 4.753906 -0.207031 4.296875 -0.09375 C 3.847656 0.0078125 3.40625 0.0078125 2.96875 -0.09375 C 2.53125 -0.207031 2.164062 -0.4375 1.875 -0.78125 C 1.582031 -1.132812 1.457031 -1.601562 1.5 -2.1875 C 1.820312 -7.625 2.269531 -13.054688 2.84375 -18.484375 Z M 2.84375 -18.484375 "/></g></g><g style="fill:#000000;fill-opacity:1;"><g transform="translate(301.449018, 236.719408)"><path style="stroke:none" d="M 16.6875 -18.328125 C 17.164062 -17.546875 17.492188 -16.671875 17.671875 -15.703125 C 17.847656 -14.734375 17.925781 -13.753906 17.90625 -12.765625 C 17.882812 -11.773438 17.804688 -10.847656 17.671875 -9.984375 C 17.472656 -8.671875 17.0625 -7.421875 16.4375 -6.234375 C 15.820312 -5.054688 14.992188 -4.039062 13.953125 -3.1875 C 12.953125 -2.363281 11.789062 -1.757812 10.46875 -1.375 C 9.144531 -1 7.851562 -1.007812 6.59375 -1.40625 C 5.757812 -1.664062 5.03125 -2.09375 4.40625 -2.6875 C 3.789062 -3.289062 3.269531 -3.976562 2.84375 -4.75 C 2.425781 -5.519531 2.117188 -6.304688 1.921875 -7.109375 C 1.679688 -7.992188 1.539062 -9.007812 1.5 -10.15625 C 1.457031 -11.300781 1.535156 -12.472656 1.734375 -13.671875 C 1.941406 -14.878906 2.273438 -16 2.734375 -17.03125 C 3.191406 -18.070312 3.8125 -18.9375 4.59375 -19.625 C 5.394531 -20.4375 6.351562 -21.015625 7.46875 -21.359375 C 8.59375 -21.703125 9.742188 -21.816406 10.921875 -21.703125 C 12.097656 -21.597656 13.195312 -21.257812 14.21875 -20.6875 C 15.238281 -20.113281 16.0625 -19.328125 16.6875 -18.328125 Z M 11.21875 -6.65625 C 11.894531 -7.300781 12.398438 -8.046875 12.734375 -8.890625 C 13.066406 -9.742188 13.269531 -10.632812 13.34375 -11.5625 C 13.425781 -12.488281 13.410156 -13.394531 13.296875 -14.28125 C 13.171875 -15.15625 12.820312 -15.875 12.25 -16.4375 C 11.6875 -17 10.929688 -17.269531 9.984375 -17.25 C 9.460938 -17.25 8.957031 -17.117188 8.46875 -16.859375 C 7.976562 -16.597656 7.578125 -16.257812 7.265625 -15.84375 C 6.898438 -15.34375 6.632812 -14.738281 6.46875 -14.03125 C 6.3125 -13.332031 6.195312 -12.6875 6.125 -12.09375 C 5.9375 -10.75 6.003906 -9.425781 6.328125 -8.125 C 6.429688 -7.75 6.566406 -7.367188 6.734375 -6.984375 C 6.898438 -6.609375 7.144531 -6.300781 7.46875 -6.0625 C 7.988281 -5.675781 8.582031 -5.535156 9.25 -5.640625 C 9.925781 -5.753906 10.515625 -6.023438 11.015625 -6.453125 C 11.066406 -6.515625 11.132812 -6.582031 11.21875 -6.65625 Z M 11.21875 -6.65625 "/></g></g><g style="fill:#000000;fill-opacity:1;"><g transform="translate(320.845135, 236.719408)"><path style="stroke:none" d="M 11.1875 -12.953125 C 12.3125 -12.191406 13.195312 -11.203125 13.84375 -9.984375 C 14.488281 -8.765625 14.742188 -7.46875 14.609375 -6.09375 C 14.472656 -4.894531 14.0625 -3.863281 13.375 -3 C 12.695312 -2.132812 11.863281 -1.460938 10.875 -0.984375 C 9.882812 -0.503906 8.832031 -0.238281 7.71875 -0.1875 C 6.613281 -0.144531 5.550781 -0.332031 4.53125 -0.75 C 3.507812 -1.164062 2.648438 -1.847656 1.953125 -2.796875 C 1.585938 -3.253906 1.4375 -3.695312 1.5 -4.125 C 1.5625 -4.550781 1.742188 -4.925781 2.046875 -5.25 C 2.359375 -5.570312 2.742188 -5.796875 3.203125 -5.921875 C 3.671875 -6.054688 4.140625 -6.0625 4.609375 -5.9375 C 5.078125 -5.820312 5.476562 -5.53125 5.8125 -5.0625 C 5.976562 -4.84375 6.28125 -4.71875 6.71875 -4.6875 C 7.15625 -4.664062 7.59375 -4.6875 8.03125 -4.75 C 8.476562 -4.820312 8.789062 -4.898438 8.96875 -4.984375 C 9.382812 -5.179688 9.695312 -5.472656 9.90625 -5.859375 C 10.125 -6.253906 10.203125 -6.679688 10.140625 -7.140625 C 10.078125 -7.703125 9.875 -8.160156 9.53125 -8.515625 C 9.195312 -8.878906 8.796875 -9.195312 8.328125 -9.46875 C 7.859375 -9.738281 7.382812 -10 6.90625 -10.25 C 6.425781 -10.5 6.003906 -10.769531 5.640625 -11.0625 C 4.640625 -11.945312 4.03125 -12.90625 3.8125 -13.9375 C 3.59375 -14.96875 3.664062 -15.992188 4.03125 -17.015625 C 4.40625 -18.046875 4.984375 -18.984375 5.765625 -19.828125 C 6.546875 -20.671875 7.4375 -21.320312 8.4375 -21.78125 C 8.96875 -22.039062 9.460938 -22.109375 9.921875 -21.984375 C 10.390625 -21.867188 10.785156 -21.644531 11.109375 -21.3125 C 11.441406 -20.976562 11.664062 -20.59375 11.78125 -20.15625 C 11.90625 -19.71875 11.882812 -19.289062 11.71875 -18.875 C 11.5625 -18.46875 11.222656 -18.144531 10.703125 -17.90625 C 10.367188 -17.75 9.972656 -17.53125 9.515625 -17.25 C 9.066406 -16.96875 8.695312 -16.628906 8.40625 -16.234375 C 8.125 -15.847656 8.070312 -15.414062 8.25 -14.9375 C 8.351562 -14.613281 8.585938 -14.335938 8.953125 -14.109375 C 9.328125 -13.878906 9.722656 -13.675781 10.140625 -13.5 C 10.554688 -13.320312 10.90625 -13.140625 11.1875 -12.953125 Z M 11.1875 -12.953125 "/></g></g><g style="fill:#107173;fill-opacity:1;"><g transform="translate(122.188126, 262.816142)"><path style="stroke:none" d="M 3.359375 0 L 2.34375 0 L 0.03125 -5.8125 L 1.078125 -5.8125 L 2.875 -1.09375 L 4.6875 -5.8125 L 5.703125 -5.8125 Z M 3.359375 0 "/></g></g><g style="fill:#107173;fill-opacity:1;"><g transform="translate(130.000491, 262.816142)"><path style="stroke:none" d="M 1.75 0 L 0.765625 0 L 0.765625 -5.8125 L 1.75 -5.8125 Z M 1.75 0 "/></g></g><g style="fill:#107173;fill-opacity:1;"><g transform="translate(134.58817, 262.816142)"><path style="stroke:none" d="M 2.671875 -5.859375 C 3.429688 -5.859375 4.113281 -5.660156 4.71875 -5.265625 L 4.3125 -4.390625 C 3.71875 -4.753906 3.148438 -4.9375 2.609375 -4.9375 C 2.304688 -4.9375 2.070312 -4.882812 1.90625 -4.78125 C 1.738281 -4.675781 1.65625 -4.523438 1.65625 -4.328125 C 1.65625 -4.140625 1.734375 -3.972656 1.890625 -3.828125 C 2.046875 -3.691406 2.238281 -3.59375 2.46875 -3.53125 C 2.695312 -3.46875 2.945312 -3.390625 3.21875 -3.296875 C 3.488281 -3.203125 3.738281 -3.097656 3.96875 -2.984375 C 4.207031 -2.878906 4.398438 -2.710938 4.546875 -2.484375 C 4.703125 -2.253906 4.78125 -1.972656 4.78125 -1.640625 C 4.78125 -1.128906 4.578125 -0.722656 4.171875 -0.421875 C 3.765625 -0.117188 3.238281 0.03125 2.59375 0.03125 C 2.144531 0.03125 1.710938 -0.0507812 1.296875 -0.21875 C 0.890625 -0.382812 0.53125 -0.609375 0.21875 -0.890625 L 0.640625 -1.734375 C 0.929688 -1.460938 1.253906 -1.253906 1.609375 -1.109375 C 1.960938 -0.960938 2.296875 -0.890625 2.609375 -0.890625 C 2.953125 -0.890625 3.21875 -0.953125 3.40625 -1.078125 C 3.601562 -1.203125 3.703125 -1.375 3.703125 -1.59375 C 3.703125 -1.789062 3.625 -1.957031 3.46875 -2.09375 C 3.3125 -2.226562 3.113281 -2.328125 2.875 -2.390625 C 2.644531 -2.460938 2.394531 -2.539062 2.125 -2.625 C 1.851562 -2.71875 1.597656 -2.816406 1.359375 -2.921875 C 1.128906 -3.023438 0.9375 -3.1875 0.78125 -3.40625 C 0.632812 -3.632812 0.5625 -3.910156 0.5625 -4.234375 C 0.5625 -4.734375 0.753906 -5.128906 1.140625 -5.421875 C 1.523438 -5.710938 2.035156 -5.859375 2.671875 -5.859375 Z M 2.671875 -5.859375 "/></g></g><g style="fill:#107173;fill-opacity:1;"><g transform="translate(141.835382, 262.816142)"><path style="stroke:none" d="M 5.703125 -5.8125 L 5.703125 -2.40625 C 5.703125 -1.644531 5.476562 -1.046875 5.03125 -0.609375 C 4.582031 -0.171875 3.960938 0.046875 3.171875 0.046875 C 2.390625 0.046875 1.769531 -0.171875 1.3125 -0.609375 C 0.863281 -1.046875 0.640625 -1.644531 0.640625 -2.40625 L 0.640625 -5.8125 L 1.625 -5.8125 L 1.625 -2.40625 C 1.625 -1.914062 1.765625 -1.53125 2.046875 -1.25 C 2.328125 -0.976562 2.707031 -0.84375 3.1875 -0.84375 C 3.664062 -0.84375 4.039062 -0.976562 4.3125 -1.25 C 4.59375 -1.53125 4.734375 -1.914062 4.734375 -2.40625 L 4.734375 -5.8125 Z M 5.703125 -5.8125 "/></g></g><g style="fill:#107173;fill-opacity:1;"><g transform="translate(150.262761, 262.816142)"><path style="stroke:none" d="M 4.515625 -1.3125 L 1.59375 -1.3125 L 1.03125 0 L 0.015625 0 L 2.578125 -5.8125 L 3.578125 -5.8125 L 6.125 0 L 5.078125 0 Z M 4.140625 -2.1875 L 3.046875 -4.765625 L 1.953125 -2.1875 Z M 4.140625 -2.1875 "/></g></g><g style="fill:#107173;fill-opacity:1;"><g transform="translate(158.474056, 262.816142)"><path style="stroke:none" d="M 1.75 -0.890625 L 4.265625 -0.890625 L 4.265625 0 L 0.765625 0 L 0.765625 -5.8125 L 1.75 -5.8125 Z M 1.75 -0.890625 "/></g></g><g style="fill:#107173;fill-opacity:1;"><g transform="translate(164.989902, 262.816142)"><path style="stroke:none" d="M 2.671875 -5.859375 C 3.429688 -5.859375 4.113281 -5.660156 4.71875 -5.265625 L 4.3125 -4.390625 C 3.71875 -4.753906 3.148438 -4.9375 2.609375 -4.9375 C 2.304688 -4.9375 2.070312 -4.882812 1.90625 -4.78125 C 1.738281 -4.675781 1.65625 -4.523438 1.65625 -4.328125 C 1.65625 -4.140625 1.734375 -3.972656 1.890625 -3.828125 C 2.046875 -3.691406 2.238281 -3.59375 2.46875 -3.53125 C 2.695312 -3.46875 2.945312 -3.390625 3.21875 -3.296875 C 3.488281 -3.203125 3.738281 -3.097656 3.96875 -2.984375 C 4.207031 -2.878906 4.398438 -2.710938 4.546875 -2.484375 C 4.703125 -2.253906 4.78125 -1.972656 4.78125 -1.640625 C 4.78125 -1.128906 4.578125 -0.722656 4.171875 -0.421875 C 3.765625 -0.117188 3.238281 0.03125 2.59375 0.03125 C 2.144531 0.03125 1.710938 -0.0507812 1.296875 -0.21875 C 0.890625 -0.382812 0.53125 -0.609375 0.21875 -0.890625 L 0.640625 -1.734375 C 0.929688 -1.460938 1.253906 -1.253906 1.609375 -1.109375 C 1.960938 -0.960938 2.296875 -0.890625 2.609375 -0.890625 C 2.953125 -0.890625 3.21875 -0.953125 3.40625 -1.078125 C 3.601562 -1.203125 3.703125 -1.375 3.703125 -1.59375 C 3.703125 -1.789062 3.625 -1.957031 3.46875 -2.09375 C 3.3125 -2.226562 3.113281 -2.328125 2.875 -2.390625 C 2.644531 -2.460938 2.394531 -2.539062 2.125 -2.625 C 1.851562 -2.71875 1.597656 -2.816406 1.359375 -2.921875 C 1.128906 -3.023438 0.9375 -3.1875 0.78125 -3.40625 C 0.632812 -3.632812 0.5625 -3.910156 0.5625 -4.234375 C 0.5625 -4.734375 0.753906 -5.128906 1.140625 -5.421875 C 1.523438 -5.710938 2.035156 -5.859375 2.671875 -5.859375 Z M 2.671875 -5.859375 "/></g></g><g style="fill:#107173;fill-opacity:1;"><g transform="translate(172.237114, 262.816142)"><path style="stroke:none" d=""/></g></g><g style="fill:#107173;fill-opacity:1;"><g transform="translate(176.45911, 262.816142)"><path style="stroke:none" d="M 4.734375 -4.9375 L 2.890625 -4.9375 L 2.890625 0 L 1.90625 0 L 1.90625 -4.9375 L 0.078125 -4.9375 L 0.078125 -5.8125 L 4.734375 -5.8125 Z M 4.734375 -4.9375 "/></g></g><g style="fill:#107173;fill-opacity:1;"><g transform="translate(183.348945, 262.816142)"><path style="stroke:none" d="M 5.8125 0 L 4.828125 0 L 4.828125 -2.40625 L 1.75 -2.40625 L 1.75 0 L 0.765625 0 L 0.765625 -5.8125 L 1.75 -5.8125 L 1.75 -3.296875 L 4.828125 -3.296875 L 4.828125 -5.8125 L 5.8125 -5.8125 Z M 5.8125 0 "/></g></g><g style="fill:#107173;fill-opacity:1;"><g transform="translate(192.000724, 262.816142)"><path style="stroke:none" d="M 4.515625 -1.3125 L 1.59375 -1.3125 L 1.03125 0 L 0.015625 0 L 2.578125 -5.8125 L 3.578125 -5.8125 L 6.125 0 L 5.078125 0 Z M 4.140625 -2.1875 L 3.046875 -4.765625 L 1.953125 -2.1875 Z M 4.140625 -2.1875 "/></g></g><g style="fill:#107173;fill-opacity:1;"><g transform="translate(200.212019, 262.816142)"><path style="stroke:none" d="M 4.734375 -4.9375 L 2.890625 -4.9375 L 2.890625 0 L 1.90625 0 L 1.90625 -4.9375 L 0.078125 -4.9375 L 0.078125 -5.8125 L 4.734375 -5.8125 Z M 4.734375 -4.9375 "/></g></g><g style="fill:#107173;fill-opacity:1;"><g transform="translate(207.101855, 262.816142)"><path style="stroke:none" d=""/></g></g><g style="fill:#107173;fill-opacity:1;"><g transform="translate(211.32385, 262.816142)"><path style="stroke:none" d="M 4.734375 -4.9375 L 2.890625 -4.9375 L 2.890625 0 L 1.90625 0 L 1.90625 -4.9375 L 0.078125 -4.9375 L 0.078125 -5.8125 L 4.734375 -5.8125 Z M 4.734375 -4.9375 "/></g></g><g style="fill:#107173;fill-opacity:1;"><g transform="translate(218.213686, 262.816142)"><path style="stroke:none" d="M 5.8125 0 L 4.828125 0 L 4.828125 -2.40625 L 1.75 -2.40625 L 1.75 0 L 0.765625 0 L 0.765625 -5.8125 L 1.75 -5.8125 L 1.75 -3.296875 L 4.828125 -3.296875 L 4.828125 -5.8125 L 5.8125 -5.8125 Z M 5.8125 0 "/></g></g><g style="fill:#107173;fill-opacity:1;"><g transform="translate(226.865464, 262.816142)"><path style="stroke:none" d="M 4.453125 0 L 3.390625 -1.765625 C 3.335938 -1.753906 3.25 -1.75 3.125 -1.75 L 1.75 -1.75 L 1.75 0 L 0.765625 0 L 0.765625 -5.8125 L 3.125 -5.8125 C 3.863281 -5.8125 4.4375 -5.640625 4.84375 -5.296875 C 5.257812 -4.953125 5.46875 -4.460938 5.46875 -3.828125 C 5.46875 -3.367188 5.363281 -2.976562 5.15625 -2.65625 C 4.945312 -2.332031 4.648438 -2.09375 4.265625 -1.9375 L 5.5625 0 Z M 1.75 -2.640625 L 3.125 -2.640625 C 4.0625 -2.640625 4.53125 -3.03125 4.53125 -3.8125 C 4.53125 -4.5625 4.0625 -4.9375 3.125 -4.9375 L 1.75 -4.9375 Z M 1.75 -2.640625 "/></g></g><g style="fill:#107173;fill-opacity:1;"><g transform="translate(234.95209, 262.816142)"><path style="stroke:none" d="M 1.75 0 L 0.765625 0 L 0.765625 -5.8125 L 1.75 -5.8125 Z M 1.75 0 "/></g></g><g style="fill:#107173;fill-opacity:1;"><g transform="translate(239.539768, 262.816142)"><path style="stroke:none" d="M 3.359375 0 L 2.34375 0 L 0.03125 -5.8125 L 1.078125 -5.8125 L 2.875 -1.09375 L 4.6875 -5.8125 L 5.703125 -5.8125 Z M 3.359375 0 "/></g></g><g style="fill:#107173;fill-opacity:1;"><g transform="translate(247.352134, 262.816142)"><path style="stroke:none" d="M 4.921875 -4.9375 L 1.75 -4.9375 L 1.75 -3.359375 L 4.59375 -3.359375 L 4.59375 -2.484375 L 1.75 -2.484375 L 1.75 -0.875 L 5.015625 -0.875 L 5.015625 0 L 0.765625 0 L 0.765625 -5.8125 L 4.921875 -5.8125 Z M 4.921875 -4.9375 "/></g></g></g></svg>