<?xml version="1.0" encoding="UTF-8" standalone="no"?>
<svg
   width="394.71262"
   zoomAndPan="magnify"
   viewBox="0 0 296.03446 152.42128"
   height="203.22838"
   preserveAspectRatio="xMidYMid"
   version="1.2"
   id="svg91"
   sodipodi:docname="Black Green Doodle Video Camera for Movie Cinema Production Logo _20250725_090814_0000.svg"
   xmlns:inkscape="http://www.inkscape.org/namespaces/inkscape"
   xmlns:sodipodi="http://sodipodi.sourceforge.net/DTD/sodipodi-0.dtd"
   xmlns="http://www.w3.org/2000/svg"
   xmlns:svg="http://www.w3.org/2000/svg">
  <sodipodi:namedview
     id="namedview91"
     pagecolor="#ffffff"
     bordercolor="#000000"
     borderopacity="0.25"
     inkscape:showpageshadow="2"
     inkscape:pageopacity="0.0"
     inkscape:pagecheckerboard="0"
     inkscape:deskcolor="#d1d1d1">
    <inkscape:page
       x="0"
       y="0"
       width="296.03445"
       height="152.42128"
       id="page2"
       margin="0"
       bleed="0" />
  </sodipodi:namedview>
  <defs
     id="defs1">
    <clipPath
       id="b0761fb985">
      <path
         d="M 151.83203,110.24609 H 223 V 202 h -71.16797 z m 0,0"
         id="path1" />
    </clipPath>
  </defs>
  <g
     id="e2118d3918"
     transform="translate(-39.454257,-110.44174)">
    <path
       style="fill:#ff914d;fill-opacity:1;fill-rule:nonzero;stroke:none"
       d="m 189.41797,197.80078 c 0.25,-3.4375 -0.3711,-6.94531 -0.42188,-10.38281 -0.0625,-4.39063 -0.78125,-8.73828 -0.80859,-13.125 -0.48047,-0.0195 -0.96094,-0.0352 -1.43359,-0.0352 -0.52735,0 -1.05469,0 -1.58204,-0.0117 -0.0156,0.043 -0.0312,0.082 -0.0391,0.125 -0.0156,0.0508 -0.0312,0.0977 -0.0508,0.14844 0.0469,0.14844 0.0625,0.30078 0.0508,0.45703 -0.17187,2.03516 0.41797,4.10156 0.41797,6.14844 0,2.14844 0.0117,4.29687 0,6.44922 -0.0234,3.92578 -0.19531,7.84765 -0.51172,11.76953 0.53906,0 1.07031,0 1.60547,-0.0156 0.63281,-0.0117 1.26172,-0.0625 1.88672,-0.14843 0.1875,-0.0234 0.37109,-0.0625 0.54687,-0.11719 0.0625,-0.0195 0.1211,-0.043 0.17969,-0.0703 0.12891,-0.14063 0.28125,-0.2461 0.46094,-0.3125 -0.23047,-0.25 -0.32813,-0.54297 -0.30078,-0.87891 z m 0,0"
       id="path2" />
    <path
       style="fill:#10b5b8;fill-opacity:1;fill-rule:nonzero;stroke:none"
       d="m 168.47656,123.57031 c -0.83594,0.0234 -1.51953,0.25391 -2.02344,0.97657 -0.34765,0.49218 -0.48437,1.03906 -0.41406,1.63671 0.32813,0.11719 0.52735,0.34766 0.58985,0.69532 0.59375,2.44531 4.80468,1.17187 5.00781,-0.95313 0.14453,-1.53906 -1.89453,-2.39844 -3.16016,-2.35547 z m 0,0"
       id="path3" />
    <path
       style="fill:#ff914d;fill-opacity:1;fill-rule:nonzero;stroke:none"
       d="m 181.76172,174.07422 c -0.85547,0.0781 -1.86719,0.26562 -2.77735,0.13281 -0.0352,0.0977 -0.0703,0.19531 -0.0977,0.29297 -0.125,0.44922 -0.23047,0.89844 -0.33203,1.35156 -0.15235,0.75391 -0.34766,1.4961 -0.58985,2.22266 -0.9414,2.64453 -1.78125,5.33594 -2.8789,7.92187 -1.0586,2.4961 -2.125,4.96094 -3.3086,7.40235 -0.9414,1.94531 -1.87109,3.89843 -2.6875,5.89843 2.1211,-0.0312 4.26172,-0.0664 6.35157,0.26954 1.64843,-4.60938 2.79296,-9.36329 4.37109,-13.99219 1.27734,-3.75391 1.49609,-7.8086 2.98047,-11.4961 -0.34375,-0.0273 -0.6836,-0.0312 -1.03125,-0.004 z m 0,0"
       id="path4" />
    <path
       style="fill:#107173;fill-opacity:1;fill-rule:nonzero;stroke:none"
       d="m 181.18359,119.66016 c -1.92578,-4.15235 -6.64453,-6.89844 -11.16797,-6.9961 -4.66406,-0.10547 -8.32421,2.625 -10.86718,6.36328 -1.58985,2.35547 -2.78516,5.1875 -3.08594,8.01563 -0.26563,2.51562 0.21484,4.88281 1.44141,7.09375 0.10156,0.12109 0.17578,0.2539 0.22265,0.40625 0.15235,0.26172 0.3125,0.51953 0.48438,0.77734 0.14062,0.19141 0.20703,0.41016 0.20312,0.64844 0.89844,1.35156 2.34766,2.34766 3.78906,3.05469 1.92188,0.9414 4.16016,1.69531 6.32813,1.67187 5.14844,-0.0586 9.98437,-3.28906 12.1875,-7.93359 1.85937,-3.91797 2.32812,-9.09766 0.46484,-13.10156 z m -16.03125,9.33203 c -0.0352,-0.0312 -0.0703,-0.0664 -0.10547,-0.10157 -2.29687,-2.51953 -1.08593,-6.76953 2.36719,-7.4414 2.53906,-0.49219 6.14844,0.98047 6.42188,3.87109 0.41015,4.32422 -6.35157,6.85938 -8.6836,3.67188 z m 0,0"
       id="path5" />
    <path
       style="fill:#10b5b8;fill-opacity:1;fill-rule:nonzero;stroke:none"
       d="m 199.26562,123.57031 c -0.83593,0.0234 -1.51953,0.25391 -2.02343,0.97657 -0.34766,0.49218 -0.48438,1.03906 -0.41407,1.63671 0.32813,0.11719 0.52735,0.34766 0.58985,0.69532 0.59765,2.44531 4.82031,1.17578 5.01953,-0.95313 0.13672,-1.53906 -1.90234,-2.39844 -3.17188,-2.35547 z m 0,0"
       id="path6" />
    <path
       style="fill:#107173;fill-opacity:1;fill-rule:nonzero;stroke:none"
       d="m 211.98047,119.66016 c -1.92969,-4.15235 -6.64063,-6.89844 -11.17188,-6.9961 -4.66015,-0.10547 -8.32422,2.625 -10.86328,6.36328 -1.59765,2.35547 -2.78906,5.1875 -3.08984,8.01563 -0.26563,2.51562 0.21094,4.88281 1.43359,7.09765 0.10156,0.11719 0.17969,0.25391 0.22266,0.40235 0.15234,0.26562 0.3164,0.52344 0.48828,0.77734 0.14062,0.19531 0.20703,0.41016 0.19922,0.64844 0.90234,1.35547 2.35156,2.35156 3.79297,3.05469 1.92187,0.94531 4.16015,1.69922 6.32812,1.67187 5.14844,-0.0586 9.98438,-3.28515 12.1875,-7.92969 1.86328,-3.92187 2.33203,-9.10156 0.47266,-13.10546 z m -16.03516,9.33203 c -0.0352,-0.0312 -0.0703,-0.0664 -0.10156,-0.10157 -2.30078,-2.51953 -1.08594,-6.76953 2.36328,-7.4414 2.54297,-0.49219 6.14844,0.98047 6.42188,3.87109 0.41015,4.32422 -6.35157,6.85938 -8.6836,3.67188 z m 0,0"
       id="path7" />
    <path
       style="fill:#107173;fill-opacity:1;fill-rule:nonzero;stroke:none"
       d="m 156.26562,151.19531 h -0.0352 c -0.25,0.0234 -0.47656,-0.0352 -0.6836,-0.17578 h -0.125 c -0.28125,0.0117 -0.55859,0.0352 -0.83593,0.0586 l -0.38672,0.043 c -0.0898,0.7461 0.0312,1.4961 0.125,2.2461 0.69922,-0.0391 1.44922,-0.0508 2.08203,0.14062 -0.0273,-0.76562 -0.0586,-1.54297 -0.14063,-2.3125 z m 0,0"
       id="path8" />
    <path
       style="fill:#107173;fill-opacity:1;fill-rule:nonzero;stroke:none"
       d="m 207.80859,140.25 c -3.39062,2.26172 -7.55468,3.23437 -11.58593,2.27344 -1.40235,-0.33203 -2.75782,-0.80469 -4.0625,-1.41797 -0.19922,0.27734 -0.46875,0.40625 -0.8086,0.39062 h -0.16015 c -5.30469,0 -10.6875,-0.26953 -15.96875,0.40235 -0.3086,0.0508 -0.57813,-0.0273 -0.8086,-0.23438 -1.41406,0.6211 -2.88672,1.00781 -4.42187,1.15235 -1.53516,0.14843 -3.0586,0.0469 -4.5625,-0.29688 -1.64453,-0.38281 -3.21875,-0.96484 -4.71875,-1.74219 -0.48438,0.40235 -1.30078,0.4375 -1.66797,-0.1875 -0.0898,0.0312 -0.17578,0.0586 -0.26172,0.0977 -0.14063,0.0547 -0.26953,0.13281 -0.38672,0.23047 -0.48047,0.42969 -0.91406,0.87109 -1.04687,1.52734 -0.27344,1.30469 0.0508,2.51172 0.33203,3.78125 0.3125,1.39063 0.55078,2.79688 0.71093,4.21485 0.32813,3.0039 0.35938,6.00781 0.0898,9.01562 -0.20313,2.20703 -0.875,5.28125 1.77344,6.19531 2.17578,0.75 4.64843,0.16016 6.85937,-0.0547 6.39844,-0.60547 12.70703,0.52734 19.08594,0.7539 3.29687,0.11719 6.6289,0.0234 9.92187,-0.10156 2.94141,-0.10938 6.06641,0.13672 8.89453,-0.80859 0.83204,-0.51172 1.63672,-1.16797 1.82032,-2.1836 0.1914,-1.05859 -0.0273,-2.13672 -0.24219,-3.17969 -0.0703,-0.2539 -0.0312,-0.49609 0.10937,-0.71875 -0.043,-0.0391 -0.0977,-0.0977 -0.15625,-0.16015 -0.27734,-0.20703 -0.40234,-0.48438 -0.3789,-0.83203 -0.0156,-0.0859 -0.0273,-0.17188 -0.043,-0.25782 -0.11719,-0.71875 -0.22656,-1.4414 -0.30078,-2.16796 -0.15625,-1.44532 -0.23438,-2.89844 -0.24219,-4.35157 -0.004,-0.29297 0.0898,-0.55078 0.28516,-0.76953 0.1914,-0.22265 0.43359,-0.34765 0.72656,-0.3789 0.51953,-0.83594 1.5,-1.52344 2.4375,-1.59766 0.0664,-2.91016 0.23828,-6.00781 -1.22266,-8.59375 z m 0,0"
       id="path9" />
    <path
       style="fill:#107173;fill-opacity:1;fill-rule:nonzero;stroke:none"
       d="m 219.58203,139.54297 c -0.0586,0.0352 -0.11328,0.0703 -0.13281,0.0859 -0.41406,0.30859 -0.80078,0.64843 -1.16406,1.01171 -1.07813,1.0586 -2.08985,2.17969 -3.03516,3.35938 -1.03906,1.24609 -1.97266,2.57031 -2.80078,3.96484 -0.33985,0.56641 -0.625,1.15625 -0.86328,1.76953 -0.10157,0.28516 -0.15235,0.57813 -0.15625,0.87891 0.10937,1.05859 -1.07813,1.41406 -1.75782,0.96484 -0.29687,-0.0469 -0.52343,-0.20312 -0.67578,-0.45703 l -0.008,-0.0195 c -0.0781,0.0469 -0.14844,0.0977 -0.21875,0.15235 0,0 -0.0312,0.0352 -0.0742,0.0781 -0.0469,0.043 -0.11328,0.125 -0.16406,0.19141 0,0.008 -0.0195,0.0312 -0.043,0.0742 -0.14453,0.28906 -0.37109,0.47265 -0.68359,0.55468 0.0391,1.88282 0.20703,3.75782 0.50781,5.6211 0.0469,0.043 0.0859,0.0937 0.125,0.14453 0.0469,0.0586 0.0859,0.12109 0.11719,0.1914 1.08593,0.0703 0.98828,-0.70703 0.90234,-1.61718 -0.10937,-1.12891 -0.30078,-2.22657 -0.22656,-3.35938 0.0977,-1.42969 2.27734,-0.98828 2.18359,0.42188 -0.10156,1.5039 0.54297,3.00781 0.22266,4.51953 -0.082,0.44531 -0.26172,0.85156 -0.53516,1.21094 0.082,0.0117 0.16406,0.0273 0.24219,0.0508 2.50391,0.78515 3.82422,3.04687 5.52344,4.85156 0.73437,0.78516 1.54687,1.67578 2.40234,2.32422 0.45703,0.34375 0.4375,0.25781 0.48047,-0.30469 0.0352,-0.48437 -0.0156,-0.97266 -0.0234,-1.45703 -0.0156,-0.37109 0.1211,-0.67188 0.41797,-0.90234 0.0391,-4.04297 0.17578,-8.07422 0.1875,-12.11329 0.0117,-4.01562 0.55078,-8.33984 -0.75,-12.1914 z m 0,0"
       id="path10" />
    <path
       style="fill:#ff914d;fill-opacity:1;fill-rule:nonzero;stroke:none"
       d="m 199.44922,185.92969 c -2.14453,-3.63672 -3.76953,-7.78907 -6.64063,-10.94532 -0.21093,-0.23046 -0.3164,-0.5 -0.30859,-0.80859 -0.69141,0.11719 -1.38672,0.17578 -2.08984,0.17578 0.0117,0.78906 0.043,1.57813 0.0859,2.36719 0.14063,-0.0156 0.28125,0 0.41797,0.043 0.13672,0.043 0.25781,0.10937 0.36328,0.20312 0.10547,0.0937 0.19141,0.20703 0.25,0.33594 0.0586,0.12891 0.0898,0.26563 0.0898,0.41016 0.0586,1.23437 0.78515,2.33593 1.33984,3.41015 0.63672,1.2461 1.07422,2.57032 1.57422,3.8711 1.07422,2.82031 2.19141,5.61718 3.57422,8.30078 0.49609,0.9375 0.91797,1.91015 1.26172,2.91406 0.14843,0.44922 0.28125,0.90625 0.45312,1.34766 0.0937,0.2539 0.21094,0.5 0.34766,0.73437 0.8164,0.1211 1.74219,-0.5 2.50781,-0.72265 0.83594,-0.20704 1.68359,-0.29688 2.53906,-0.26954 -2.02343,-3.74218 -3.60156,-7.70703 -5.76562,-11.36718 z m 0,0"
       id="path11" />
    <path
       style="fill:#ff914d;fill-opacity:1;fill-rule:nonzero;stroke:none"
       d="m 193.08203,168.87891 c -0.0664,-0.10157 -0.11719,-0.21094 -0.15234,-0.32813 -1.92578,0.0312 -3.83985,0.0352 -5.77735,0.0352 -2.97265,0 -5.92187,-0.28516 -8.87109,-0.53907 0.0586,0.51172 0.10547,1.03125 0.17187,1.54297 0.0547,0.5586 0.16407,1.10547 0.33204,1.64453 0.0508,0.1836 0.125,0.35938 0.22265,0.52344 0.0781,0.11719 0.21485,0.20313 0.1211,0.20313 0.9375,0.16015 1.91015,-0.10938 2.85156,-0.13282 1.41406,-0.0352 2.85547,0.19922 4.27734,0.19922 1.94531,0 3.9336,0.25782 5.86328,-0.0508 0.28907,-0.0195 0.56641,-0.0937 0.82813,-0.22656 -0.0586,0.0234 0.0703,-0.16016 0.0859,-0.25 0.0469,-0.22266 0.0781,-0.44922 0.0977,-0.67969 0.0234,-0.64844 0.008,-1.29687 -0.0508,-1.9414 z m 0,0"
       id="path12" />
    <path
       style="fill:#000000;fill-opacity:1;fill-rule:nonzero;stroke:none"
       d="m 204.62891,125.32031 c -0.27344,-2.89062 -3.87891,-4.36328 -6.42188,-3.87109 -3.44922,0.67187 -4.66406,4.92187 -2.36328,7.4414 0.0312,0.0352 0.0664,0.0703 0.10156,0.10157 2.33203,3.1875 9.09375,0.65234 8.6836,-3.67188 z m -2.19532,0.60938 c -0.20312,2.125 -4.41797,3.39843 -5.01172,0.95312 -0.0625,-0.34375 -0.25781,-0.57812 -0.58984,-0.69531 -0.0664,-0.59766 0.0703,-1.14453 0.41797,-1.63672 0.49609,-0.72265 1.17969,-0.95312 2.01953,-0.97656 1.26563,-0.0469 3.30469,0.8125 3.16797,2.35156 z m 0,0"
       id="path13" />
    <g
       clip-rule="nonzero"
       clip-path="url(#b0761fb985)"
       id="g14">
      <path
         style="fill:#000000;fill-opacity:1;fill-rule:nonzero;stroke:none"
         d="m 221.68359,138.80469 c -0.12109,-0.40625 -0.39062,-0.64453 -0.80859,-0.70703 -0.0469,-0.22266 -0.15234,-0.41016 -0.3125,-0.56641 -0.89844,-0.91406 -2.22266,0.10937 -2.9375,0.72266 -1.32031,1.15625 -2.53125,2.41796 -3.64063,3.78125 -0.98437,1.17578 -1.90234,2.40234 -2.74609,3.68359 -0.0703,-2.34375 -0.39062,-4.63672 -1.61719,-6.76172 -0.0156,-0.0273 -0.0312,-0.0508 -0.0469,-0.0742 6.5664,-5.84375 8.12109,-17.42968 1.75781,-23.96875 -2.59375,-2.64453 -6.46875,-4.20312 -10.125,-4.44531 -3.45312,-0.22266 -6.71875,0.94141 -9.37109,3.13281 -3.13282,2.59375 -5.27735,6.19532 -6.51563,10.03125 -0.64453,1.96485 -0.86719,3.97657 -0.66406,6.03125 0.20312,2.0586 0.8125,3.98828 1.82812,5.78906 0.51172,1.52735 1.5,2.78516 2.73438,3.8086 -3.66797,-0.0352 -7.36328,-0.125 -11.01953,0.11719 l 0.0156,-0.0156 c 7.03907,-5.66016 8.85938,-17.72656 2.31641,-24.44922 -2.58594,-2.64843 -6.46094,-4.21093 -10.10938,-4.44531 -3.44921,-0.22266 -6.71875,0.94141 -9.37109,3.13281 -3.14062,2.59766 -5.28516,6.20313 -6.52344,10.03907 -0.64843,1.96484 -0.87109,3.97265 -0.66797,6.03124 0.20313,2.0586 0.8125,3.98829 1.83204,5.78516 0.44531,1.28125 1.16406,2.37891 2.15625,3.29688 -0.57422,0.28125 -1.09375,0.64453 -1.55469,1.08593 -1.76563,1.76172 -1.36328,4.6211 -0.79297,6.77735 0.1875,0.72265 0.34375,1.46093 0.46875,2.20703 -0.93359,-0.15625 -2.14453,0.14453 -2.94141,0.15625 -0.84375,0.0156 -1.13281,0.78515 -0.93359,1.41406 -0.0391,0.0977 -0.0625,0.19922 -0.0742,0.30078 -0.16797,1.33985 0.14844,2.60938 0.1875,3.9375 0.0156,0.63281 0.60547,1.03516 1.19141,1.02344 0.5,-0.008 2.17578,-0.375 2.42578,0.12109 0.12109,0.26563 0.32422,0.4375 0.60547,0.50782 -0.0352,1.23437 -0.17188,2.46093 -0.19922,3.6914 -0.0195,1.26563 -0.26172,2.50391 -0.1211,3.76953 0.62891,5.66016 7.77344,4.36328 11.62891,4.04297 2.77734,-0.23437 5.53516,-0.12109 8.28906,0.0859 0.23438,1.57422 0.13672,3.72656 1.01172,5.09766 -0.58984,1.03125 -0.71484,2.67187 -0.92969,3.57812 -0.59375,2.48828 -1.65234,4.99219 -2.58203,7.37891 -2.12109,5.4414 -5.0664,10.52734 -7.07422,16.01562 -0.29687,0.81641 0.17579,1.60547 1.08204,1.60156 2.79687,0 5.63671,-0.21093 8.39453,0.38672 0.44531,0.0977 1.03906,-0.14843 1.21093,-0.59375 1.75,-4.69531 3.13672,-9.5039 4.53516,-14.3125 0.62891,-2.17187 1.19141,-4.32031 1.64844,-6.53515 v 0.0156 c 0.0391,2.15625 0,4.31641 0,6.47266 0,4.42187 -0.19531,8.83594 -0.58985,13.24609 -0.0664,0.75781 0.40235,1.31641 1.17579,1.32031 1.32812,0 2.65234,0.0391 3.97656,-0.0625 1.26562,-0.0937 2.83984,-0.26171 3.29687,-1.64062 0.11719,-0.29297 0.0859,-0.57031 -0.0898,-0.83203 0.32812,-0.16016 0.49219,-0.42188 0.49609,-0.78516 0.25391,-3.53515 -0.36718,-7.07812 -0.39062,-10.60937 0,-1.875 -0.14453,-3.74219 -0.30078,-5.61328 0.64062,1.32812 1.125,2.70312 1.65625,4.08203 0.6289,1.65625 1.28515,3.30078 1.98828,4.92968 0.66015,1.52735 1.49609,2.96875 2.14453,4.4961 0.71094,1.67187 1.03906,4.66406 3.23437,4.99219 1.13672,0.17187 2.26172,-0.4336 3.30469,-0.78907 0.72266,-0.24609 1.67578,-0.16797 2.42578,-0.18359 0.71485,-0.0156 1.41407,0.12891 1.92578,-0.47656 0.13282,-0.16407 0.21094,-0.34766 0.23829,-0.55469 0.15234,-0.27344 0.18359,-0.55469 0.0937,-0.85547 -0.0781,-0.26172 -0.20704,-0.49609 -0.38672,-0.70703 -2.26953,-3.98438 -3.95313,-8.26953 -6.25391,-12.23828 -2.19531,-3.80078 -3.95703,-7.95313 -6.90625,-11.25 1.24219,-1.07813 1.01172,-3.26953 0.90234,-4.94141 0.60547,-0.0156 1.19532,-0.0352 1.79688,-0.0586 2.94531,-0.1211 5.92187,0.0508 8.75391,-0.92578 0.12109,-0.0391 0.23046,-0.0977 0.33203,-0.17578 1.25,-0.76172 2.3125,-1.79297 2.73047,-3.23438 0.36328,-1.25391 0.22265,-2.55469 -0.0234,-3.82031 0.43359,-0.0195 0.84765,-0.11328 1.25,-0.28125 -0.043,0.15234 -0.0547,0.30859 -0.0352,0.46484 0.0195,0.15625 0.0703,0.30469 0.14453,0.44531 0.0781,0.13672 0.17969,0.25391 0.30078,0.35547 0.125,0.0977 0.26172,0.16797 0.41407,0.21485 1.35937,0.42578 2.39062,1.88281 3.25781,2.92968 0.90625,1.08594 1.89844,2.03907 2.88281,3.04688 0.91797,0.94531 2.27735,1.98047 3.625,1.19531 0.86328,-0.50781 1.15625,-1.32031 1.24219,-2.20312 0.28906,-0.22657 0.42969,-0.52344 0.42187,-0.89063 0,-4.67578 0.17969,-9.35156 0.19922,-14.02734 0.0117,-4.21485 0.5,-8.67188 -0.875,-12.73828 z m -67.35937,14.5664 c -0.0937,-0.75 -0.21485,-1.5 -0.125,-2.24609 l 0.38672,-0.0391 c 0.27734,-0.0273 0.55468,-0.0508 0.83593,-0.0625 h 0.125 c 0.20704,0.14062 0.4336,0.19922 0.6836,0.17578 h 0.0352 c 0.0703,0.77344 0.11329,1.55078 0.14063,2.32031 -0.63281,-0.19531 -1.38281,-0.19531 -2.08203,-0.14844 z m 34.8789,-17.40625 c 0.004,-0.23828 -0.0625,-0.45312 -0.20312,-0.64843 -0.17188,-0.25391 -0.33203,-0.51172 -0.48438,-0.77735 -0.0469,-0.14844 -0.12109,-0.28515 -0.22656,-0.40234 -1.21875,-2.21485 -1.69922,-4.57813 -1.43359,-7.09375 0.30078,-2.82813 1.49219,-5.67188 3.08984,-8.01953 2.53906,-3.73047 6.20313,-6.46875 10.86328,-6.36328 4.53125,0.0977 9.24219,2.84765 11.17188,6.99609 1.85937,4.00391 1.39062,9.18359 -0.46875,13.10156 -2.20703,4.65235 -7.04297,7.875 -12.19141,7.9336 -2.16797,0.0234 -4.40234,-0.73047 -6.32812,-1.67188 -1.44141,-0.70312 -2.88672,-1.69922 -3.78907,-3.05469 z m -31.47656,-1.41406 c -0.0469,-0.15234 -0.12109,-0.28516 -0.22265,-0.40625 -1.22657,-2.21484 -1.70704,-4.58203 -1.44141,-7.10156 0.30078,-2.82813 1.49609,-5.66016 3.08594,-8.01563 2.54297,-3.73437 6.20312,-6.46875 10.86718,-6.36328 4.53125,0.0977 9.24219,2.84375 11.16797,6.9961 1.86328,4.0039 1.39453,9.18359 -0.46875,13.10156 -2.20312,4.64844 -7.03906,7.87109 -12.1875,7.92969 -2.16797,0.0273 -4.40625,-0.72657 -6.32812,-1.67188 -1.44141,-0.70312 -2.89063,-1.69922 -3.78906,-3.05469 0.004,-0.23828 -0.0625,-0.45312 -0.20313,-0.64843 -0.16797,-0.25391 -0.32812,-0.51172 -0.48047,-0.77735 z m 22.08594,51.02734 c -1.57813,4.62891 -2.72266,9.38282 -4.37109,13.99219 -2.08985,-0.33594 -4.23047,-0.30078 -6.35157,-0.26953 0.8086,-2 1.7461,-3.95312 2.6875,-5.89844 1.1836,-2.4414 2.25,-4.90625 3.3086,-7.40234 1.09765,-2.58594 1.9375,-5.27734 2.8789,-7.92188 0.24219,-0.72656 0.4375,-1.46875 0.58985,-2.22265 0.10156,-0.45313 0.20312,-0.90235 0.33203,-1.35156 0.0273,-0.0977 0.0625,-0.19532 0.0977,-0.29297 0.91016,0.13672 1.92188,-0.0547 2.77735,-0.13282 0.34375,-0.0273 0.6875,-0.0273 1.03125,0 -1.48438,3.69141 -1.70313,7.75 -2.98047,11.5 z m 9.44531,13.40235 c -0.0586,0.0273 -0.11719,0.0508 -0.17969,0.0703 -0.17578,0.0547 -0.35937,0.0937 -0.54687,0.11719 -0.625,0.0898 -1.25391,0.13672 -1.88672,0.14844 -0.53516,0.0195 -1.06641,0.0195 -1.60547,0.0156 0.31641,-3.91406 0.48828,-7.83984 0.51172,-11.76953 0.0156,-2.15234 0,-4.30078 0,-6.44922 0,-2.04687 -0.58984,-4.10937 -0.41797,-6.14844 0.0117,-0.15625 -0.004,-0.30859 -0.0508,-0.45703 0.0195,-0.0469 0.0352,-0.0977 0.0508,-0.14844 0.008,-0.043 0.0234,-0.082 0.0391,-0.12109 0.52735,0 1.05469,0 1.58204,0.008 0.47265,0 0.95312,0.0156 1.43359,0.0352 0.0273,4.39062 0.74219,8.73828 0.80859,13.125 0.0508,3.4375 0.67188,6.95312 0.42188,10.38281 -0.0273,0.33985 0.0703,0.63281 0.30078,0.87891 -0.17969,0.0664 -0.33203,0.17187 -0.46094,0.3125 z m -2.99219,-26.95313 c -1.41406,0 -2.86328,-0.23437 -4.27734,-0.20312 -0.94141,0.0234 -1.91406,0.29297 -2.85156,0.13281 0.0937,0 -0.043,-0.0859 -0.1211,-0.19922 -0.0977,-0.16797 -0.17187,-0.34375 -0.22265,-0.52734 -0.16797,-0.53516 -0.27735,-1.08203 -0.33203,-1.64063 -0.0664,-0.51562 -0.11328,-1.03125 -0.17188,-1.54687 2.94922,0.25781 5.90235,0.54297 8.8711,0.54297 1.92578,0 3.85156,0 5.77734,-0.0352 0.0352,0.11719 0.0859,0.22656 0.15234,0.32813 0.0586,0.64453 0.0742,1.28906 0.0508,1.9375 -0.0156,0.23046 -0.0508,0.45703 -0.0977,0.67968 -0.0156,0.0898 -0.14063,0.27344 -0.082,0.25 -0.26172,0.13282 -0.53907,0.20703 -0.83203,0.22657 -1.9375,0.3125 -3.92579,0.0547 -5.86329,0.0547 z m 13.19141,13.90235 c 2.16406,3.66015 3.74219,7.625 5.76563,11.35937 -0.85547,-0.0273 -1.70313,0.0625 -2.53907,0.26953 -0.76562,0.22266 -1.6914,0.84375 -2.50781,0.72266 -0.13672,-0.23438 -0.25391,-0.48047 -0.34766,-0.73438 -0.17187,-0.4414 -0.30468,-0.89843 -0.45312,-1.34765 -0.34375,-1.00391 -0.76563,-1.97656 -1.26172,-2.91406 -1.38281,-2.6875 -2.5,-5.48047 -3.57422,-8.30079 -0.5,-1.30078 -0.9375,-2.6289 -1.57422,-3.87109 -0.55468,-1.07422 -1.27734,-2.17578 -1.33593,-3.41016 -0.004,-0.14453 -0.0352,-0.28125 -0.0937,-0.41015 -0.0586,-0.12891 -0.14454,-0.24219 -0.25,-0.33594 -0.10547,-0.0937 -0.22657,-0.16016 -0.36329,-0.20312 -0.13671,-0.043 -0.27343,-0.0586 -0.41796,-0.043 -0.043,-0.78907 -0.0742,-1.57813 -0.0859,-2.3711 0.70312,0.004 1.39844,-0.0547 2.08984,-0.17578 -0.008,0.3125 0.0977,0.58203 0.3086,0.8086 2.86328,3.16796 4.48828,7.3164 6.63281,10.95703 z m 7.14063,-35.48828 c -0.28907,0.0312 -0.53125,0.16015 -0.72657,0.3789 -0.1914,0.21875 -0.28906,0.47656 -0.28125,0.76953 0,1.45703 0.0781,2.91407 0.22657,4.36328 0.0781,0.72657 0.18359,1.44922 0.30468,2.16797 0.0117,0.0859 0.0234,0.17188 0.0391,0.25782 -0.0234,0.34765 0.10546,0.625 0.38281,0.83203 0.0547,0.0586 0.11328,0.11718 0.15625,0.16015 -0.14453,0.22266 -0.17969,0.46094 -0.11328,0.71875 0.21875,1.03907 0.43359,2.11719 0.24218,3.17578 -0.17968,1.01172 -0.98437,1.67188 -1.8164,2.1875 -2.83203,0.94532 -5.94922,0.69532 -8.89844,0.8086 -3.29297,0.12109 -6.625,0.21875 -9.91797,0.10156 -6.38281,-0.22656 -12.6875,-1.36719 -19.08594,-0.75391 -2.22265,0.19922 -4.68359,0.8086 -6.86328,0.0547 -2.64843,-0.91406 -1.97265,-3.99219 -1.77343,-6.19922 0.26953,-3.0039 0.24218,-6.01172 -0.0859,-9.01172 -0.16016,-1.41796 -0.39844,-2.82421 -0.71485,-4.21875 -0.27734,-1.26562 -0.60546,-2.47656 -0.33203,-3.77734 0.13672,-0.65625 0.57032,-1.09766 1.04688,-1.53125 0.11719,-0.0937 0.24609,-0.17187 0.38672,-0.23047 0.0859,-0.0352 0.17578,-0.0664 0.26172,-0.0937 0.37109,0.625 1.1875,0.59766 1.67187,0.1836 1.5,0.78125 3.07031,1.36328 4.71875,1.74609 1.50391,0.34375 3.02344,0.44141 4.55859,0.29687 1.53516,-0.14843 3.01172,-0.53125 4.42188,-1.15625 0.23437,0.20704 0.50391,0.28907 0.80859,0.23829 5.27344,-0.67579 10.66016,-0.40625 15.97266,-0.40625 h 0.16016 c 0.33984,0.0195 0.60937,-0.10938 0.80859,-0.38672 1.30469,0.61328 2.66016,1.08203 4.0625,1.41406 4.03125,0.96094 8.19531,0 11.58594,-2.27344 1.45703,2.58985 1.28515,5.6875 1.21093,8.59766 -0.91796,0.0664 -1.90234,0.75 -2.42578,1.58594 z m 13.75,1.27343 c -0.0156,4.04297 -0.14844,8.07422 -0.19141,12.11328 -0.29297,0.23047 -0.43359,0.53125 -0.41406,0.90235 0,0.48437 0.0586,0.97265 0.0234,1.45703 -0.043,0.5625 -0.0234,0.64453 -0.48046,0.30078 -0.85547,-0.64453 -1.67188,-1.53516 -2.40235,-2.32031 -1.70312,-1.82031 -3.02344,-4.07422 -5.52344,-4.85156 -0.0781,-0.0234 -0.16015,-0.0391 -0.24218,-0.0508 0.27343,-0.36328 0.45312,-0.76562 0.53515,-1.21093 0.31641,-1.51172 -0.32812,-3.01563 -0.22265,-4.51953 0.0937,-1.41407 -2.08594,-1.85547 -2.1836,-0.42579 -0.0781,1.13672 0.11719,2.23438 0.22266,3.36329 0.0898,0.91796 0.1875,1.69531 -0.90234,1.61718 -0.0312,-0.0703 -0.0703,-0.13281 -0.11329,-0.1914 -0.0391,-0.0508 -0.082,-0.10157 -0.1289,-0.14453 -0.29688,-1.85938 -0.46875,-3.73047 -0.50781,-5.61719 0.3125,-0.0781 0.54296,-0.26172 0.6875,-0.55078 0.0234,-0.043 0.0352,-0.0664 0.0391,-0.0781 0.0547,-0.0625 0.10937,-0.1289 0.16406,-0.1875 0.0586,-0.0625 0.0703,-0.0703 0.0781,-0.0781 0.0703,-0.0547 0.14062,-0.10547 0.21484,-0.15235 l 0.0117,0.0156 c 0.15234,0.25781 0.375,0.41406 0.67187,0.46094 0.6836,0.45703 1.86719,0.0937 1.76172,-0.96485 0.004,-0.30078 0.0547,-0.59375 0.15235,-0.8789 0.23828,-0.61329 0.52734,-1.20313 0.86718,-1.76954 0.82813,-1.39453 1.76172,-2.71875 2.80078,-3.96484 0.94532,-1.17969 1.95704,-2.30078 3.03125,-3.35937 0.36719,-0.36719 0.75391,-0.70313 1.16407,-1.01172 0.0234,-0.0156 0.0781,-0.0508 0.13672,-0.0859 1.28515,3.86328 0.74609,8.1875 0.73437,12.17578 z m 0,0"
         id="path14" />
    </g>
    <path
       style="fill:#000000;fill-opacity:1;fill-rule:nonzero;stroke:none"
       d="m 173.83594,125.32031 c -0.27344,-2.89062 -3.88282,-4.36328 -6.42188,-3.87109 -3.45312,0.67187 -4.66406,4.92187 -2.36719,7.4414 0.0352,0.0352 0.0703,0.0703 0.10547,0.10157 2.33203,3.1875 9.09375,0.65234 8.6836,-3.67188 z m -2.19922,0.60938 c -0.20313,2.125 -4.41406,3.39843 -5.00781,0.95312 -0.0625,-0.34375 -0.25782,-0.57812 -0.58985,-0.69531 -0.0703,-0.59766 0.0703,-1.14453 0.41797,-1.63672 0.49219,-0.72265 1.17578,-0.95312 2.01953,-0.97656 1.26563,-0.0469 3.30469,0.8125 3.16016,2.35156 z m 0,0"
       id="path15" />
    <g
       style="fill:#000000;fill-opacity:1"
       id="g17">
      <g
         transform="translate(37.967604,236.71941)"
         id="g16">
        <path
           style="stroke:none"
           d="m 13.6875,-20.640625 c 0.550781,0.0625 1,0.273437 1.34375,0.625 0.34375,0.34375 0.570312,0.746094 0.6875,1.203125 0.125,0.460938 0.125,0.90625 0,1.34375 -0.117188,0.429688 -0.34375,0.773438 -0.6875,1.03125 -0.34375,0.261719 -0.792969,0.351562 -1.34375,0.265625 -0.949219,-0.113281 -1.914062,-0.203125 -2.890625,-0.265625 -0.136719,2.199219 -0.273437,4.390625 -0.40625,6.578125 -0.125,2.179687 -0.261719,4.355469 -0.40625,6.53125 -0.023437,0.585937 -0.199219,1.054687 -0.53125,1.40625 -0.324219,0.34375 -0.710937,0.574219 -1.15625,0.6875 -0.449219,0.105469 -0.898437,0.105469 -1.34375,0 -0.4375,-0.113281 -0.796875,-0.34375 -1.078125,-0.6875 -0.28125,-0.351563 -0.414062,-0.820313 -0.390625,-1.40625 0.144531,-2.175781 0.28125,-4.363281 0.40625,-6.5625 0.132813,-2.207031 0.269531,-4.398437 0.40625,-6.578125 -0.898437,0.02344 -1.777344,0.07813 -2.640625,0.171875 -0.574219,0.04297 -1.039062,-0.06641 -1.390625,-0.328125 -0.355469,-0.257812 -0.589844,-0.609375 -0.703125,-1.046875 -0.105469,-0.4375 -0.101562,-0.882813 0.015625,-1.34375 0.125,-0.457031 0.359375,-0.851563 0.703125,-1.1875 0.34375,-0.332031 0.800781,-0.53125 1.375,-0.59375 3.34375,-0.332031 6.6875,-0.28125 10.03125,0.15625 z m 0,0"
           id="path16" />
      </g>
    </g>
    <g
       style="fill:#000000;fill-opacity:1"
       id="g19">
      <g
         transform="translate(55.265223,236.71941)"
         id="g18">
        <path
           style="stroke:none"
           d="m 12.875,-20.96875 c 0.09375,-0.5625 0.316406,-0.972656 0.671875,-1.234375 0.363281,-0.257813 0.769531,-0.390625 1.21875,-0.390625 0.457031,0 0.890625,0.121094 1.296875,0.359375 0.414062,0.242187 0.738281,0.574219 0.96875,1 0.226562,0.417969 0.28125,0.90625 0.15625,1.46875 -1.085938,5.523437 -1.824219,11.078125 -2.21875,16.671875 -0.04297,0.5625 -0.230469,1.023438 -0.5625,1.375 -0.324219,0.34375 -0.714844,0.578125 -1.171875,0.703125 -0.460937,0.117187 -0.90625,0.117187 -1.34375,0 -0.429687,-0.125 -0.78125,-0.351563 -1.0625,-0.6875 -0.28125,-0.34375 -0.402344,-0.804687 -0.359375,-1.390625 0.0625,-0.9375 0.132812,-1.875 0.21875,-2.8125 0.09375,-0.9375 0.191406,-1.878906 0.296875,-2.828125 H 6.875 c -0.148438,1.199219 -0.292969,2.398437 -0.4375,3.59375 -0.136719,1.1875 -0.273438,2.371094 -0.40625,3.546875 -0.085938,0.585938 -0.296875,1.046875 -0.640625,1.390625 -0.335937,0.332031 -0.730469,0.550781 -1.1875,0.65625 -0.460937,0.113281 -0.914063,0.113281 -1.359375,0 C 2.40625,0.347656 2.054688,0.128906 1.796875,-0.203125 1.535156,-0.546875 1.445312,-1.007812 1.53125,-1.59375 c 0.175781,-1.632812 0.363281,-3.273438 0.5625,-4.921875 0.207031,-1.65625 0.398438,-3.3125 0.578125,-4.96875 0.09375,-0.78125 0.1875,-1.570313 0.28125,-2.375 0.09375,-0.800781 0.1875,-1.601563 0.28125,-2.40625 0.082031,-0.695313 0.148437,-1.4375 0.203125,-2.21875 0.050781,-0.78125 0.207031,-1.5 0.46875,-2.15625 0.195312,-0.539063 0.5,-0.9375 0.90625,-1.1875 0.414062,-0.25 0.859375,-0.367187 1.328125,-0.359375 0.46875,0.01172 0.898437,0.132812 1.296875,0.359375 0.40625,0.230469 0.691406,0.546875 0.859375,0.953125 0.164063,0.398438 0.140625,0.875 -0.078125,1.4375 -0.242188,0.636719 -0.382812,1.339844 -0.421875,2.109375 -0.042969,0.773437 -0.101563,1.496094 -0.171875,2.171875 -0.042969,0.324219 -0.085938,0.648438 -0.125,0.96875 -0.042969,0.324219 -0.085938,0.640625 -0.125,0.953125 h 4.171875 c 0.175781,-1.28125 0.375,-2.566406 0.59375,-3.859375 0.226563,-1.300781 0.472656,-2.59375 0.734375,-3.875 z m 0,0"
           id="path17" />
      </g>
    </g>
    <g
       style="fill:#000000;fill-opacity:1"
       id="g21">
      <g
         transform="translate(74.001807,236.71941)"
         id="g20">
        <path
           style="stroke:none"
           d="m 17.0625,-2.8125 c 0.34375,0.480469 0.484375,0.933594 0.421875,1.359375 -0.05469,0.429687 -0.242187,0.804687 -0.5625,1.125 -0.324219,0.32421875 -0.710937,0.546875 -1.15625,0.671875 -0.449219,0.132812 -0.90625,0.132812 -1.375,0 -0.46875,-0.125 -0.875,-0.421875 -1.21875,-0.890625 -0.90625,-1.238281 -1.917969,-2.375 -3.03125,-3.40625 C 9.035156,-4.992188 7.84375,-5.9375 6.5625,-6.78125 6.46875,-5.601562 6.375,-4.414062 6.28125,-3.21875 6.195312,-2.03125 6.101562,-0.847656 6,0.328125 5.957031,0.910156 5.769531,1.367188 5.4375,1.703125 5.113281,2.046875 4.71875,2.273438 4.25,2.390625 3.789062,2.515625 3.347656,2.519531 2.921875,2.40625 2.492188,2.300781 2.140625,2.070312 1.859375,1.71875 1.578125,1.375 1.457031,0.910156 1.5,0.328125 c 0.175781,-2.175781 0.3125,-4.394531 0.40625,-6.65625 0.101562,-2.257813 0.378906,-4.46875 0.828125,-6.625 0.21875,-1.125 0.625,-2.207031 1.21875,-3.25 0.601563,-1.039063 1.367187,-1.898437 2.296875,-2.578125 0.9375,-0.675781 2.023438,-1.046875 3.265625,-1.109375 0.851563,-0.03906 1.664063,0.121094 2.4375,0.484375 0.769531,0.355469 1.425781,0.855469 1.96875,1.5 0.539063,0.636719 0.90625,1.355469 1.09375,2.15625 0.1875,0.804688 0.140625,1.632812 -0.140625,2.484375 -0.28125,0.867187 -0.742188,1.679687 -1.375,2.4375 -0.625,0.761719 -1.34375,1.421875 -2.15625,1.984375 2.132812,1.742188 4.039062,3.75 5.71875,6.03125 z m -8.03125,-10 c 0.113281,-0.113281 0.3125,-0.296875 0.59375,-0.546875 0.28125,-0.25 0.53125,-0.515625 0.75,-0.796875 0.21875,-0.28125 0.3125,-0.5 0.28125,-0.65625 -0.08594,-0.425781 -0.242188,-0.65625 -0.46875,-0.6875 -0.230469,-0.03906 -0.492188,0.02344 -0.78125,0.1875 -0.292969,0.167969 -0.578125,0.398438 -0.859375,0.6875 -0.28125,0.292969 -0.523437,0.570312 -0.71875,0.828125 -0.199219,0.261719 -0.328125,0.449219 -0.390625,0.5625 -0.15625,0.460937 -0.296875,0.960937 -0.421875,1.5 0.40625,-0.05078 0.765625,-0.171875 1.078125,-0.359375 0.320312,-0.195312 0.632812,-0.4375 0.9375,-0.71875 z m 0,0"
           id="path19" />
      </g>
    </g>
    <g
       style="fill:#000000;fill-opacity:1"
       id="g23">
      <g
         transform="translate(92.978234,236.71941)"
         id="g22">
        <path
           style="stroke:none"
           d="m 2.84375,-18.484375 c 0.0625,-0.550781 0.257812,-1 0.59375,-1.34375 0.34375,-0.34375 0.742188,-0.570313 1.203125,-0.6875 0.46875,-0.125 0.921875,-0.128906 1.359375,-0.01563 0.4375,0.105469 0.785156,0.335938 1.046875,0.6875 0.257813,0.355469 0.359375,0.808594 0.296875,1.359375 C 6.769531,-13.054688 6.320312,-7.625 6,-2.1875 c -0.042969,0.585938 -0.226562,1.054688 -0.546875,1.40625 -0.3125,0.34375 -0.699219,0.574219 -1.15625,0.6875 -0.449219,0.1015625 -0.890625,0.1015625 -1.328125,0 C 2.53125,-0.207031 2.164062,-0.4375 1.875,-0.78125 1.582031,-1.132812 1.457031,-1.601562 1.5,-2.1875 1.820312,-7.625 2.269531,-13.054688 2.84375,-18.484375 Z m 0,0"
           id="path21" />
      </g>
    </g>
    <g
       style="fill:#000000;fill-opacity:1"
       id="g25">
      <g
         transform="translate(101.85189,236.71941)"
         id="g24">
        <path
           style="stroke:none"
           d="m 13.140625,-15.90625 c 0.195313,-0.53125 0.503906,-0.914062 0.921875,-1.15625 0.425781,-0.25 0.875,-0.367188 1.34375,-0.359375 0.46875,0.01172 0.894531,0.136719 1.28125,0.375 0.394531,0.230469 0.675781,0.542969 0.84375,0.9375 0.175781,0.398437 0.160156,0.867187 -0.04687,1.40625 -1.855469,4.9375 -3.933594,9.742187 -6.234375,14.40625 C 10.988281,0.242188 10.601562,0.582031 10.09375,0.71875 9.582031,0.863281 9.070312,0.835938 8.5625,0.640625 8.050781,0.453125 7.65625,0.140625 7.375,-0.296875 6.375,-1.835938 5.550781,-3.488281 4.90625,-5.25 4.257812,-7.007812 3.6875,-8.796875 3.1875,-10.609375 c -0.5,-1.820313 -1.023438,-3.597656 -1.5625,-5.328125 -0.1875,-0.550781 -0.1875,-1.03125 0,-1.4375 0.195312,-0.414062 0.492188,-0.738281 0.890625,-0.96875 0.40625,-0.226562 0.835937,-0.34375 1.296875,-0.34375 0.457031,0 0.882812,0.125 1.28125,0.375 0.40625,0.25 0.6875,0.648438 0.84375,1.1875 0.539062,1.699219 1.054688,3.460938 1.546875,5.28125 0.488281,1.8125 1.070313,3.578125 1.75,5.296875 0.707031,-1.53125 1.382813,-3.078125 2.03125,-4.640625 0.644531,-1.5625 1.269531,-3.132812 1.875,-4.71875 z m 0,0"
           id="path23" />
      </g>
    </g>
    <g
       style="fill:#000000;fill-opacity:1"
       id="g27">
      <g
         transform="translate(120.97821,236.71941)"
         id="g26">
        <path
           style="stroke:none"
           d="m 12.515625,-6.328125 c 0.570313,0.023437 1.035156,0.195313 1.390625,0.515625 0.351562,0.3125 0.582031,0.699219 0.6875,1.15625 0.113281,0.449219 0.113281,0.890625 0,1.328125 -0.105469,0.4375 -0.335938,0.804687 -0.6875,1.09375 -0.355469,0.292969 -0.820312,0.429687 -1.390625,0.40625 C 11.148438,-1.890625 9.785156,-1.882812 8.421875,-1.8125 7.066406,-1.738281 5.707031,-1.59375 4.34375,-1.375 3.925781,-1.320312 3.488281,-1.367188 3.03125,-1.515625 2.570312,-1.660156 2.1875,-1.90625 1.875,-2.25 1.5625,-2.59375 1.445312,-3.03125 1.53125,-3.5625 1.875,-6.320312 2.25,-9.082031 2.65625,-11.84375 c 0.40625,-2.757812 0.847656,-5.519531 1.328125,-8.28125 0.0625,-0.34375 0.179687,-0.632812 0.359375,-0.875 0.164062,-0.28125 0.394531,-0.515625 0.6875,-0.703125 0.300781,-0.1875 0.675781,-0.289063 1.125,-0.3125 2.15625,-0.0625 4.3125,-0.02344 6.46875,0.109375 0.582031,0.04297 1.046875,0.230469 1.390625,0.5625 0.351563,0.335938 0.582031,0.726562 0.6875,1.171875 0.113281,0.449219 0.113281,0.890625 0,1.328125 -0.105469,0.4375 -0.335937,0.796875 -0.6875,1.078125 -0.34375,0.28125 -0.808594,0.402344 -1.390625,0.359375 C 11.144531,-17.5 9.632812,-17.546875 8.09375,-17.546875 8,-16.972656 7.898438,-16.394531 7.796875,-15.8125 c -0.09375,0.585938 -0.183594,1.167969 -0.265625,1.75 0.820312,0.01172 1.613281,0.05859 2.375,0.140625 0.59375,0.0625 1.113281,0.292969 1.5625,0.6875 0.457031,0.386719 0.6875,0.90625 0.6875,1.5625 0,0.386719 -0.109375,0.761719 -0.328125,1.125 C 11.617188,-10.191406 11.34375,-9.90625 11,-9.6875 10.664062,-9.46875 10.300781,-9.378906 9.90625,-9.421875 8.882812,-9.515625 7.863281,-9.5625 6.84375,-9.5625 c -0.085938,0.554688 -0.167969,1.121094 -0.25,1.703125 -0.074219,0.585937 -0.152344,1.152344 -0.234375,1.703125 1.019531,-0.09375 2.039063,-0.15625 3.0625,-0.1875 1.019531,-0.03125 2.050781,-0.023438 3.09375,0.015625 z m 0,0"
           id="path25" />
      </g>
    </g>
    <g
       style="fill:#000000;fill-opacity:1"
       id="g29">
      <g
         transform="translate(137.25656,236.71941)"
         id="g28">
        <path
           style="stroke:none"
           d=""
           id="path27" />
      </g>
    </g>
    <g
       style="fill:#000000;fill-opacity:1"
       id="g31">
      <g
         transform="translate(146.37003,236.71941)"
         id="g30">
        <path
           style="stroke:none"
           d="m 12.515625,-6.359375 c 0.570313,0.023437 1.035156,0.1875 1.390625,0.5 0.351562,0.304687 0.582031,0.683594 0.6875,1.140625 0.113281,0.449219 0.113281,0.898438 0,1.34375 -0.105469,0.449219 -0.335938,0.820312 -0.6875,1.109375 -0.355469,0.292969 -0.820312,0.417969 -1.390625,0.375 -1.367187,-0.039063 -2.730469,-0.03125 -4.09375,0.03125 C 7.066406,-1.796875 5.707031,-1.65625 4.34375,-1.4375 3.925781,-1.351562 3.488281,-1.382812 3.03125,-1.53125 2.570312,-1.6875 2.1875,-1.9375 1.875,-2.28125 1.5625,-2.625 1.445312,-3.0625 1.53125,-3.59375 1.875,-6.375 2.25,-9.144531 2.65625,-11.90625 c 0.40625,-2.757812 0.847656,-5.507812 1.328125,-8.25 0.0625,-0.34375 0.179687,-0.644531 0.359375,-0.90625 0.164062,-0.28125 0.394531,-0.507812 0.6875,-0.6875 0.300781,-0.175781 0.675781,-0.273438 1.125,-0.296875 2.15625,-0.08203 4.3125,-0.04687 6.46875,0.109375 0.582031,0.04297 1.046875,0.230469 1.390625,0.5625 0.351563,0.335938 0.582031,0.726562 0.6875,1.171875 0.113281,0.449219 0.113281,0.898437 0,1.34375 -0.105469,0.4375 -0.335937,0.796875 -0.6875,1.078125 -0.34375,0.273438 -0.808594,0.386719 -1.390625,0.34375 -1.480469,-0.09375 -2.992188,-0.140625 -4.53125,-0.140625 -0.09375,0.585937 -0.195312,1.167969 -0.296875,1.75 -0.09375,0.574219 -0.183594,1.152344 -0.265625,1.734375 0.820312,0.02344 1.613281,0.05859 2.375,0.109375 0.59375,0.08594 1.113281,0.320313 1.5625,0.703125 0.457031,0.375 0.6875,0.890625 0.6875,1.546875 0,0.386719 -0.109375,0.761719 -0.328125,1.125 C 11.617188,-10.253906 11.34375,-9.96875 11,-9.75 c -0.335938,0.21875 -0.699219,0.308594 -1.09375,0.265625 -1.023438,-0.09375 -2.042969,-0.128906 -3.0625,-0.109375 -0.085938,0.554688 -0.167969,1.117188 -0.25,1.6875 -0.074219,0.574219 -0.152344,1.148438 -0.234375,1.71875 1.019531,-0.09375 2.039063,-0.160156 3.0625,-0.203125 1.019531,-0.039063 2.050781,-0.03125 3.09375,0.03125 z m 0,0"
           id="path29" />
      </g>
    </g>
    <g
       style="fill:#000000;fill-opacity:1"
       id="g33">
      <g
         transform="translate(162.64837,236.71941)"
         id="g32">
        <path
           style="stroke:none"
           d="m 15.546875,-13.109375 c 0.05078,1.980469 0.09766,3.96875 0.140625,5.96875 0.03906,2 0.09375,4 0.15625,6 C 15.863281,-0.554688 15.722656,-0.09375 15.421875,0.25 15.117188,0.601562 14.75,0.832031 14.3125,0.9375 13.875,1.050781 13.425781,1.050781 12.96875,0.9375 12.519531,0.832031 12.140625,0.601562 11.828125,0.25 11.523438,-0.09375 11.363281,-0.554688 11.34375,-1.140625 c -0.02344,-0.601563 -0.03906,-1.195313 -0.04687,-1.78125 -0.01172,-0.59375 -0.02734,-1.1875 -0.04687,-1.78125 l -4.5,-0.1875 C 6.59375,-4.128906 6.441406,-3.375 6.296875,-2.625 6.160156,-1.875 6.019531,-1.117188 5.875,-0.359375 5.78125,0.222656 5.554688,0.644531 5.203125,0.90625 c -0.34375,0.257812 -0.75,0.382812 -1.21875,0.375 C 3.523438,1.269531 3.085938,1.144531 2.671875,0.90625 2.265625,0.675781 1.945312,0.351562 1.71875,-0.0625 c -0.230469,-0.414062 -0.292969,-0.914062 -0.1875,-1.5 0.351562,-1.957031 0.753906,-3.894531 1.203125,-5.8125 0.457031,-1.925781 1.097656,-3.796875 1.921875,-5.609375 0.394531,-0.90625 0.898438,-1.875 1.515625,-2.90625 0.625,-1.039063 1.332031,-1.992187 2.125,-2.859375 0.789063,-0.875 1.664063,-1.515625 2.625,-1.921875 0.894531,-0.375 1.625,-0.441406 2.1875,-0.203125 0.5625,0.242188 1,0.671875 1.3125,1.296875 0.320313,0.617187 0.554687,1.328125 0.703125,2.140625 0.15625,0.804688 0.257812,1.59375 0.3125,2.375 0.05078,0.78125 0.08594,1.433594 0.109375,1.953125 z m -7.5625,3.78125 c 0.539063,0.023437 1.066406,0.042969 1.578125,0.0625 0.519531,0.023437 1.039062,0.042969 1.5625,0.0625 -0.02344,-0.664063 -0.03906,-1.320313 -0.04687,-1.96875 -0.01172,-0.65625 -0.02344,-1.300781 -0.03125,-1.9375 -0.02344,-0.257813 -0.03125,-0.535156 -0.03125,-0.828125 0,-0.289062 0,-0.582031 0,-0.875 -0.34375,0.398438 -0.636719,0.773438 -0.875,1.125 -0.398437,0.605469 -0.761719,1.234375 -1.09375,1.890625 -0.335942,0.648437 -0.632818,1.296875 -0.89063,1.953125 -0.023438,0.085938 -0.046875,0.171875 -0.078125,0.265625 -0.023437,0.085937 -0.054687,0.167969 -0.09375,0.25 z m 0,0"
           id="path31" />
      </g>
    </g>
    <g
       style="fill:#000000;fill-opacity:1"
       id="g35">
      <g
         transform="translate(179.97597,236.71941)"
         id="g34">
        <path
           style="stroke:none"
           d="m 11.1875,-12.953125 c 1.125,0.761719 2.007812,1.75 2.65625,2.96875 0.644531,1.21875 0.898438,2.515625 0.765625,3.890625 C 14.472656,-4.894531 14.0625,-3.863281 13.375,-3 c -0.679688,0.867188 -1.511719,1.539062 -2.5,2.015625 C 9.882812,-0.503906 8.832031,-0.238281 7.71875,-0.1875 6.613281,-0.144531 5.550781,-0.332031 4.53125,-0.75 3.507812,-1.164062 2.648438,-1.847656 1.953125,-2.796875 1.585938,-3.253906 1.4375,-3.695312 1.5,-4.125 1.5625,-4.550781 1.742188,-4.925781 2.046875,-5.25 c 0.3125,-0.320312 0.695313,-0.546875 1.15625,-0.671875 0.46875,-0.132813 0.9375,-0.140625 1.40625,-0.015625 0.46875,0.117188 0.867187,0.40625 1.203125,0.875 0.164062,0.21875 0.46875,0.34375 0.90625,0.375 0.4375,0.023438 0.875,0 1.3125,-0.0625 0.445312,-0.070312 0.757812,-0.148438 0.9375,-0.234375 0.414062,-0.195313 0.726562,-0.488281 0.9375,-0.875 0.21875,-0.394531 0.296875,-0.820313 0.234375,-1.28125 -0.0625,-0.5625 -0.265625,-1.019531 -0.609375,-1.375 C 9.195312,-8.878906 8.796875,-9.195312 8.328125,-9.46875 7.859375,-9.738281 7.382812,-10 6.90625,-10.25 6.425781,-10.5 6.003906,-10.769531 5.640625,-11.0625 c -1,-0.882812 -1.609375,-1.84375 -1.828125,-2.875 -0.21875,-1.03125 -0.148438,-2.054688 0.21875,-3.078125 0.375,-1.03125 0.953125,-1.96875 1.734375,-2.8125 0.78125,-0.84375 1.671875,-1.492187 2.671875,-1.953125 0.53125,-0.257812 1.023438,-0.328125 1.484375,-0.203125 0.46875,0.117187 0.863281,0.339844 1.1875,0.671875 0.332031,0.335938 0.554687,0.71875 0.671875,1.15625 0.125,0.4375 0.101562,0.867188 -0.0625,1.28125 -0.15625,0.40625 -0.496094,0.730469 -1.015625,0.96875 -0.335937,0.15625 -0.730469,0.375 -1.1875,0.65625 -0.449219,0.28125 -0.820313,0.621094 -1.109375,1.015625 -0.28125,0.386719 -0.335938,0.820313 -0.15625,1.296875 0.101562,0.324219 0.335938,0.601562 0.703125,0.828125 0.375,0.230469 0.769531,0.433594 1.1875,0.609375 0.414063,0.179688 0.765625,0.359375 1.046875,0.546875 z m 0,0"
           id="path33" />
      </g>
    </g>
    <g
       style="fill:#000000;fill-opacity:1"
       id="g37">
      <g
         transform="translate(196.10442,236.71941)"
         id="g36">
        <path
           style="stroke:none"
           d="m 13.6875,-20.609375 c 0.550781,0.08594 1,0.296875 1.34375,0.640625 0.34375,0.335938 0.570312,0.730469 0.6875,1.1875 0.125,0.460938 0.125,0.914062 0,1.359375 -0.117188,0.4375 -0.34375,0.78125 -0.6875,1.03125 -0.34375,0.25 -0.792969,0.34375 -1.34375,0.28125 -0.929688,-0.125 -1.890625,-0.210937 -2.890625,-0.265625 -0.136719,2.179688 -0.273437,4.359375 -0.40625,6.546875 -0.125,2.179687 -0.261719,4.367187 -0.40625,6.5625 -0.023437,0.554687 -0.199219,1.007813 -0.53125,1.359375 -0.324219,0.355469 -0.710937,0.59375 -1.15625,0.71875 -0.449219,0.117188 -0.898437,0.117188 -1.34375,0 -0.4375,-0.125 -0.796875,-0.359375 -1.078125,-0.703125 -0.28125,-0.34375 -0.414062,-0.800781 -0.390625,-1.375 0.144531,-2.195313 0.28125,-4.390625 0.40625,-6.578125 0.132813,-2.195312 0.269531,-4.394531 0.40625,-6.59375 -0.898437,0.04297 -1.777344,0.101562 -2.640625,0.171875 -0.574219,0.0625 -1.039062,-0.03906 -1.390625,-0.3125 -0.355469,-0.269531 -0.589844,-0.625 -0.703125,-1.0625 -0.105469,-0.4375 -0.101562,-0.878906 0.015625,-1.328125 0.125,-0.457031 0.359375,-0.851562 0.703125,-1.1875 0.34375,-0.34375 0.800781,-0.546875 1.375,-0.609375 3.34375,-0.332031 6.6875,-0.28125 10.03125,0.15625 z m 0,0"
           id="path35" />
      </g>
    </g>
    <g
       style="fill:#000000;fill-opacity:1"
       id="g39">
      <g
         transform="translate(213.40203,236.71941)"
         id="g38">
        <path
           style="stroke:none"
           d=""
           id="path37" />
      </g>
    </g>
    <g
       style="fill:#000000;fill-opacity:1"
       id="g41">
      <g
         transform="translate(222.51551,236.71941)"
         id="g40">
        <path
           style="stroke:none"
           d="m 11.1875,-12.953125 c 1.125,0.761719 2.007812,1.75 2.65625,2.96875 0.644531,1.21875 0.898438,2.515625 0.765625,3.890625 C 14.472656,-4.894531 14.0625,-3.863281 13.375,-3 c -0.679688,0.867188 -1.511719,1.539062 -2.5,2.015625 C 9.882812,-0.503906 8.832031,-0.238281 7.71875,-0.1875 6.613281,-0.144531 5.550781,-0.332031 4.53125,-0.75 3.507812,-1.164062 2.648438,-1.847656 1.953125,-2.796875 1.585938,-3.253906 1.4375,-3.695312 1.5,-4.125 1.5625,-4.550781 1.742188,-4.925781 2.046875,-5.25 c 0.3125,-0.320312 0.695313,-0.546875 1.15625,-0.671875 0.46875,-0.132813 0.9375,-0.140625 1.40625,-0.015625 0.46875,0.117188 0.867187,0.40625 1.203125,0.875 0.164062,0.21875 0.46875,0.34375 0.90625,0.375 0.4375,0.023438 0.875,0 1.3125,-0.0625 0.445312,-0.070312 0.757812,-0.148438 0.9375,-0.234375 0.414062,-0.195313 0.726562,-0.488281 0.9375,-0.875 0.21875,-0.394531 0.296875,-0.820313 0.234375,-1.28125 -0.0625,-0.5625 -0.265625,-1.019531 -0.609375,-1.375 C 9.195312,-8.878906 8.796875,-9.195312 8.328125,-9.46875 7.859375,-9.738281 7.382812,-10 6.90625,-10.25 6.425781,-10.5 6.003906,-10.769531 5.640625,-11.0625 c -1,-0.882812 -1.609375,-1.84375 -1.828125,-2.875 -0.21875,-1.03125 -0.148438,-2.054688 0.21875,-3.078125 0.375,-1.03125 0.953125,-1.96875 1.734375,-2.8125 0.78125,-0.84375 1.671875,-1.492187 2.671875,-1.953125 0.53125,-0.257812 1.023438,-0.328125 1.484375,-0.203125 0.46875,0.117187 0.863281,0.339844 1.1875,0.671875 0.332031,0.335938 0.554687,0.71875 0.671875,1.15625 0.125,0.4375 0.101562,0.867188 -0.0625,1.28125 -0.15625,0.40625 -0.496094,0.730469 -1.015625,0.96875 -0.335937,0.15625 -0.730469,0.375 -1.1875,0.65625 -0.449219,0.28125 -0.820313,0.621094 -1.109375,1.015625 -0.28125,0.386719 -0.335938,0.820313 -0.15625,1.296875 0.101562,0.324219 0.335938,0.601562 0.703125,0.828125 0.375,0.230469 0.769531,0.433594 1.1875,0.609375 0.414063,0.179688 0.765625,0.359375 1.046875,0.546875 z m 0,0"
           id="path39" />
      </g>
    </g>
    <g
       style="fill:#000000;fill-opacity:1"
       id="g43">
      <g
         transform="translate(238.64396,236.71941)"
         id="g42">
        <path
           style="stroke:none"
           d="m 13.6875,-20.609375 c 0.550781,0.08594 1,0.296875 1.34375,0.640625 0.34375,0.335938 0.570312,0.730469 0.6875,1.1875 0.125,0.460938 0.125,0.914062 0,1.359375 -0.117188,0.4375 -0.34375,0.78125 -0.6875,1.03125 -0.34375,0.25 -0.792969,0.34375 -1.34375,0.28125 -0.929688,-0.125 -1.890625,-0.210937 -2.890625,-0.265625 -0.136719,2.179688 -0.273437,4.359375 -0.40625,6.546875 -0.125,2.179687 -0.261719,4.367187 -0.40625,6.5625 -0.023437,0.554687 -0.199219,1.007813 -0.53125,1.359375 -0.324219,0.355469 -0.710937,0.59375 -1.15625,0.71875 -0.449219,0.117188 -0.898437,0.117188 -1.34375,0 -0.4375,-0.125 -0.796875,-0.359375 -1.078125,-0.703125 -0.28125,-0.34375 -0.414062,-0.800781 -0.390625,-1.375 0.144531,-2.195313 0.28125,-4.390625 0.40625,-6.578125 0.132813,-2.195312 0.269531,-4.394531 0.40625,-6.59375 -0.898437,0.04297 -1.777344,0.101562 -2.640625,0.171875 -0.574219,0.0625 -1.039062,-0.03906 -1.390625,-0.3125 -0.355469,-0.269531 -0.589844,-0.625 -0.703125,-1.0625 -0.105469,-0.4375 -0.101562,-0.878906 0.015625,-1.328125 0.125,-0.457031 0.359375,-0.851562 0.703125,-1.1875 0.34375,-0.34375 0.800781,-0.546875 1.375,-0.609375 3.34375,-0.332031 6.6875,-0.28125 10.03125,0.15625 z m 0,0"
           id="path41" />
      </g>
    </g>
    <g
       style="fill:#000000;fill-opacity:1"
       id="g45">
      <g
         transform="translate(255.94158,236.71941)"
         id="g44">
        <path
           style="stroke:none"
           d="m 17.546875,-17.046875 c 0.125,1.085937 0.132813,2.261719 0.03125,3.53125 -0.09375,1.273437 -0.324219,2.542969 -0.6875,3.8125 C 16.523438,-8.429688 16.019531,-7.25 15.375,-6.15625 c -0.648438,1.085938 -1.449219,2 -2.40625,2.75 -0.949219,0.75 -2.054688,1.234375 -3.3125,1.453125 C 8.34375,-1.734375 7.21875,-1.832031 6.28125,-2.25 5.351562,-2.664062 4.582031,-3.3125 3.96875,-4.1875 3.363281,-5.070312 2.878906,-6.082031 2.515625,-7.21875 2.160156,-8.363281 1.90625,-9.554688 1.75,-10.796875 1.601562,-12.035156 1.523438,-13.21875 1.515625,-14.34375 c -0.011719,-1.132812 0.015625,-2.132812 0.078125,-3 0.039062,-0.5625 0.222656,-1.015625 0.546875,-1.359375 0.332031,-0.351563 0.722656,-0.585937 1.171875,-0.703125 0.445312,-0.125 0.890625,-0.125 1.328125,0 0.445313,0.117188 0.8125,0.34375 1.09375,0.6875 0.28125,0.34375 0.398437,0.804688 0.359375,1.375 -0.023438,0.304688 -0.042969,0.8125 -0.0625,1.53125 -0.023438,0.71875 -0.011719,1.539062 0.03125,2.453125 0.039062,0.90625 0.125,1.824219 0.25,2.75 0.132812,0.917969 0.328125,1.734375 0.578125,2.453125 0.25,0.71875 0.582031,1.242188 1,1.5625 0.414063,0.3125 0.945313,0.324219 1.59375,0.03125 0.875,-0.425781 1.570313,-1.046875 2.09375,-1.859375 0.519531,-0.820313 0.898437,-1.742187 1.140625,-2.765625 0.238281,-1.019531 0.378906,-2.046875 0.421875,-3.078125 0.03906,-1.03125 0.0078,-1.957031 -0.09375,-2.78125 -0.07422,-0.550781 0.01563,-1.003906 0.265625,-1.359375 0.257812,-0.351562 0.601562,-0.582031 1.03125,-0.6875 0.4375,-0.113281 0.882812,-0.109375 1.34375,0.01563 0.457031,0.117187 0.863281,0.34375 1.21875,0.6875 0.351562,0.34375 0.566406,0.792969 0.640625,1.34375 z m 0,0"
           id="path43" />
      </g>
    </g>
    <g
       style="fill:#000000;fill-opacity:1"
       id="g47">
      <g
         transform="translate(275.0679,236.71941)"
         id="g46">
        <path
           style="stroke:none"
           d="m 12.984375,-18.5625 c 1.019531,0.917969 1.8125,2.011719 2.375,3.28125 0.5625,1.273438 0.757813,2.605469 0.59375,4 -0.136719,1.15625 -0.511719,2.242188 -1.125,3.25 -0.605469,1.011719 -1.351563,1.886719 -2.234375,2.625 -0.980469,0.84375 -2.136719,1.523438 -3.46875,2.03125 -1.324219,0.511719 -2.59375,0.964844 -3.8125,1.359375 -0.34375,0.125 -0.695312,0.226563 -1.046875,0.296875 -0.34375,0.0625 -0.6875,0.074219 -1.03125,0.03125 -0.480469,-0.050781 -0.898437,-0.269531 -1.25,-0.65625 C 1.640625,-2.738281 1.476562,-3.175781 1.5,-3.65625 c 0.132812,-5.4375 0.40625,-10.890625 0.8125,-16.359375 0.039062,-0.613281 0.242188,-1.046875 0.609375,-1.296875 0.375,-0.25 0.816406,-0.378906 1.328125,-0.390625 0.507812,-0.0078 1.003906,0.02734 1.484375,0.109375 0.28125,0.03125 0.539063,0.07031 0.78125,0.109375 1.175781,0.242187 2.3125,0.578125 3.40625,1.015625 1.101563,0.429688 2.125,1.0625 3.0625,1.90625 z m -1.671875,7.515625 c 0.28125,-0.789063 0.320312,-1.515625 0.125,-2.171875 -0.1875,-0.664062 -0.53125,-1.238281 -1.03125,-1.71875 -0.5,-0.476562 -1.089844,-0.878906 -1.765625,-1.203125 -0.679687,-0.320313 -1.371094,-0.5625 -2.078125,-0.71875 -0.199219,3.28125 -0.355469,6.542969 -0.46875,9.78125 0.738281,-0.238281 1.453125,-0.515625 2.140625,-0.828125 0.6875,-0.3125 1.300781,-0.710938 1.84375,-1.203125 0.539063,-0.488281 0.953125,-1.132813 1.234375,-1.9375 z m 0,0"
           id="path45" />
      </g>
    </g>
    <g
       style="fill:#000000;fill-opacity:1"
       id="g49">
      <g
         transform="translate(292.57536,236.71941)"
         id="g48">
        <path
           style="stroke:none"
           d="m 2.84375,-18.484375 c 0.0625,-0.550781 0.257812,-1 0.59375,-1.34375 0.34375,-0.34375 0.742188,-0.570313 1.203125,-0.6875 0.46875,-0.125 0.921875,-0.128906 1.359375,-0.01563 0.4375,0.105469 0.785156,0.335938 1.046875,0.6875 0.257813,0.355469 0.359375,0.808594 0.296875,1.359375 C 6.769531,-13.054688 6.320312,-7.625 6,-2.1875 c -0.042969,0.585938 -0.226562,1.054688 -0.546875,1.40625 -0.3125,0.34375 -0.699219,0.574219 -1.15625,0.6875 -0.449219,0.1015625 -0.890625,0.1015625 -1.328125,0 C 2.53125,-0.207031 2.164062,-0.4375 1.875,-0.78125 1.582031,-1.132812 1.457031,-1.601562 1.5,-2.1875 1.820312,-7.625 2.269531,-13.054688 2.84375,-18.484375 Z m 0,0"
           id="path47" />
      </g>
    </g>
    <g
       style="fill:#000000;fill-opacity:1"
       id="g51">
      <g
         transform="translate(301.44902,236.71941)"
         id="g50">
        <path
           style="stroke:none"
           d="m 16.6875,-18.328125 c 0.476562,0.78125 0.804688,1.65625 0.984375,2.625 0.175781,0.96875 0.253906,1.949219 0.234375,2.9375 -0.02344,0.992187 -0.101562,1.917969 -0.234375,2.78125 -0.199219,1.3125 -0.609375,2.5625 -1.234375,3.75 -0.617188,1.179687 -1.445312,2.195313 -2.484375,3.046875 -1,0.824219 -2.164063,1.429688 -3.484375,1.8125 C 9.144531,-1 7.851562,-1.007812 6.59375,-1.40625 5.757812,-1.664062 5.03125,-2.09375 4.40625,-2.6875 3.789062,-3.289062 3.269531,-3.976562 2.84375,-4.75 2.425781,-5.519531 2.117188,-6.304688 1.921875,-7.109375 1.679688,-7.992188 1.539062,-9.007812 1.5,-10.15625 c -0.042969,-1.144531 0.035156,-2.316406 0.234375,-3.515625 0.207031,-1.207031 0.539063,-2.328125 1,-3.359375 0.457031,-1.039062 1.078125,-1.90625 1.859375,-2.59375 0.800781,-0.8125 1.757812,-1.390625 2.875,-1.734375 1.125,-0.34375 2.273438,-0.457031 3.453125,-0.34375 1.175781,0.105469 2.273437,0.445313 3.296875,1.015625 1.019531,0.574219 1.84375,1.359375 2.46875,2.359375 z M 11.21875,-6.65625 c 0.675781,-0.644531 1.179688,-1.390625 1.515625,-2.234375 0.332031,-0.851563 0.535156,-1.742187 0.609375,-2.671875 0.08203,-0.925781 0.06641,-1.832031 -0.04687,-2.71875 -0.125,-0.875 -0.476563,-1.59375 -1.046875,-2.15625 C 11.6875,-17 10.929688,-17.269531 9.984375,-17.25 c -0.523437,0 -1.027344,0.132812 -1.515625,0.390625 -0.492188,0.261719 -0.890625,0.601563 -1.203125,1.015625 -0.367187,0.5 -0.632813,1.105469 -0.796875,1.8125 -0.15625,0.699219 -0.273438,1.34375 -0.34375,1.9375 -0.1875,1.34375 -0.121094,2.667969 0.203125,3.96875 0.101563,0.375 0.238281,0.757812 0.40625,1.140625 0.164063,0.375 0.410156,0.683594 0.734375,0.921875 0.519531,0.386719 1.113281,0.527344 1.78125,0.421875 0.675781,-0.113281 1.265625,-0.382813 1.765625,-0.8125 0.05078,-0.0625 0.117187,-0.128906 0.203125,-0.203125 z m 0,0"
           id="path49" />
      </g>
    </g>
    <g
       style="fill:#000000;fill-opacity:1"
       id="g53">
      <g
         transform="translate(320.84514,236.71941)"
         id="g52">
        <path
           style="stroke:none"
           d="m 11.1875,-12.953125 c 1.125,0.761719 2.007812,1.75 2.65625,2.96875 0.644531,1.21875 0.898438,2.515625 0.765625,3.890625 C 14.472656,-4.894531 14.0625,-3.863281 13.375,-3 c -0.679688,0.867188 -1.511719,1.539062 -2.5,2.015625 C 9.882812,-0.503906 8.832031,-0.238281 7.71875,-0.1875 6.613281,-0.144531 5.550781,-0.332031 4.53125,-0.75 3.507812,-1.164062 2.648438,-1.847656 1.953125,-2.796875 1.585938,-3.253906 1.4375,-3.695312 1.5,-4.125 1.5625,-4.550781 1.742188,-4.925781 2.046875,-5.25 c 0.3125,-0.320312 0.695313,-0.546875 1.15625,-0.671875 0.46875,-0.132813 0.9375,-0.140625 1.40625,-0.015625 0.46875,0.117188 0.867187,0.40625 1.203125,0.875 0.164062,0.21875 0.46875,0.34375 0.90625,0.375 0.4375,0.023438 0.875,0 1.3125,-0.0625 0.445312,-0.070312 0.757812,-0.148438 0.9375,-0.234375 0.414062,-0.195313 0.726562,-0.488281 0.9375,-0.875 0.21875,-0.394531 0.296875,-0.820313 0.234375,-1.28125 -0.0625,-0.5625 -0.265625,-1.019531 -0.609375,-1.375 C 9.195312,-8.878906 8.796875,-9.195312 8.328125,-9.46875 7.859375,-9.738281 7.382812,-10 6.90625,-10.25 6.425781,-10.5 6.003906,-10.769531 5.640625,-11.0625 c -1,-0.882812 -1.609375,-1.84375 -1.828125,-2.875 -0.21875,-1.03125 -0.148438,-2.054688 0.21875,-3.078125 0.375,-1.03125 0.953125,-1.96875 1.734375,-2.8125 0.78125,-0.84375 1.671875,-1.492187 2.671875,-1.953125 0.53125,-0.257812 1.023438,-0.328125 1.484375,-0.203125 0.46875,0.117187 0.863281,0.339844 1.1875,0.671875 0.332031,0.335938 0.554687,0.71875 0.671875,1.15625 0.125,0.4375 0.101562,0.867188 -0.0625,1.28125 -0.15625,0.40625 -0.496094,0.730469 -1.015625,0.96875 -0.335937,0.15625 -0.730469,0.375 -1.1875,0.65625 -0.449219,0.28125 -0.820313,0.621094 -1.109375,1.015625 -0.28125,0.386719 -0.335938,0.820313 -0.15625,1.296875 0.101562,0.324219 0.335938,0.601562 0.703125,0.828125 0.375,0.230469 0.769531,0.433594 1.1875,0.609375 0.414063,0.179688 0.765625,0.359375 1.046875,0.546875 z m 0,0"
           id="path51" />
      </g>
    </g>
    <g
       style="fill:#107173;fill-opacity:1"
       id="g55">
      <g
         transform="translate(122.18813,262.81614)"
         id="g54">
        <path
           style="stroke:none"
           d="M 3.359375,0 H 2.34375 L 0.03125,-5.8125 H 1.078125 L 2.875,-1.09375 4.6875,-5.8125 h 1.015625 z m 0,0"
           id="path53" />
      </g>
    </g>
    <g
       style="fill:#107173;fill-opacity:1"
       id="g57">
      <g
         transform="translate(130.00049,262.81614)"
         id="g56">
        <path
           style="stroke:none"
           d="M 1.75,0 H 0.765625 V -5.8125 H 1.75 Z m 0,0"
           id="path55" />
      </g>
    </g>
    <g
       style="fill:#107173;fill-opacity:1"
       id="g59">
      <g
         transform="translate(134.58817,262.81614)"
         id="g58">
        <path
           style="stroke:none"
           d="m 2.671875,-5.859375 c 0.757813,0 1.441406,0.199219 2.046875,0.59375 l -0.40625,0.875 C 3.71875,-4.753906 3.148438,-4.9375 2.609375,-4.9375 c -0.304687,0 -0.539063,0.054688 -0.703125,0.15625 -0.167969,0.105469 -0.25,0.257812 -0.25,0.453125 0,0.1875 0.078125,0.355469 0.234375,0.5 0.15625,0.136719 0.347656,0.234375 0.578125,0.296875 0.226562,0.0625 0.476562,0.140625 0.75,0.234375 0.269531,0.09375 0.519531,0.199219 0.75,0.3125 0.238281,0.105469 0.429688,0.273437 0.578125,0.5 0.15625,0.230469 0.234375,0.511719 0.234375,0.84375 0,0.511719 -0.203125,0.917969 -0.609375,1.21875 -0.40625,0.304687 -0.933594,0.453125 -1.578125,0.453125 -0.449219,0 -0.882812,-0.0820312 -1.296875,-0.25 C 0.890625,-0.382812 0.53125,-0.609375 0.21875,-0.890625 l 0.421875,-0.84375 c 0.289063,0.273437 0.613281,0.480469 0.96875,0.625 0.351563,0.148437 0.6875,0.21875 1,0.21875 0.34375,0 0.609375,-0.0625 0.796875,-0.1875 0.195312,-0.125 0.296875,-0.296875 0.296875,-0.515625 0,-0.195312 -0.078125,-0.363281 -0.234375,-0.5 C 3.3125,-2.226562 3.113281,-2.328125 2.875,-2.390625 2.644531,-2.460938 2.394531,-2.539062 2.125,-2.625 1.851562,-2.71875 1.597656,-2.816406 1.359375,-2.921875 1.128906,-3.023438 0.9375,-3.1875 0.78125,-3.40625 0.632812,-3.632812 0.5625,-3.910156 0.5625,-4.234375 c 0,-0.5 0.191406,-0.894531 0.578125,-1.1875 0.382813,-0.289063 0.894531,-0.4375 1.53125,-0.4375 z m 0,0"
           id="path57" />
      </g>
    </g>
    <g
       style="fill:#107173;fill-opacity:1"
       id="g61">
      <g
         transform="translate(141.83538,262.81614)"
         id="g60">
        <path
           style="stroke:none"
           d="m 5.703125,-5.8125 v 3.40625 c 0,0.761719 -0.226563,1.359375 -0.671875,1.796875 -0.449219,0.4375 -1.070312,0.65625 -1.859375,0.65625 -0.78125,0 -1.402344,-0.21875 -1.859375,-0.65625 C 0.863281,-1.046875 0.640625,-1.644531 0.640625,-2.40625 V -5.8125 H 1.625 v 3.40625 c 0,0.492188 0.140625,0.875 0.421875,1.15625 0.28125,0.273438 0.660156,0.40625 1.140625,0.40625 0.476562,0 0.851562,-0.132812 1.125,-0.40625 0.28125,-0.28125 0.421875,-0.664062 0.421875,-1.15625 V -5.8125 Z m 0,0"
           id="path59" />
      </g>
    </g>
    <g
       style="fill:#107173;fill-opacity:1"
       id="g63">
      <g
         transform="translate(150.26276,262.81614)"
         id="g62">
        <path
           style="stroke:none"
           d="M 4.515625,-1.3125 H 1.59375 L 1.03125,0 H 0.015625 l 2.5625,-5.8125 h 1 L 6.125,0 H 5.078125 Z m -0.375,-0.875 -1.09375,-2.578125 -1.09375,2.578125 z m 0,0"
           id="path61" />
      </g>
    </g>
    <g
       style="fill:#107173;fill-opacity:1"
       id="g65">
      <g
         transform="translate(158.47406,262.81614)"
         id="g64">
        <path
           style="stroke:none"
           d="M 1.75,-0.890625 H 4.265625 V 0 h -3.5 V -5.8125 H 1.75 Z m 0,0"
           id="path63" />
      </g>
    </g>
    <g
       style="fill:#107173;fill-opacity:1"
       id="g67">
      <g
         transform="translate(164.9899,262.81614)"
         id="g66">
        <path
           style="stroke:none"
           d="m 2.671875,-5.859375 c 0.757813,0 1.441406,0.199219 2.046875,0.59375 l -0.40625,0.875 C 3.71875,-4.753906 3.148438,-4.9375 2.609375,-4.9375 c -0.304687,0 -0.539063,0.054688 -0.703125,0.15625 -0.167969,0.105469 -0.25,0.257812 -0.25,0.453125 0,0.1875 0.078125,0.355469 0.234375,0.5 0.15625,0.136719 0.347656,0.234375 0.578125,0.296875 0.226562,0.0625 0.476562,0.140625 0.75,0.234375 0.269531,0.09375 0.519531,0.199219 0.75,0.3125 0.238281,0.105469 0.429688,0.273437 0.578125,0.5 0.15625,0.230469 0.234375,0.511719 0.234375,0.84375 0,0.511719 -0.203125,0.917969 -0.609375,1.21875 -0.40625,0.304687 -0.933594,0.453125 -1.578125,0.453125 -0.449219,0 -0.882812,-0.0820312 -1.296875,-0.25 C 0.890625,-0.382812 0.53125,-0.609375 0.21875,-0.890625 l 0.421875,-0.84375 c 0.289063,0.273437 0.613281,0.480469 0.96875,0.625 0.351563,0.148437 0.6875,0.21875 1,0.21875 0.34375,0 0.609375,-0.0625 0.796875,-0.1875 0.195312,-0.125 0.296875,-0.296875 0.296875,-0.515625 0,-0.195312 -0.078125,-0.363281 -0.234375,-0.5 C 3.3125,-2.226562 3.113281,-2.328125 2.875,-2.390625 2.644531,-2.460938 2.394531,-2.539062 2.125,-2.625 1.851562,-2.71875 1.597656,-2.816406 1.359375,-2.921875 1.128906,-3.023438 0.9375,-3.1875 0.78125,-3.40625 0.632812,-3.632812 0.5625,-3.910156 0.5625,-4.234375 c 0,-0.5 0.191406,-0.894531 0.578125,-1.1875 0.382813,-0.289063 0.894531,-0.4375 1.53125,-0.4375 z m 0,0"
           id="path65" />
      </g>
    </g>
    <g
       style="fill:#107173;fill-opacity:1"
       id="g69">
      <g
         transform="translate(172.23711,262.81614)"
         id="g68">
        <path
           style="stroke:none"
           d=""
           id="path67" />
      </g>
    </g>
    <g
       style="fill:#107173;fill-opacity:1"
       id="g71">
      <g
         transform="translate(176.45911,262.81614)"
         id="g70">
        <path
           style="stroke:none"
           d="M 4.734375,-4.9375 H 2.890625 V 0 H 1.90625 V -4.9375 H 0.078125 v -0.875 h 4.65625 z m 0,0"
           id="path69" />
      </g>
    </g>
    <g
       style="fill:#107173;fill-opacity:1"
       id="g73">
      <g
         transform="translate(183.34894,262.81614)"
         id="g72">
        <path
           style="stroke:none"
           d="M 5.8125,0 H 4.828125 V -2.40625 H 1.75 V 0 H 0.765625 V -5.8125 H 1.75 v 2.515625 H 4.828125 V -5.8125 H 5.8125 Z m 0,0"
           id="path71" />
      </g>
    </g>
    <g
       style="fill:#107173;fill-opacity:1"
       id="g75">
      <g
         transform="translate(192.00072,262.81614)"
         id="g74">
        <path
           style="stroke:none"
           d="M 4.515625,-1.3125 H 1.59375 L 1.03125,0 H 0.015625 l 2.5625,-5.8125 h 1 L 6.125,0 H 5.078125 Z m -0.375,-0.875 -1.09375,-2.578125 -1.09375,2.578125 z m 0,0"
           id="path73" />
      </g>
    </g>
    <g
       style="fill:#107173;fill-opacity:1"
       id="g77">
      <g
         transform="translate(200.21202,262.81614)"
         id="g76">
        <path
           style="stroke:none"
           d="M 4.734375,-4.9375 H 2.890625 V 0 H 1.90625 V -4.9375 H 0.078125 v -0.875 h 4.65625 z m 0,0"
           id="path75" />
      </g>
    </g>
    <g
       style="fill:#107173;fill-opacity:1"
       id="g79">
      <g
         transform="translate(207.10185,262.81614)"
         id="g78">
        <path
           style="stroke:none"
           d=""
           id="path77" />
      </g>
    </g>
    <g
       style="fill:#107173;fill-opacity:1"
       id="g81">
      <g
         transform="translate(211.32385,262.81614)"
         id="g80">
        <path
           style="stroke:none"
           d="M 4.734375,-4.9375 H 2.890625 V 0 H 1.90625 V -4.9375 H 0.078125 v -0.875 h 4.65625 z m 0,0"
           id="path79" />
      </g>
    </g>
    <g
       style="fill:#107173;fill-opacity:1"
       id="g83">
      <g
         transform="translate(218.21369,262.81614)"
         id="g82">
        <path
           style="stroke:none"
           d="M 5.8125,0 H 4.828125 V -2.40625 H 1.75 V 0 H 0.765625 V -5.8125 H 1.75 v 2.515625 H 4.828125 V -5.8125 H 5.8125 Z m 0,0"
           id="path81" />
      </g>
    </g>
    <g
       style="fill:#107173;fill-opacity:1"
       id="g85">
      <g
         transform="translate(226.86546,262.81614)"
         id="g84">
        <path
           style="stroke:none"
           d="m 4.453125,0 -1.0625,-1.765625 C 3.335938,-1.753906 3.25,-1.75 3.125,-1.75 H 1.75 V 0 H 0.765625 V -5.8125 H 3.125 c 0.738281,0 1.3125,0.171875 1.71875,0.515625 0.414062,0.34375 0.625,0.835937 0.625,1.46875 0,0.460937 -0.105469,0.851563 -0.3125,1.171875 -0.210938,0.324219 -0.507812,0.5625 -0.890625,0.71875 L 5.5625,0 Z M 1.75,-2.640625 h 1.375 c 0.9375,0 1.40625,-0.390625 1.40625,-1.171875 0,-0.75 -0.46875,-1.125 -1.40625,-1.125 H 1.75 Z m 0,0"
           id="path83" />
      </g>
    </g>
    <g
       style="fill:#107173;fill-opacity:1"
       id="g87">
      <g
         transform="translate(234.95209,262.81614)"
         id="g86">
        <path
           style="stroke:none"
           d="M 1.75,0 H 0.765625 V -5.8125 H 1.75 Z m 0,0"
           id="path85" />
      </g>
    </g>
    <g
       style="fill:#107173;fill-opacity:1"
       id="g89">
      <g
         transform="translate(239.53977,262.81614)"
         id="g88">
        <path
           style="stroke:none"
           d="M 3.359375,0 H 2.34375 L 0.03125,-5.8125 H 1.078125 L 2.875,-1.09375 4.6875,-5.8125 h 1.015625 z m 0,0"
           id="path87" />
      </g>
    </g>
    <g
       style="fill:#107173;fill-opacity:1"
       id="g91">
      <g
         transform="translate(247.35213,262.81614)"
         id="g90">
        <path
           style="stroke:none"
           d="M 4.921875,-4.9375 H 1.75 v 1.578125 h 2.84375 v 0.875 H 1.75 V -0.875 H 5.015625 V 0 h -4.25 v -5.8125 h 4.15625 z m 0,0"
           id="path89" />
      </g>
    </g>
  </g>
</svg>
